<?xml version="1.0" encoding="UTF-8"?>
<svg id="Layer_1" data-name="Layer 1" xmlns="http://www.w3.org/2000/svg" xmlns:xlink="http://www.w3.org/1999/xlink" viewBox="0 0 168.07 95.53">
  <defs>
    <style>
      .cls-1 {
        fill: #3542ff;
      }

      .cls-2, .cls-3 {
        fill: none;
      }

      .cls-4 {
        fill: #2242ff;
      }

      .cls-3 {
        stroke: #3542ff;
        stroke-miterlimit: 10;
        stroke-width: 2px;
      }

      .cls-5 {
        fill: url(#Diagonal_Lines_G_S2_W4_copy);
      }
    </style>
    <pattern id="Diagonal_Lines_G_S2_W4_copy" data-name="Diagonal Lines G S2 W4 copy" x="0" y="0" width="12" height="12" patternTransform="translate(4280.8 3467.35)" patternUnits="userSpaceOnUse" viewBox="0 0 12 12">
      <g>
        <rect class="cls-2" width="12" height="12"/>
        <line class="cls-3" x1="11.8" y1="72.21" x2="72.21" y2="11.79"/>
        <line class="cls-3" x1="-.2" y1="72.21" x2="60.21" y2="11.79"/>
        <line class="cls-3" x1="-12.2" y1="72.21" x2="48.21" y2="11.79"/>
        <line class="cls-3" x1="-24.2" y1="72.21" x2="36.21" y2="11.79"/>
        <line class="cls-3" x1="-36.2" y1="72.21" x2="24.21" y2="11.79"/>
        <line class="cls-3" x1="-48.2" y1="72.21" x2="12.21" y2="11.79"/>
        <line class="cls-3" x1="-60.2" y1="72.21" x2=".21" y2="11.79"/>
        <line class="cls-3" x1="11.8" y1="60.21" x2="72.21" y2="-.21"/>
        <line class="cls-3" x1="-.2" y1="60.21" x2="60.21" y2="-.21"/>
        <line class="cls-3" x1="-12.2" y1="60.21" x2="48.21" y2="-.21"/>
        <line class="cls-3" x1="-24.2" y1="60.21" x2="36.21" y2="-.21"/>
        <line class="cls-3" x1="-36.2" y1="60.21" x2="24.21" y2="-.21"/>
        <line class="cls-3" x1="-48.2" y1="60.21" x2="12.21" y2="-.21"/>
        <line class="cls-3" x1="-60.2" y1="60.21" x2=".21" y2="-.21"/>
        <line class="cls-3" x1="11.8" y1="48.21" x2="72.21" y2="-12.21"/>
        <line class="cls-3" x1="-.2" y1="48.21" x2="60.21" y2="-12.21"/>
        <line class="cls-3" x1="-12.2" y1="48.21" x2="48.21" y2="-12.21"/>
        <line class="cls-3" x1="-24.2" y1="48.21" x2="36.21" y2="-12.21"/>
        <line class="cls-3" x1="-36.2" y1="48.21" x2="24.21" y2="-12.21"/>
        <line class="cls-3" x1="-48.2" y1="48.21" x2="12.21" y2="-12.21"/>
        <line class="cls-3" x1="-60.2" y1="48.21" x2=".21" y2="-12.21"/>
        <line class="cls-3" x1="11.8" y1="36.21" x2="72.21" y2="-24.21"/>
        <line class="cls-3" x1="-.2" y1="36.21" x2="60.21" y2="-24.21"/>
        <line class="cls-3" x1="-12.2" y1="36.21" x2="48.21" y2="-24.21"/>
        <line class="cls-3" x1="-24.2" y1="36.21" x2="36.21" y2="-24.21"/>
        <line class="cls-3" x1="-36.2" y1="36.21" x2="24.21" y2="-24.21"/>
        <line class="cls-3" x1="-48.2" y1="36.21" x2="12.21" y2="-24.21"/>
        <line class="cls-3" x1="-60.2" y1="36.21" x2=".21" y2="-24.21"/>
        <line class="cls-3" x1="11.8" y1="24.21" x2="72.21" y2="-36.21"/>
        <line class="cls-3" x1="-.2" y1="24.21" x2="60.21" y2="-36.21"/>
        <line class="cls-3" x1="-12.2" y1="24.21" x2="48.21" y2="-36.21"/>
        <line class="cls-3" x1="-24.2" y1="24.21" x2="36.21" y2="-36.21"/>
        <line class="cls-3" x1="-36.2" y1="24.21" x2="24.21" y2="-36.21"/>
        <line class="cls-3" x1="-48.2" y1="24.21" x2="12.21" y2="-36.21"/>
        <line class="cls-3" x1="-60.2" y1="24.21" x2=".21" y2="-36.21"/>
        <line class="cls-3" x1="11.8" y1="12.21" x2="72.21" y2="-48.21"/>
        <line class="cls-3" x1="-.2" y1="12.21" x2="60.21" y2="-48.21"/>
        <line class="cls-3" x1="-12.2" y1="12.21" x2="48.21" y2="-48.21"/>
        <line class="cls-3" x1="-24.2" y1="12.21" x2="36.21" y2="-48.21"/>
        <line class="cls-3" x1="-36.2" y1="12.21" x2="24.21" y2="-48.21"/>
        <line class="cls-3" x1="-48.2" y1="12.21" x2="12.21" y2="-48.21"/>
        <line class="cls-3" x1="-60.2" y1="12.21" x2=".21" y2="-48.21"/>
        <line class="cls-3" x1="11.8" y1=".21" x2="72.21" y2="-60.21"/>
        <line class="cls-3" x1="-.2" y1=".21" x2="60.21" y2="-60.21"/>
        <line class="cls-3" x1="-12.2" y1=".21" x2="48.21" y2="-60.21"/>
        <line class="cls-3" x1="-24.2" y1=".21" x2="36.21" y2="-60.21"/>
        <line class="cls-3" x1="-36.2" y1=".21" x2="24.21" y2="-60.21"/>
        <line class="cls-3" x1="-48.2" y1=".21" x2="12.21" y2="-60.21"/>
        <line class="cls-3" x1="-60.2" y1=".21" x2=".21" y2="-60.21"/>
      </g>
    </pattern>
  </defs>
  <path class="cls-4" d="M84.04,3c26.45,0,47.15,12.55,59.86,23.07,10.85,8.98,17.91,18.08,20.52,21.7-2.62,3.62-9.68,12.71-20.52,21.7-12.71,10.52-33.41,23.07-59.86,23.07s-47.15-12.55-59.86-23.07C13.33,60.48,6.27,51.39,3.66,47.77c2.62-3.62,9.68-12.71,20.52-21.7C36.89,15.55,57.59,3,84.04,3M84.04,0C30.96,0,0,47.77,0,47.77c0,0,30.96,47.77,84.04,47.77s84.04-47.77,84.04-47.77c0,0-30.96-47.77-84.04-47.77h0Z"/>
  <g>
    <path class="cls-5" d="M84.04,73.8c-14.35,0-26.03-11.68-26.03-26.03s11.68-26.03,26.03-26.03,26.03,11.68,26.03,26.03-11.68,26.03-26.03,26.03Z"/>
    <path class="cls-1" d="M84.04,23.23c13.53,0,24.53,11,24.53,24.53s-11,24.53-24.53,24.53-24.53-11-24.53-24.53,11-24.53,24.53-24.53M84.04,20.23c-15.21,0-27.53,12.33-27.53,27.53s12.33,27.53,27.53,27.53,27.53-12.33,27.53-27.53-12.33-27.53-27.53-27.53h0Z"/>
  </g>
</svg>