<?xml version="1.0" encoding="UTF-8"?>
<svg id="Layer_1" data-name="Layer 1" xmlns="http://www.w3.org/2000/svg" xmlns:xlink="http://www.w3.org/1999/xlink" viewBox="0 0 129.84 109.8">
  <defs>
    <style>
      .cls-1, .cls-2 {
        fill: none;
      }

      .cls-3 {
        fill: url(#New_Pattern_3);
        stroke-width: 3px;
      }

      .cls-3, .cls-2 {
        stroke: #df593c;
        stroke-miterlimit: 10;
      }

      .cls-2 {
        stroke-width: 2px;
      }
    </style>
    <pattern id="New_Pattern_3" data-name="New Pattern 3" x="0" y="0" width="20" height="20" patternTransform="translate(3634.94 3482.65)" patternUnits="userSpaceOnUse" viewBox="0 0 20 20">
      <g>
        <rect class="cls-1" width="20" height="20"/>
        <rect class="cls-2" x="20" y="20" width="20" height="20"/>
        <rect class="cls-2" x="0" y="20" width="20" height="20"/>
        <rect class="cls-2" x="-20" y="20" width="20" height="20"/>
        <rect class="cls-2" x="20" y="0" width="20" height="20"/>
        <rect class="cls-2" x="0" y="0" width="20" height="20"/>
        <rect class="cls-2" x="-20" y="0" width="20" height="20"/>
        <rect class="cls-2" x="20" y="-20" width="20" height="20"/>
        <rect class="cls-2" x="0" y="-20" width="20" height="20"/>
        <rect class="cls-2" x="-20" y="-20" width="20" height="20"/>
      </g>
    </pattern>
  </defs>
  <path class="cls-3" d="M119.48,10.36c-11.81-11.81-30.96-11.81-42.77,0l-11.79,11.79-11.79-11.79C41.32-1.45,22.17-1.45,10.36,10.36c-11.81,11.81-11.81,30.96,0,42.77l54.56,54.56h0s0,0,0,0l54.56-54.56c11.81-11.81,11.81-30.96,0-42.77Z"/>
</svg>