<?xml version="1.0" encoding="UTF-8"?>
<svg id="Layer_1" data-name="Layer 1" xmlns="http://www.w3.org/2000/svg" xmlns:xlink="http://www.w3.org/1999/xlink" viewBox="0 0 94.3 145.7">
  <defs>
    <style>
      .cls-1 {
        fill: url(#Cross_B_S2);
      }

      .cls-2, .cls-3 {
        fill: none;
      }

      .cls-4 {
        fill: #2242ff;
      }

      .cls-3 {
        stroke: #3542ff;
        stroke-miterlimit: 10;
        stroke-width: 2px;
      }
    </style>
    <pattern id="Cross_B_S2" data-name="Cross B S2" x="0" y="0" width="30" height="30" patternTransform="translate(2970.8 3169.12)" patternUnits="userSpaceOnUse" viewBox="0 0 30 30">
      <g>
        <rect class="cls-2" width="30" height="30"/>
        <g>
          <line class="cls-3" x1="14.79" y1="75.21" x2="75.21" y2="14.79"/>
          <line class="cls-3" x1="14.79" y1="14.79" x2="75.21" y2="75.21"/>
        </g>
        <g>
          <line class="cls-3" x1="-15.21" y1="75.21" x2="45.21" y2="14.79"/>
          <line class="cls-3" x1="-15.21" y1="14.79" x2="45.21" y2="75.21"/>
        </g>
        <g>
          <line class="cls-3" x1="-45.21" y1="75.21" x2="15.21" y2="14.79"/>
          <line class="cls-3" x1="-45.21" y1="14.79" x2="15.21" y2="75.21"/>
        </g>
        <g>
          <line class="cls-3" x1="14.79" y1="45.21" x2="75.21" y2="-15.21"/>
          <line class="cls-3" x1="14.79" y1="-15.21" x2="75.21" y2="45.21"/>
        </g>
        <g>
          <line class="cls-3" x1="-15.21" y1="45.21" x2="45.21" y2="-15.21"/>
          <line class="cls-3" x1="-15.21" y1="-15.21" x2="45.21" y2="45.21"/>
        </g>
        <g>
          <line class="cls-3" x1="-45.21" y1="45.21" x2="15.21" y2="-15.21"/>
          <line class="cls-3" x1="-45.21" y1="-15.21" x2="15.21" y2="45.21"/>
        </g>
        <g>
          <line class="cls-3" x1="14.79" y1="15.21" x2="75.21" y2="-45.21"/>
          <line class="cls-3" x1="14.79" y1="-45.21" x2="75.21" y2="15.21"/>
        </g>
        <g>
          <line class="cls-3" x1="-15.21" y1="15.21" x2="45.21" y2="-45.21"/>
          <line class="cls-3" x1="-15.21" y1="-45.21" x2="45.21" y2="15.21"/>
        </g>
        <g>
          <line class="cls-3" x1="-45.21" y1="15.21" x2="15.21" y2="-45.21"/>
          <line class="cls-3" x1="-45.21" y1="-45.21" x2="15.21" y2="15.21"/>
        </g>
      </g>
    </pattern>
  </defs>
  <g>
    <rect class="cls-1" x="26.77" y="118.2" width="40.76" height="26"/>
    <path class="cls-4" d="M66.03,119.7v23H28.27v-23h37.76M69.03,116.7H25.27v29h43.76v-29h0Z"/>
  </g>
  <g>
    <path class="cls-1" d="M26.77,110.86v-1.04c0-11.7-4.4-22.84-12.06-30.58C5.05,69.48.32,56,1.76,42.25,3.95,21.14,20.85,4.12,41.94,1.79c1.73-.19,3.49-.29,5.21-.29,25.17,0,45.65,20.48,45.65,45.65,0,11.63-4.39,22.71-12.35,31.19-8.33,8.88-12.92,19.95-12.92,31.17v1.34H26.77Z"/>
    <path class="cls-4" d="M47.15,3c24.34,0,44.15,19.81,44.15,44.15,0,11.25-4.24,21.96-11.94,30.17-8.55,9.11-13.28,20.49-13.33,32.04H28.27c-.11-11.92-4.65-23.26-12.49-31.18C6.43,68.75,1.86,55.71,3.25,42.41,5.37,21.99,21.71,5.54,42.1,3.28c1.68-.19,3.38-.28,5.05-.28M47.15,0c-1.77,0-3.57.1-5.38.3C20.06,2.7,2.53,20.37.26,42.1c-1.55,14.92,3.86,28.59,13.38,38.2,7.71,7.78,11.62,18.56,11.62,29.52v2.54h43.76v-2.84c0-11.31,4.77-21.9,12.51-30.14,7.91-8.42,12.75-19.75,12.75-32.22C94.3,21.11,73.19,0,47.15,0h0Z"/>
  </g>
</svg>