<?xml version="1.0" encoding="UTF-8"?>
<svg id="Layer_1" data-name="Layer 1" xmlns="http://www.w3.org/2000/svg" xmlns:xlink="http://www.w3.org/1999/xlink" viewBox="0 0 122.49 122.49">
  <defs>
    <style>
      .cls-1, .cls-2 {
        fill: none;
      }

      .cls-2 {
        stroke: #33af7b;
        stroke-miterlimit: 10;
        stroke-width: 2px;
      }

      .cls-3 {
        fill: url(#Diagonal_Lines_G_S2_W4);
      }

      .cls-4 {
        fill: #33af7b;
      }
    </style>
    <pattern id="Diagonal_Lines_G_S2_W4" data-name="Diagonal Lines G S2 W4" x="0" y="0" width="12" height="12" patternTransform="translate(2986.89 3493.55)" patternUnits="userSpaceOnUse" viewBox="0 0 12 12">
      <g>
        <rect class="cls-1" width="12" height="12"/>
        <line class="cls-2" x1="11.8" y1="72.21" x2="72.21" y2="11.79"/>
        <line class="cls-2" x1="-.2" y1="72.21" x2="60.21" y2="11.79"/>
        <line class="cls-2" x1="-12.2" y1="72.21" x2="48.21" y2="11.79"/>
        <line class="cls-2" x1="-24.2" y1="72.21" x2="36.21" y2="11.79"/>
        <line class="cls-2" x1="-36.2" y1="72.21" x2="24.21" y2="11.79"/>
        <line class="cls-2" x1="-48.2" y1="72.21" x2="12.21" y2="11.79"/>
        <line class="cls-2" x1="-60.2" y1="72.21" x2=".21" y2="11.79"/>
        <line class="cls-2" x1="11.8" y1="60.21" x2="72.21" y2="-.21"/>
        <line class="cls-2" x1="-.2" y1="60.21" x2="60.21" y2="-.21"/>
        <line class="cls-2" x1="-12.2" y1="60.21" x2="48.21" y2="-.21"/>
        <line class="cls-2" x1="-24.2" y1="60.21" x2="36.21" y2="-.21"/>
        <line class="cls-2" x1="-36.2" y1="60.21" x2="24.21" y2="-.21"/>
        <line class="cls-2" x1="-48.2" y1="60.21" x2="12.21" y2="-.21"/>
        <line class="cls-2" x1="-60.2" y1="60.21" x2=".21" y2="-.21"/>
        <line class="cls-2" x1="11.8" y1="48.21" x2="72.21" y2="-12.21"/>
        <line class="cls-2" x1="-.2" y1="48.21" x2="60.21" y2="-12.21"/>
        <line class="cls-2" x1="-12.2" y1="48.21" x2="48.21" y2="-12.21"/>
        <line class="cls-2" x1="-24.2" y1="48.21" x2="36.21" y2="-12.21"/>
        <line class="cls-2" x1="-36.2" y1="48.21" x2="24.21" y2="-12.21"/>
        <line class="cls-2" x1="-48.2" y1="48.21" x2="12.21" y2="-12.21"/>
        <line class="cls-2" x1="-60.2" y1="48.21" x2=".21" y2="-12.21"/>
        <line class="cls-2" x1="11.8" y1="36.21" x2="72.21" y2="-24.21"/>
        <line class="cls-2" x1="-.2" y1="36.21" x2="60.21" y2="-24.21"/>
        <line class="cls-2" x1="-12.2" y1="36.21" x2="48.21" y2="-24.21"/>
        <line class="cls-2" x1="-24.2" y1="36.21" x2="36.21" y2="-24.21"/>
        <line class="cls-2" x1="-36.2" y1="36.21" x2="24.21" y2="-24.21"/>
        <line class="cls-2" x1="-48.2" y1="36.21" x2="12.21" y2="-24.21"/>
        <line class="cls-2" x1="-60.2" y1="36.21" x2=".21" y2="-24.21"/>
        <line class="cls-2" x1="11.8" y1="24.21" x2="72.21" y2="-36.21"/>
        <line class="cls-2" x1="-.2" y1="24.21" x2="60.21" y2="-36.21"/>
        <line class="cls-2" x1="-12.2" y1="24.21" x2="48.21" y2="-36.21"/>
        <line class="cls-2" x1="-24.2" y1="24.21" x2="36.21" y2="-36.21"/>
        <line class="cls-2" x1="-36.2" y1="24.21" x2="24.21" y2="-36.21"/>
        <line class="cls-2" x1="-48.2" y1="24.21" x2="12.21" y2="-36.21"/>
        <line class="cls-2" x1="-60.2" y1="24.21" x2=".21" y2="-36.21"/>
        <line class="cls-2" x1="11.8" y1="12.21" x2="72.21" y2="-48.21"/>
        <line class="cls-2" x1="-.2" y1="12.21" x2="60.21" y2="-48.21"/>
        <line class="cls-2" x1="-12.2" y1="12.21" x2="48.21" y2="-48.21"/>
        <line class="cls-2" x1="-24.2" y1="12.21" x2="36.21" y2="-48.21"/>
        <line class="cls-2" x1="-36.2" y1="12.21" x2="24.21" y2="-48.21"/>
        <line class="cls-2" x1="-48.2" y1="12.21" x2="12.21" y2="-48.21"/>
        <line class="cls-2" x1="-60.2" y1="12.21" x2=".21" y2="-48.21"/>
        <line class="cls-2" x1="11.8" y1=".21" x2="72.21" y2="-60.21"/>
        <line class="cls-2" x1="-.2" y1=".21" x2="60.21" y2="-60.21"/>
        <line class="cls-2" x1="-12.2" y1=".21" x2="48.21" y2="-60.21"/>
        <line class="cls-2" x1="-24.2" y1=".21" x2="36.21" y2="-60.21"/>
        <line class="cls-2" x1="-36.2" y1=".21" x2="24.21" y2="-60.21"/>
        <line class="cls-2" x1="-48.2" y1=".21" x2="12.21" y2="-60.21"/>
        <line class="cls-2" x1="-60.2" y1=".21" x2=".21" y2="-60.21"/>
      </g>
    </pattern>
  </defs>
  <g>
    <path class="cls-3" d="M61.25,120.99C28.3,120.99,1.5,94.19,1.5,61.25S28.3,1.5,61.25,1.5s59.75,26.8,59.75,59.75-26.8,59.75-59.75,59.75ZM61.25,16.01c-24.95,0-45.24,20.29-45.24,45.24s20.29,45.24,45.24,45.24,45.24-20.29,45.24-45.24-20.29-45.24-45.24-45.24Z"/>
    <path class="cls-4" d="M61.25,3c32.12,0,58.25,26.13,58.25,58.25s-26.13,58.25-58.25,58.25S3,93.36,3,61.25,29.13,3,61.25,3M61.25,107.99c25.77,0,46.74-20.97,46.74-46.74S87.02,14.51,61.25,14.51,14.51,35.47,14.51,61.25s20.97,46.74,46.74,46.74M61.25,0C27.42,0,0,27.42,0,61.25s27.42,61.25,61.25,61.25,61.25-27.42,61.25-61.25S95.07,0,61.25,0h0ZM61.25,104.99c-24.16,0-43.74-19.58-43.74-43.74S37.09,17.51,61.25,17.51s43.74,19.58,43.74,43.74-19.58,43.74-43.74,43.74h0Z"/>
  </g>
  <g>
    <path class="cls-3" d="M61.25,77.68c-9.06,0-16.43-7.37-16.43-16.43s7.37-16.43,16.43-16.43,16.43,7.37,16.43,16.43-7.37,16.43-16.43,16.43Z"/>
    <path class="cls-4" d="M61.25,46.32c8.23,0,14.93,6.7,14.93,14.93s-6.7,14.93-14.93,14.93-14.93-6.7-14.93-14.93,6.7-14.93,14.93-14.93M61.25,43.32c-9.9,0-17.93,8.03-17.93,17.93s8.03,17.93,17.93,17.93,17.93-8.03,17.93-17.93-8.03-17.93-17.93-17.93h0Z"/>
  </g>
</svg>