<svg width="20" height="20" viewBox="0 0 20 20" fill="none" xmlns="http://www.w3.org/2000/svg">
<path d="M13.7277 0H5.57001C2.49378 0 0 2.58454 0 5.77272V14.2273C0 17.4155 2.49378 20 5.57001 20H13.7277C16.8039 20 19.2976 17.4155 19.2976 14.2273V5.77272C19.2976 2.58454 16.8039 0 13.7277 0ZM17.5205 14.3759C17.5205 16.4922 15.8651 18.2079 13.8231 18.2079H5.47454C3.43253 18.2079 1.77716 16.4922 1.77716 14.3759V5.72347C1.77716 3.60714 3.43253 1.89151 5.47454 1.89151H13.8231C15.8651 1.89151 17.5205 3.60714 17.5205 5.72347V14.3759Z" fill="white"/>
<path d="M9.64968 4.86035C6.88434 4.86035 4.64258 7.18369 4.64258 10.0497C4.64258 12.9157 6.88433 15.239 9.64968 15.239C12.415 15.239 14.6567 12.9157 14.6567 10.0497C14.6567 7.18369 12.415 4.86035 9.64968 4.86035ZM9.64968 13.4136C7.85706 13.4136 6.40386 11.9075 6.40386 10.0497C6.40386 8.19181 7.85706 6.68573 9.64968 6.68573C11.4423 6.68573 12.8955 8.19182 12.8955 10.0497C12.8955 11.9075 11.4423 13.4136 9.64968 13.4136Z" fill="white"/>
<path d="M14.8227 5.87194C15.4669 5.87194 15.9892 5.33069 15.9892 4.66302C15.9892 3.99535 15.4669 3.4541 14.8227 3.4541C14.1785 3.4541 13.6562 3.99535 13.6562 4.66302C13.6562 5.33069 14.1785 5.87194 14.8227 5.87194Z" fill="white"/>
</svg>
