<svg width="20" height="20" viewBox="0 0 20 20" fill="none" xmlns="http://www.w3.org/2000/svg">
<path d="M16.443 17.0431H13.5836V12.4021C13.5836 11.2943 13.5627 9.87114 12.0959 9.87114C10.606 9.87114 10.3788 11.0761 10.3788 12.3208V17.0431H7.51949V7.49858H10.2637V8.80232H10.3024C10.6845 8.05197 11.6185 7.26094 13.0109 7.26094C15.908 7.26094 16.443 9.23745 16.443 11.8086V17.0431ZM4.29266 6.1932C3.37341 6.1932 2.63214 5.42275 2.63214 4.47277C2.63214 3.5244 3.37341 2.7534 4.29266 2.7534C5.20773 2.7534 5.95215 3.5244 5.95215 4.47277C5.95215 5.42274 5.20774 6.1932 4.29266 6.1932ZM5.72495 17.0431H2.8593V7.49858H5.72495V17.0431ZM17.869 0H1.42286C0.637617 0 0 0.645602 0 1.44101V18.5579C0 19.3554 0.637617 20 1.42286 20H17.869C18.6553 20 19.2982 19.3554 19.2982 18.5579V1.44101C19.2982 0.645596 18.6553 0 17.869 0Z" fill="white"/>
</svg>
