<?xml version="1.0" encoding="UTF-8"?>
<svg id="Layer_2" data-name="Layer 2" xmlns="http://www.w3.org/2000/svg" viewBox="0 0 151.05 110.9">
  <defs>
    <style>
      .cls-1 {
        fill: #2343fe;
      }
    </style>
  </defs>
  <g id="Layer_1-2" data-name="Layer 1">
    <g>
      <path class="cls-1" d="M72.26,0c-8.12,16.25-18.23,32.34-32.31,44.11-.21,1.49.21.8,1.01.98,30.03,6.98,34.36,49.12,6.38,62.28-17.18,8.08-39.48-.03-45.58-18.35-4.96-14.88,1.45-26.92,8.7-39.41C20.32,32.58,32.77,17.04,42.63,0h29.62Z"/>
      <path class="cls-1" d="M151.02,0c.29.26-2.4,4.84-2.83,5.59-8.09,14.13-17.27,27.65-29.48,38.52-.21,1.49.2.8,1.01.98,43.55,10.03,24.46,79.74-20.21,63.31-24.29-8.93-24.46-32.98-13.9-52.98,10.08-19.1,24.71-37.04,36.13-55.42h29.29Z"/>
    </g>
  </g>
</svg>