<?xml version="1.0" encoding="UTF-8"?>
<svg id="Layer_2" data-name="Layer 2" xmlns="http://www.w3.org/2000/svg" viewBox="0 0 300 187.74">
  <defs>
    <style>
      .cls-1 {
        fill: #fff;
      }
    </style>
  </defs>
  <g id="Layer_1-2" data-name="Layer 1">
    <g>
      <path class="cls-1" d="M120.98,17.96c-1.7.54-3.7,9.54-3.12,11.59h-10.72s1.79-11.59,1.79-11.59h-6.24c.65-7.28,6.16-4.2,9.8-5.81,1.53-.68,4.34-4.78,6.32-6.17,4.93-3.47,11.61-4.76,17.47-5.74l44.08-.11c-.5,10.42-14.45,3.04-21.48,5.73l-.84,6.74h19.64c-.2,8.61-15.02,2.21-18.81,4.85l-.84,6.74h22.32l-1.79,5.35h-31.25c-.37-1.69,1.38-2.64,1.55-4.11.6-5.11-.45-11.68-.74-16.84-.13-2.36,2.18-4.85-.37-6.68l-2.84,4.52c-6.85-1.72-15.75.1-19.92,6.17h13.39l-2.53,6.46,6.99,10.47c-8.52,1.5-10.39-4.42-8.04-11.58h-13.84Z"/>
      <polygon class="cls-1" points="115.18 111.54 111.06 129.41 101.83 129.31 99.55 113.31 98.22 129.36 92.85 129.36 93.75 105.29 104.47 105.29 107.13 124.9 109.86 105.35 120.54 105.29 121.43 129.36 115.18 129.36 115.18 111.54"/>
      <polygon class="cls-1" points="150 134.7 152.23 153.43 155.45 134.8 165.18 134.7 166.07 157.88 160.71 157.88 159.37 140.94 156.31 157.49 147.36 157.83 145.09 140.94 143.75 157.88 138.39 157.88 139.28 134.7 150 134.7"/>
      <path class="cls-1" d="M224.1,134.71v18.72l9.33-.06,1.37,2.73,6.39-21.26,9.15-.18,6.8,23.22c-5.2.66-6.27-.31-7.26-5.23l-7.93.31c-1.86,1.12-1.51,4.92-1.77,4.92h-21.43v-23.17h5.36ZM249.1,148.07l-3.56-10.68-2.69,10.68h6.25Z"/>
      <path class="cls-1" d="M217.85,75.89l9.74.09,5.44,18.63v-18.72h5.36v22.73c0,.34,1.66,1.29-.55,2.12h-8.26s-6.36-20.39-6.36-20.39l.76,19.03-.7,1.08c-1.16.94-5.42.39-5.42-.95v-23.62Z"/>
      <path class="cls-1" d="M180.35,105.3l9.78.04,5.39,18.68v-18.72h5.36v24.06l-8.8-.13-5.93-18.6c-1.54.04.49,16.1-.17,17.6-.99,2.26-3.82.76-5.64,1.12v-24.06Z"/>
      <path class="cls-1" d="M186.6,47.37l9.74.09,5.44,18.63v-18.72h5.36v22.73c-1.46,2.04-8.16,1.93-9.39.46l-5.79-18.73v19.61l-5.36-1.34v-22.73Z"/>
      <path class="cls-1" d="M132.14,47.37l9.78.04,5.39,18.68v-18.72h5.36v22.73c-1.38,2.04-8.33,1.91-9.4.47l-5.78-18.74v17.38c0,.3,1.63,1.14-.51,2.17-1.23.47-4.85-.08-4.85-1.28v-22.73Z"/>
      <path class="cls-1" d="M117.41,75.89c8.41,1.38,9.64,12.96,1.34,14.27v1.76c2.63-.55,7.1,8.14,6.25,8.92-1.87-.17-4.64.55-6.26-.43-2.83-1.71-2.68-11.35-8.02-9.37v9.81s-6.25-1.34-6.25-1.34v-23.62c3.99.45,9.14-.63,12.95,0ZM110.71,86.59c3.85.14,8.66.92,6.76-4.53l-6.76-.83v5.36Z"/>
      <path class="cls-1" d="M232.14,71.43h-5.36s0-4.45,0-4.45c-2.07,1.52-1.93,3.55-5.1,4.26-13.1,2.94-15.69-18.6-5.51-23.33,6.86-3.18,16.01-.03,15.97,8.36-5.59,2.11-6.31-3.63-8.66-4.32-11.9-3.52-7.68,24.69,3.3,11l-5.36-.44v-4.47s10.72,0,10.72,0v13.37Z"/>
      <path class="cls-1" d="M128.87,78.86c5.43-5.67,18.3-3.68,20.03,4.81,1.97,9.68-1.76,18.18-12.74,17.22-10.53-.93-13.69-15.33-7.29-22.02ZM137.25,80.49c-8.01,1.23-6.7,18.83,2.91,14.54,4.71-2.11,3.88-15.57-2.91-14.54Z"/>
      <path class="cls-1" d="M161.35,105.49c5.92-1.34,13.55-.14,15.64,6.29,3.43,10.55-2.75,20.91-14.33,17.86s-10.05-22.18-1.31-24.15ZM164.95,109.9c-6.04,1.09-6.53,16.54,2.42,15.02,5.99-1.02,6.17-16.56-2.42-15.02Z"/>
      <path class="cls-1" d="M216.71,110.91c-2.32-1.93-7.02-1.51-5.99,1.95.91,3.06,12.47.19,13.42,7.1,1.9,13.83-20.87,13.3-20.58.49,7.16-2.15,6.26,7.1,13.39,3.99,7.48-3.27-7.2-5.25-7.88-5.47-13.06-4.25,1.62-21.15,11.94-11.92,3.1,2.77,4.51,8.96-1.66,7.02-1.8-.57-1.8-2.45-2.64-3.15Z"/>
      <path class="cls-1" d="M60.71,134.71l8.84.09,5.45,17.73v-17.82h5.36v23.17l-8.81-.12c-1.82-5.04-2.6-10.57-4.48-15.59-.43-1.14-.2-2.74-1.88-3.01l.89,18.72h-5.36v-23.18Z"/>
      <polygon class="cls-1" points="44.64 105.3 50.9 105.29 51.41 115.12 58.93 115.11 58.92 105.29 65.18 105.3 65.18 129.36 58.92 129.36 58.41 119.54 50.89 119.55 50.9 129.36 44.64 129.36 44.64 105.3"/>
      <path class="cls-1" d="M14.73,134.71c2.52.7,4.24,5.59,2.02,7.81-.98.98-3.42.39-3.35,1.98,3.43-.31,6.21,3.68,6.15,6.72-.04,2.11-4.06,6.66-5.71,6.66H0v-23.17c3.98.7,11.27-.96,14.73,0ZM5.35,143.62c8.58,1.18,8.56-5.65,0-4.46v4.46ZM5.35,153.43c3.92-.03,9.66,1.34,7.66-4.53l-7.66-.83v5.36Z"/>
      <path class="cls-1" d="M209.73,75.98l6.34,24.86c-5.52.74-6.19-.63-7.69-5.4l-7.81.18-2.47,5.11-5.24.11c-.9-.86,5.74-22.94,6.68-24.07,1.47-1.77,7.71-.64,10.2-.79ZM207.14,90.14c.36-.35-1.81-7.65-2.25-8.9-.3-.86-.1-2.04-1.31-1.78l-2.69,10.68h6.25Z"/>
      <path class="cls-1" d="M78.57,75.89v5.35s-11.62.51-11.62.51v3.95s10.73,0,10.73,0v4.47s-10.72,0-10.72,0v5.36s11.65.4,11.65.4c1.75,1.2.67,4.95-.49,4.95h-17.41v-24.95h17.86Z"/>
      <polygon class="cls-1" points="226.78 105.3 233.04 105.29 233.03 115.11 241.57 114.27 241.96 105.29 247.4 105.73 247.39 128.93 241.97 130.25 241.97 119.55 233.55 119.54 233.04 129.36 226.78 129.36 226.78 105.3"/>
      <path class="cls-1" d="M191.07,75.89l-.84,4.96-10.22.34-1.26,3.2c.39,2.37,9.22.93,11.43,1.3v4.47s-10.72,0-10.72,0v5.36s11.62,0,11.62,0v5.35h-17.86v-24.95h17.86Z"/>
      <path class="cls-1" d="M84.82,47.37v4.46s-11.62.51-11.62.51v3.95s10.73,0,10.73,0v5.36h-10.72s0,4.46,0,4.46l11.65.4c1.75,1.2.67,4.95-.49,4.95h-16.07l-1.34-1.34v-22.73h17.86Z"/>
      <path class="cls-1" d="M128.57,47.37v4.46s-11.62.51-11.62.51v3.95s10.73,0,10.73,0l-.84,4.96-9.01-.11-.87,4.96,11.65.4c1.75,1.2.67,4.95-.49,4.95h-16.07l-1.34-1.34v-21.39l1.34-1.34h16.52Z"/>
      <path class="cls-1" d="M91.07,129.35l-6.13-.11-1.87-4.82h-8.1s-1.87,4.82-1.87,4.82l-6.13.11,7.26-23.93,10.16.74,6.67,23.19ZM82.14,119.55l-3.56-10.68-2.69,10.68h6.24Z"/>
      <path class="cls-1" d="M41.97,115.1c-7.18,2.22-4.76-4.85-10.33-5.31-8.62-.73-7.41,19.39,2.3,14.68,2.95-1.43,1.16-6.95,8.03-4.9.87,11.94-16.54,14.38-20.99,4.46-8.37-18.68,18.33-27.94,20.99-8.92Z"/>
      <path class="cls-1" d="M95.53,75.89h5.36v19.16c0,3.62-7.04,5.98-10.28,5.87-2.83-.1-9.37-2.88-9.37-5.87v-19.16c2.17.06,4.8-.68,6.25,1.34v16.93c1.82,2.82,8.04,1.3,8.04-1.78v-16.49Z"/>
      <path class="cls-1" d="M104.46,157.88l-5.86-.83.27-7.67c-.39-2.22-7.03-1.04-8.71-1.3v9.81s-5.87-.87-5.87-.87c-.66-.91,1.74-19.61-.38-22.3h6.25s.51,8.92.51,8.92l8.41-.02-.89-8.9h6.25s0,23.17,0,23.17Z"/>
      <path class="cls-1" d="M136.34,163.42c18.76-4.3,16.43,29.45.08,23.65-9.44-3.34-8.52-21.72-.08-23.65ZM138.98,167.77c-4.57,1.19-4.24,15.09.75,15.09,5.56,0,4.52-16.46-.75-15.09Z"/>
      <path class="cls-1" d="M164.73,75.89c11.65,2.31,6.3,20.11-6.7,16.04v8.92s-6.25-1.34-6.25-1.34v-23.62c3.87.52,9.34-.72,12.95,0ZM164.16,81.35l-6.13-.12v6.25c4.76.4,8.49-1.01,6.13-6.13Z"/>
      <path class="cls-1" d="M273.66,105.3c12.29,2.17,5.93,19.66-6.7,16.04v8.03s-6.24,0-6.24,0v-24.06c3.95.48,9.21-.66,12.95,0ZM272.99,110.87c-.98-.95-4.03-1.57-5.2-.74l-.84,5.87,6.13-.12c.79-1.46,1.18-3.78-.09-5.01Z"/>
      <polygon class="cls-1" points="125.89 134.71 125.05 138.77 114.27 139.68 114.28 143.62 125.01 144.13 125 148.08 114.28 148.07 114.28 153.43 125.9 153.42 125.89 157.88 108.03 157.88 108.03 134.71 125.89 134.71"/>
      <path class="cls-1" d="M189.28,163.23v4.46s-9.23-.04-9.23-.04l-1.48,6.27c8.18-7.96,16.19,3.4,10.33,10.76-3.88,4.88-17.67,3.62-16.59-4.52,4.87-1.77,5.71,2.94,8.45,2.75,5.94-.41,4.25-6.97.9-7.28-2.49-.23-4.9,4.29-9.32,1.82l1.76-14.23h15.18Z"/>
      <path class="cls-1" d="M300,134.71l-.84,4.06-10.78.91v3.95c4.38.42,13.37-2.15,9.29,4.5l-9.27-.06v5.36s11.62,0,11.62,0v4.46h-17.86v-23.17h17.86Z"/>
      <path class="cls-1" d="M57.14,134.71v4.46s-11.61,0-11.61,0v4.47s10.72,0,10.72,0v4.47s-10.73.51-10.73.51v4.84s11.63,0,11.63,0v4.46h-16.97c-.58-6.2-1.66-13.95-.94-20.1.15-1.3.11-2.29,1.38-3.07h16.52Z"/>
      <path class="cls-1" d="M209.69,134.83l6.38,23.04-5.42-.38-1.66-4.58-8.13.02-1.87,4.82-5.24.11,6.34-23.08,9.61.03ZM208.03,148.07l-3.56-10.68-2.69,10.68h6.24Z"/>
      <path class="cls-1" d="M137.94,105.3c11.25,2.23,5.34,19.68-6.7,16.04v8.03s-6.24,0-6.24,0v-24.06c3.87.52,9.34-.71,12.95,0ZM131.24,116l5.87-.83c1.58-4.43-2.05-6-5.87-5.42v6.25Z"/>
      <path class="cls-1" d="M192.85,29.54h-9.82V.14c3.19.4,7.47-1.2,9.82,1.34v28.07Z"/>
      <path class="cls-1" d="M279.46,143.62c-7.11,2.26-4.79-4.96-10.43-5.11-7.29-.19-7.06,17.34,1.75,14.76,3.07-.9,3.37-7.05,8.67-5.19,1.04,11.64-16.87,13.57-20.6,4.07-1.27-3.23-1.07-7.01-.42-10.36,2.16-11.11,21.28-10.23,21.02,1.83Z"/>
      <path class="cls-1" d="M92.74,47.49l5.03,20.39,5-20.42,6.16-.08c-2.42,6.24-3.09,15.58-5.8,21.39-1.91,4.1-6.4,2.98-10.37,2.15l-6.16-23.09,6.14-.34Z"/>
      <path class="cls-1" d="M189.73,134.71c10.1,2.15,3.3,18.87-7.59,15.15v8.03s-6.24,0-6.24,0v-23.17c4.06.58,10.1-.8,13.84,0ZM182.14,145.41c3.96.6,7.45-1.1,5.87-5.42l-5.87-.83v6.25Z"/>
      <path class="cls-1" d="M108.93,187.29l.15-4.31c6.02-2.22,12.68-6.51,11.33-13.81l-2.1-1.52c-4.48,1.93-1.43,6.08-8.48,4.5-.92-7.32,5.37-10.21,11.87-8.72,7.81,1.79,6.35,13.39.03,16.59l-6.54,2.82h12.5v4.46h-18.75Z"/>
      <path class="cls-1" d="M151.78,187.29c-1.36-6.5,5.03-5.59,8.51-9.77,2.05-2.47,4.89-9.87-.03-9.89-2.87,0-2.25,7.04-8.49,4.51,1.45-16.58,26.09-8.76,14.88,5.94l-8.62,4.75,11.05.14,1.44,4.33h-18.75Z"/>
      <path class="cls-1" d="M174.1,47.37v4.46s-6.25,0-6.25,0v18.27c0,1.82-6.25,1.82-6.25,0v-18.27h-6.25s0-4.46,0-4.46h18.75Z"/>
      <polygon class="cls-1" points="27.68 134.71 27.68 153.42 37.5 153.42 37.5 157.88 22.77 157.88 21.69 156.57 21.42 134.7 27.68 134.71"/>
      <rect class="cls-1" x="145.53" y="105.3" width="6.25" height="24.06"/>
      <path class="cls-1" d="M257.14,105.3v21.83c0,.28,1.23,1.26.89,2.22l-7.15-.45.9-23.61h5.36Z"/>
      <path class="cls-1" d="M176.78,47.37h6.25c.44.33-.89,1.15-.89,1.34v22.73h-5.36v-24.06Z"/>
      <path class="cls-1" d="M134.82,134.71v23.17c-1.69-.04-5.67.61-6.15-1.41,1.27-6.9,1.32-14.88-.1-21.76h6.25Z"/>
    </g>
  </g>
</svg>