<?xml version="1.0" encoding="UTF-8"?>
<svg id="Layer_2" data-name="Layer 2" xmlns="http://www.w3.org/2000/svg" viewBox="0 0 300 150.25">
  <defs>
    <style>
      .cls-1 {
        fill: #fff;
      }
    </style>
  </defs>
  <g id="Layer_1-2" data-name="Layer 1">
    <g>
      <g>
        <polygon class="cls-1" points="184.21 99.81 152.99 99.81 152.99 112.1 179.17 112.1 179.17 124.71 152.99 124.71 152.99 149.78 152.51 150.25 140.37 150.25 140.37 87.36 184.21 87.36 184.21 99.81"/>
        <path class="cls-1" d="M254.87,93.66c.28-.45.63-.44,1.09-.49,5.29-.62,16.27-.35,21.79,0,10.58.67,20.02,6.65,21.82,17.6,1.4,8.53-.46,18.73-8.37,23.46l4.99,15.7h-11.51l-4.73-11.66h-13.56c-.9,0-.16,2.42-.14,2.98.07,2.14-.26,4.02-.33,6-.02.44.78,2.68-.16,2.68h-10.41l-.47-.47v-55.8ZM266.23,127.23h12.78c.64,0,3.82-1.32,4.58-1.73,7.06-3.81,7.18-15.03.21-19.13-.79-.46-3.74-1.84-4.47-1.84h-13.09v22.7Z"/>
        <path class="cls-1" d="M175.7,149.93c-.46-.45,4.97-10.35,5.59-11.6,6.99-14.1,14.53-28.88,21.02-42.52l1.62-2,27.6,56.12-12.89-.04-3.41-8.1-23.14.1-3.46,8.04h-12.93ZM197.15,130.39h13.25l-6.78-13.56-6.47,13.56Z"/>
        <polygon class="cls-1" points="248.56 150.25 237.68 150.25 237.21 149.78 237.21 93.66 237.68 93.19 248.09 93.19 248.56 93.66 248.56 150.25"/>
      </g>
      <g>
        <path class="cls-1" d="M109.61,37.07c.39.12.48.72.5,1.1.1,1.58-.49,5.41-.75,7.16-1.48,9.8-6.4,17.47-14.76,22.76-8.82,5.59-19.87,7.3-30.31,5.44C26.63,66.84,26.27,8.36,63.39.96c17.51-3.49,37.42,2.34,43.22,20.65l-12.51,7.22c-.59.16-.33-.03-.49-.35-2.92-6.17-5.58-10.22-12.47-12.45-21.24-6.88-37.5,13.37-27.64,32.67,6.85,13.42,23.99,13.68,35.01,5.27.42-.32,1.42-1.18,1.39-1.77h-16.56l-.47-.47v-14.66h36.75Z"/>
        <g>
          <polygon class="cls-1" points="179.17 7.75 210.23 51.26 240.68 8.07 240.68 74.27 227.43 74.27 227.43 49.37 209.77 74.27 192.41 49.37 192.41 74.27 179.17 74.27 179.17 7.75"/>
          <path class="cls-1" d="M295.25,20.68h-33.44v13.56h28.07v13.24h-28.07v13.56h32.96l.47.47v12.77h-46.68V7.75c.31.1.68-.32.79-.32h45.42l.47.47v12.77Z"/>
        </g>
        <path class="cls-1" d="M172.54,74.27h-15.77l-3.67-9.1-27.1-.06c-.38-.01-.67.02-.93.33-1.18,1.42-2.1,7.07-3.78,8.83h-15.3L139.11,7.76l33.43,66.52ZM131.54,51.57h15.77l-7.73-16.08c-.59,0-1.31,1.7-1.59,2.2-1.7,3.09-5.18,9.31-6.21,12.4-.17.51-.34.93-.25,1.49Z"/>
        <g>
          <path class="cls-1" d="M5.99,3.34v13.71l.47.47h4.89V5.55h5.52l.47.47v11.51h5.36V3.34h5.52c.17,0,.5.53.49.8l-.05,18.57-.44.5H0V3.34h5.99Z"/>
          <path class="cls-1" d="M28.39,31.71h-11.36v11.66h11.36v5.36H0v-5.67h11.36v-11.35c-.34-.12-.69.32-.79.32H0v-5.67h27.92l.47.47v4.89Z"/>
          <polygon class="cls-1" points="5.99 51.89 5.99 60.4 28.39 60.4 28.39 66.08 6.47 66.08 5.99 66.55 5.99 74.59 0 74.59 0 51.89 5.99 51.89"/>
        </g>
      </g>
    </g>
  </g>
</svg>