<?xml version="1.0" encoding="UTF-8"?>
<svg id="Layer_1" data-name="Layer 1" xmlns="http://www.w3.org/2000/svg" viewBox="0 0 259.94 78.13">
  <defs>
    <style>
      .cls-1 {
        fill: #fff;
        stroke: #fff;
        stroke-miterlimit: 10;
      }
    </style>
  </defs>
  <path class="cls-1" d="M1.24,68.26V0h258.71v68.26h-72.8s-1.67-.48-1.67-.48h73.27l.72-.72V1.19l-.72-.72H2.43l-.72.72v65.87l.72.72h69.93c.11.84-1.08.45-1.67.48-22.92.95-46.48-.71-69.45,0Z"/>
  <path class="cls-1" d="M126.77,76.37c-3.26-1.44-6.58-3.6-7.12-7.44-2.04-14.72,17.02-15,18.53-4.21.82,5.86-1.63,9.76-7.12,11.65h-4.3ZM126.64,58.34c-7.46,1.54-6.07,19.02,4.08,16.96,7.86-1.6,6.65-19.18-4.08-16.96Z"/>
  <path class="cls-1" d="M90.02,76.37c-10.31-2.01-9.88-17.63.28-19.05,3.21-.45,11.52-.19,10.22,4.73-2.58-3.58-6.49-4.8-10.76-3.36-4.72,1.58-5.7,8.8-3.65,12.77,3.07,5.95,13.68,5.04,11.48-1.48-.31-.91-1.81-.37-1.36-1.72h5.25c-2.96,1.82-.89,3.49-1.66,6.21l-4.54,1.9h-5.25Z"/>
  <path class="cls-1" d="M146.34,76.37c-7.98-2.25-4.55-11.08-5.23-17.34l-1.93-1.27c1.6.23,3.26-.19,4.77-.26,3.13-.13.04,1.23-.24,1.69-.49.79-.38,10.99-.03,12.44,1.16,4.9,10.18,5.2,11.74.23.52-1.66.88-11.61.22-12.67-.28-.45-1.62-.82-1.66-1.19-.12-1.08,3.49.13,4.04-.72l.49.96c-.79.52-1.49.64-1.68,1.66-1.11,5.7,2.79,13.78-5.25,16.47h-5.25Z"/>
  <path class="cls-1" d="M143.48,18.14l-.02,1.4-1.69.47-.11,1.59,8.26,22.8,5.28-14.56c0-.65-3.1-8.84-3.58-9.45-.68-.85-2.62-.67-2.41-2.25h9.55c.32,1.49-1.73,1.26-2.18,1.89l-.12,1.57,8.03,22.32,8.51-22.32c.27-1.43-1.08-2.03-2.29-2.05l-.02-1.4h33.41c.12,1.31.86,2.72,1.07,3.95.46,2.68-2.14-.61-3.51-1.28-2.81-1.38-11.92-1.81-14.98-1.23-.52.1-1.68.82-1.68,1.18v12.17h10.26c2.01,0,3.35-1.97,3.59-3.82h.95s0,9.07,0,9.07c-1.79.2-1.67-3.82-3.58-3.82h-11.22v13.13c0,.36,1.16,1.08,1.68,1.18,3.33.64,12.72.14,15.82-1.33,2.18-1.03,3.25-3.12,5.4-3.9-.92,3.4-1.87,6.27-5.7,6.94-2.33.41-22.92.66-23.9-.01-.65-.45-.48-1-.47-1.68,1.34.11,2.63-.16,2.85-1.69l.04-25.31c-.09-3.06-4.73-2.74-5.85-.56l-10.86,29.71-1.2-.26-6.69-18.13c-.93,0-5.45,15.47-6.41,17.46s-1.4,1.3-2.18-.27c-2.61-5.21-8.33-26.96-10.86-29.47-.61-.61-2.52-.51-2.26-2.03h9.07Z"/>
  <path class="cls-1" d="M225.81,18.14c7.29,1.03,10.24,10.15,4.29,14.79l-5.96,2.38c6.04,1.44,8.12,9.32,12.72,12.34.68.45,4.27,1.4,3.5,2.46-11.3,2.57-14.18-16.25-25.3-15.27v12.17c0,1.67,3.18,1.69,3.34,2.39l-.71,1.19h-9.07c-.2,0-1.54-.55-1.19-1.19.71-1.3,3.3.32,3.81-4.3.56-5.04.45-15.87.02-21.02-.2-2.34-.43-4.93-3.36-4.52v-1.43c5.55.56,12.54-.76,17.9,0ZM215.07,20.76v11.46c1.67,1.65,5.64,1.45,7.83,1.15,7.3-1,8.69-11.17,1.02-13.35-1.69-.48-8.3-1.24-8.85.74Z"/>
  <path class="cls-1" d="M32.26,18.14v1.43c-1.07-.37-2.86.64-2.86,1.67v11.69h21v-11.69c0-1.03-1.79-2.05-2.87-1.67v-1.43h10.03v1.43c-2.55-.24-3.16,1.3-3.36,3.56-.44,4.9-.66,18.81.06,23.38.46,2.95,3.08,1.92,3.31,2.9l-.71,1.19h-8.59l-.71-1.19c.12-.49,2.86-1.06,2.86-2.39v-12.65h-21v12.65c0,1.33,2.74,1.9,2.86,2.39l-.71,1.19h-8.59l-.71-1.19c.22-.99,2.84.05,3.31-2.9.72-4.58.49-18.47.06-23.38-.09-.99-.09-1.77-.74-2.6-.87-1.12-2.71-.82-2.62-2.39h10.02Z"/>
  <path class="cls-1" d="M118.08,17.32c22.62-1.82,24.65,32.29,3.2,33.74-22.71,1.53-24.51-32.02-3.2-33.74ZM116.62,19.21c-13.21,2.27-11.26,28.24.88,29.92,20.72,2.86,17.94-33.14-.88-29.92Z"/>
  <path class="cls-1" d="M79.99,36.75v9.79c0,2.15,3.85,2.03,4.29,2.87.34.65-.99,1.19-1.19,1.19h-9.55l-.71-1.19c.22-.99,2.84.05,3.31-2.9.74-4.72.49-18.78.05-23.85-.06-.72-.09-2-.61-2.5-.67-.65-2.99-.31-2.76-2.02h19.33c1.05,0,5.17,2.14,6.13,2.94,2.81,2.32,3.59,6.6,2.47,9.96-2.36,7.09-14.84,6.73-20.77,5.72ZM80.58,20.16c-.85.85-.86,11.79-.38,13.28.44,1.37,1.56,1.74,2.88,1.89,5.73.67,13.83-.54,13.65-7.88s-10.49-9.2-16.15-7.29Z"/>
  <path class="cls-1" d="M106.25,74.22l1.91,1.67h-6.2c.11-.81,1.34-.89,1.67-1.43.53-.86.42-14.75-.19-15.56-.43-.56-1.55-.37-1.47-1.14,4.03.05,11.58-1.86,14.04,2.42,1.99,3.47-.77,6.88-4.49,6.88,2.99,1.23,4.45,5.26,6.43,6.93.61.52,2.56.97,2.64,1.19.4,1.02-1.12.79-1.68.72-4.89-.59-7.22-9.48-12.64-8.6v6.92ZM107.03,58.3c-1.41.47-.73,6.15-.57,7.6,9.68,2.96,10.83-8.95.57-7.6Z"/>
  <path class="cls-1" d="M163.53,68.26l.06,5.91,1.85,1.73h-6.2c-.36-1.46.98-.72,1.7-1.39.43-.64.38-14.66-.03-15.31-.25-.41-1.06-.59-1.44-.95l.5-.96c4.12.8,13.77-1.42,15.28,4.29,1.78,6.72-6.97,7.81-11.71,6.69ZM163.52,58.71v7.88c3.43,1.65,9.35,1.21,9.12-3.83-.19-4.2-5.87-4.99-9.12-4.05Z"/>
</svg>