<?xml version="1.0" encoding="UTF-8"?>
<svg id="Layer_2" data-name="Layer 2" xmlns="http://www.w3.org/2000/svg" viewBox="0 0 300 150.12">
  <defs>
    <style>
      .cls-1 {
        fill: #fff;
      }
    </style>
  </defs>
  <g id="Layer_1-2" data-name="Layer 1">
    <g>
      <path class="cls-1" d="M235.46,112.88c.79.37.44.04,1.2.2.56.11,6,1.89,6,2.21l-9.35,30.6c-12.12-4.15-24.52-7.59-37.15-9.91-41.75-7.65-85.13-4.28-125.06,9.88l-9.62-30.72c6.69-2.21,13.38-4.41,20.19-6.24,46.46-12.46,95.44-12.41,141.84.26,3.61.99,8.65,2.16,11.95,3.71ZM152.97,123.15v-14.45c0-.18-.59-.55-.88-.36l-.69.89c.3,4.13-.42,8.83-.02,12.88.08.85.26,1.69,1.33,1.3l.26-.27ZM164.24,112.21c.44-4.81-7.05-5.16-7.59-.36-.19,1.67-.44,6.83-.26,8.41.34,3.08,3.46,4.26,6.06,2.91s1.82-4.9,1.71-7.26l-3.39-.2-.45.61c.26,1.17,1.44.94,2.38.92.38,2.26-.44,6.19-3.49,4.67-1.79-.89-.97-2.4-.97-3.74,0-1.84-.68-7.48,1.49-7.97s2.58.38,3.22,2.2l1.29-.19ZM143.25,110.15h4.86c.52,0,.52-1.58,0-1.58h-5.78c-.1,0-.43.27-.62.31l.35,14.15c.62,1.28,5.21-.07,6.53.27,1.32-2.83-3.59-1.01-5.09-1.33v-5.26c1.05-.22,4.13.67,3.96-.92-.02-.23-.25-.66-.41-.66h-3.81v-4.99ZM134.57,122.24l-1.05-13.02-.82-.26-.53.32.93,14.29c.38.55,4.88.18,5.79-.03.98-.23.83-1.1.14-1.43-.76-.37-3.37.47-4.47.14ZM169.28,115.67l.49-6.12c-.44-.93-1.32-.95-1.75,0,.27,2.02-1.5,13.13-.86,14.08.15.22.67.47.91.41.95-.24.61-2.52.69-3.25.14-1.22.57-2.26.26-3.55l5,.26c.04,1.41-.88,5.52-.39,6.56.89,1.89,1.6-1.15,1.7-1.97.38-2.96.68-6.99.79-9.98.05-1.31.3-3.82-1.54-2.32l-.59,6.11-4.71-.23ZM124.33,116.44l-.43-4.73c.48-.66,5.7.17,5.15-1.68-.22-.74-3.82-.23-4.56-.11s-2.46.14-2.47,1.09l1.64,13.6c.55.72,5.36-.38,6.46-.39l.23-1.04c-.32-.97-4.33.12-5.22.1l-.54-5.25c.27-.25,4.29.33,3.96-1.18-.14-1.44-3.28-.02-4.21-.41ZM111.96,115.93c1.42,1.14,5.7,9.37,6.75,9.68.3.09.61.1.89-.07.34-.25.27-.93.25-1.32-.15-2.68-1.19-10.08-1.91-12.55-.38-1.3-1.31-1.37-1.75-.09l1.55,9.61-6.16-8.95c-.35-.55-1.43-.84-1.69-.08l1.93,13.5.56,1.03c.73.07,1.16-.42,1.15-1.13-.03-2.91-1.48-6.63-1.56-9.63ZM184.74,125.33l.97-5.99.25-.19c2.14.67,4.89.08,5.75-2.21,1.64-4.35-2.52-6.69-6.29-6.02l-2.23,13.56.55,1.06.99-.21ZM198.23,127.99c.44.29,1.57-.21,1.53-.88l-1.8-14.49-.64-.35c-.46.26-.73.68-1.01,1.11-1.19,1.82-5.18,9.61-5.79,11.55-.17.53-.5,1.51.22,1.75,1.57.52,1.9-3.03,2.38-3.14l4.38.53c.65.22.25,3.6.73,3.92ZM102.42,113.1c-2.47.39-3.51,2.14-3.32,4.51.11,1.36,1.45,8.08,2.01,9.02,1.68,2.78,6.7,1.59,7.14-1.12.27-1.65-.94-7.45-1.47-9.27-.65-2.24-1.82-3.54-4.36-3.14ZM208.5,122.8c3.55-.87,4-6.17.72-7.76-.93-.45-4.25-1.61-4.44-.02l-2.87,13.35c.21.65,1.13.61,1.53.02s1.13-5.9,1.48-5.9c.54.22,1.31.16,1.68.68.8,1.13,1.04,5.46,1.84,6.77.24.39.98.42,1.28.12.73-.73-1.57-5.95-1.22-7.26ZM94.09,116.74l2.76-.79c.37-.52-.17-1.27-.75-1.27-.48,0-6.63,1.54-6.91,1.76-1.8,1.44,1.8,1.52,2.71.85l.47.2c1.03,3.71,1.53,7.63,2.62,11.31.31,1.04.51,2.03,1.68.88.36-1.7-3.11-12.33-2.57-12.95ZM215.82,123.28c-.43-.44,3.48-8.21-.02-6.39l-3.63,13.83.74.58.75-.2c.88-2.54.62-5.77,3.74-6.51.29.26,1.28,6.54,1.71,7.62.57,1.44,1.87,1.56,1.69-.37-.24-2.62-1.64-5.76-2.04-8.42.09-.38,3.98-2.82,4.58-3.55.51-.62.63-1.55-.29-1.62-.79-.06-4.92,3.6-5.94,4.33-.24.17-1.09.88-1.29.68ZM87.5,120.66c.58-4.23-6.24-3.79-6.82-.64-1.14,6.11,6.24,4.67,7.56,8.2.82,2.18-1.78,3.72-3.36,2.56-.77-.57-.8-2.09-1.97-1.98-1.34.12-.23,1.8.25,2.39,3.06,3.74,9.01-.24,6.04-4.72-1.46-2.19-6.2-2.47-6.83-4.47s1.04-3.57,2.87-2.61c.77.41,1.08,1.59,2.27,1.28Z"/>
      <path class="cls-1" d="M140.96,54.79c-.86,1.12-.38,2.45-.46,2.56-.45.62-2.28.16-2.28,2.48,0,3.43,4.03,1.77,4.23,1.97l1.32,22.48c-.57,7.37-10.66,7.33-11.58.25l-.92-20.89-5.08,16.21c-2.24,4.33-8.93,3.94-10.75-.64l-6.38-14.24,1.86,20.62c.15,7.7-10.23,8.26-11.47,1.73-.4-2.1-.23-4.36-.38-6.45-.84-11.65-2.12-24.12-2.37-35.73-.07-3.32-.02-7.78,4.15-8.49,3.79-.64,5.8,1.13,7.57,4.14,2.35,3.98,6.78,12.68,8.35,16.91.22.6-.01,1,.11,1.43.08.28.96.79,1.2,1.19.82,1.36,1.34,3.02,2.16,4.39l9.91-27.14c1.52-3.16,6.46-4.16,9.02-1.76,3.27,3.08,1.83,13.16,2.78,17.48.26,1.09-.69,1.12-.99,1.51Z"/>
      <path class="cls-1" d="M73.83,86.11c-.9,5.4-9.31,6.13-11.17.65-.91-15.16-.18-30.57-.37-45.81.65-3.87,3.04-4.91,6.67-5.16,4.42-.3,10.88-.02,15.01,1.58,11.94,4.63,13.78,21.12,3.28,28.25l9.52,17.55c1.68,6.35-5.91,10.02-10.05,5.05l-10.57-19.26-2.31-.06v17.21ZM73.83,58.12c4.68.36,9.27-1.14,8.68-6.7-.2-1.82-1.41-3.32-3.05-4.04-.25-.11-1.43-.55-1.55-.55h-4.08v11.3Z"/>
      <path class="cls-1" d="M47.74,84.18l-14.41-1.36c-.39,1.65-.93,3.34-2.1,4.6-3.7,4-10.53,1.34-9.97-4.18l18-45.6c3.08-3.81,9.23-3,10.82,1.76l9.53,45.65c1.2,7.37-8.85,9.07-11.11,2.43-.36-1.07-.45-2.23-.76-3.31ZM45.69,73.62l-2.89-17.08-5.52,16.29,8.41.79Z"/>
      <path class="cls-1" d="M247.84,35.33c9.08-1.03,19.62,4.29,18.18,14.75-.56,4.05-5.77,5.31-8.78,3.04-3.26-2.44-1.15-7.86-7.38-7.36-3.91.31-4.57,4.93-2.33,7.61,5.34,6.39,16.04,9.95,16.94,19.6,1.18,12.7-9.37,20.17-21.29,16.81-7.17-2.02-12.51-9.49-11.25-17.01.81-4.82,7.52-5.75,10.1-1.55,1.82,2.96.34,7.33,4.51,8.63,5.09,1.59,8.3-3.16,5.59-7.68-2.28-3.8-10.32-8.72-13.68-12.61-7.87-9.13-2.57-22.87,9.4-24.23Z"/>
      <path class="cls-1" d="M213.45,46.82v10.25h9.86c.12,0,1.38.38,1.63.47,4.05,1.47,4.67,6.93,1.11,9.37-.27.19-1.78.94-1.96.94h-10.65v11.04h12.49c.09,0,1.51.32,1.71.39,5.86,1.87,4.97,10.07-2.49,10.66-4.55.36-12.84.39-17.36-.01-3.13-.28-5.63-1.75-5.93-5.11l.26-45.22c1.01-3.1,3.8-3.63,6.71-3.81,4.59-.29,11.5-.32,16.06,0,4.09.29,7.04,2.15,6.41,6.69-.29,2.08-3.07,4.36-5.1,4.36h-12.75Z"/>
      <path class="cls-1" d="M11.51,46.82v10.25h9.86c.1,0,1.73.55,1.97.66,3.82,1.71,4.02,7.35.45,9.39-.29.16-1.7.73-1.9.73h-10.39v17.47c0,.12-.38,1.38-.47,1.63-1.9,5.16-10.08,4.66-11.04-.91l.11-46.53c1.11-2.7,3.31-3.46,6.04-3.69,3.83-.33,15.69-.53,19.05.35,4.62,1.2,5.55,7.28,1.49,9.66-.38.22-2.39,1-2.68,1h-12.49Z"/>
      <path class="cls-1" d="M182.69,46.82l.53,10.51,10.1-.5c2.89.41,5.29,2.51,5.16,5.61-.28,6.96-10.19,4.98-14.73,5.66.24,4.51.36,9.03.52,13.54.06,1.63.47,2.79.16,4.6-1.13,6.53-10.59,6.07-11.43-.17-.57-4.23-.32-9.32-.54-13.65-.51-9.95-1.31-19.98-1.6-29.94-.1-3.51,1.98-5.78,5.44-6.15,5.88.36,13.18-1.4,18.9-.82,4.32.44,6.74,5.11,3.95,8.67-1.69,2.17-4.53,2.18-7.09,2.37-3,.22-6.32.09-9.35.25Z"/>
      <path class="cls-1" d="M288.13,47.61l-3.22,38.7c-1.46,6.4-11.01,5.77-11.52-.98l3.17-38.77c-3.29-.44-8.25.24-10.11-3.17-2.07-3.79.61-7.85,4.73-8.13,7.46,1.03,15.45.83,22.86,1.85,1.79.24,3.56.64,4.74,2.09,1.57,1.93,1.62,4.71.12,6.7-2.62,3.49-7.15,1.6-10.78,1.71Z"/>
      <path class="cls-1" d="M232.91,105.42c.15-.15,3.39.83,3.89.98,9.61,2.82,19.77,6.02,28.97,9.94.46.2,5.79,2.41,5.53,2.75l-17.9,9.64c1.59,6.99,4.11,13.99,5.5,21.02.08.39.06.42-.36.35l-21.14-8.44,8.14-27.7-.45-.61-12.18-3.99v-3.94Z"/>
      <path class="cls-1" d="M71.2,105.42v3.94l-12.6,4.37,8.28,27.7-21.07,8.65-.39-.39,5.41-20.9-17.76-10.1c12.26-5.56,25.16-9.67,38.13-13.27Z"/>
      <path class="cls-1" d="M171.83.37c.96-.22,4.12-.16,5.2-.05,6.34.63,8.94,7.08,4.89,11.92,4.12,3.76,2.66,11.11-2.71,12.85-1.71.56-8.36,1.19-9.03-.85l-.13-21.97c0-.77,1.07-1.74,1.78-1.9ZM175.06,10.3c4.86.15,4.88-5.65,0-5.26v5.26ZM175.06,20.81c5.25.67,5.5-6.73,0-5.78v5.78Z"/>
      <path class="cls-1" d="M255.79,10.3h4.21V1.76c0-.21.8-1.14,1.06-1.3,1.46-.95,3.04-.31,3.88,1.1l-.02,22.74c-.51,1.45-2.37,1.91-3.71,1.21-.31-.16-1.22-1.16-1.22-1.41v-9.07h-4.21v8.8c0,2.1-4.86,3.52-5.27-.78-.64-6.59.45-14.27.07-20.97.66-3.23,5.2-2.18,5.2-.06v8.28Z"/>
      <path class="cls-1" d="M52.79,10.3h4.21V1.5c0-.09,1.13-1.14,1.38-1.25,1.69-.7,3.08.27,3.63,1.75l-.03,22.08c-.39,1.62-2.36,2.16-3.76,1.43-.31-.16-1.22-1.16-1.22-1.41v-9.07h-4.21v8.8c0,2.12-4.54,3.17-5.2-.06.22-6.85-.5-13.88-.08-20.7.28-4.69,5.28-3.15,5.28-1.05v8.28Z"/>
      <path class="cls-1" d="M108.54,24.36c-.04.16-1.14,1.15-1.38,1.25-1.59.65-3.2-.12-3.6-1.79V2.03c.48-2.58,6.97-1.85,8.8-1.2,4.38,1.57,5.81,6.99,3.85,10.96-.5,1.02-1.39,1.6-1.88,2.57l3.96,8.94c.09,2.27-2.84,3.32-4.41,1.89-1.43-1.31-3.09-7.23-4.59-9.2-.23-.3-.27-.54-.75-.44v8.8ZM108.54,10.83c4.44.48,4.41-6.17,0-5.78v5.78Z"/>
      <path class="cls-1" d="M191.89,15.55v8.8c0,.07-.66.87-.86,1-1.6,1-3.68.38-4.12-1.54V2.03c.48-2.58,6.97-1.85,8.8-1.2,3.76,1.35,5.06,5.04,4.57,8.79-.26,1.99-1.55,3.18-2.6,4.74.5,2.28,3.96,6.96,3.96,8.94s-2.2,3.19-3.96,2.09c-1.86-1.16-3.48-7.35-5.05-9.4-.23-.3-.27-.54-.75-.44ZM191.89,10.83c4.44.48,4.41-6.17,0-5.78v5.78Z"/>
      <path class="cls-1" d="M95.64,15.57c-3.33-.04-3.49-4.35-.13-4.75,1.77-.21,5.02-.29,5.38,1.99.28,1.8.14,6.77-.44,8.47-2.22,6.57-12.39,5.52-13.42-.66-.37-2.21-.38-13.47.05-15.59,1.16-5.62,9.51-6.68,12.62-2.07,1.43,2.12,1.35,5.5-1.82,5.51-2.68,0-2.07-2.88-3.35-3.49-1.71-.82-2.44.88-2.57,2.29-.2,2.2-.29,10.33.19,12.18.6,2.29,3.17,1.95,3.48-.1.18-1.15-.08-2.59,0-3.78Z"/>
      <path class="cls-1" d="M144.81,22.14l-5.48.02c-.11,3.81-4.39,5.43-5.55,1.38l5.64-21.91c1.1-2.13,4.12-2.17,5.14.12l5.49,20.53c.8,4.96-5.5,4.62-5.25-.14ZM143.51,17.66l-1.58-7.36-1.58,7.35h3.16Z"/>
      <path class="cls-1" d="M234.57,16.69c1.32-1.2,3.49-.53,4.19,1.04.62,1.41.14,3.82,2.69,3.34,1.99-.37,1.31-3.67.15-4.87-3.15-3.27-7.78-4.78-7.04-10.43,1.05-8.01,12.69-7,13.31-.56.25,2.57-1.82,4.23-4.01,2.69-1.35-.95-.65-2.94-2.43-3.11s-1.93,1.67-1.63,2.97c.46,1.98,6.58,5.06,7.69,8.34,3.01,8.91-8.6,13.38-12.6,6.28-.77-1.37-1.62-4.5-.33-5.68Z"/>
      <path class="cls-1" d="M131.02,20.81c2.25.4,2.35,4.3-.28,4.71-1.34.21-7.56.2-8.81-.1-1.56-.37-1.72-1.49-1.83-2.9-.39-5.02-.46-14.5,0-19.47.16-1.76.68-2.54,2.51-2.75,1.3-.15,7.54-.2,8.56.12,1.55.47,2.16,2.89.96,4-.1.09-1.04.61-1.1.61h-5.65v5.26h4.08c1.5,0,2.67,2.42,1.72,3.82-.14.2-1.05.91-1.19.91h-4.6v5.78c1.71.21,4.04-.28,5.65,0Z"/>
      <path class="cls-1" d="M70.93,5.04v5.26h4.08c.14,0,1.4.61,1.59.78,1.27,1.14.3,3.95-.8,3.95h-4.86v5.78h5.92c.16,0,1.03.7,1.19.91.86,1.19.47,3.02-.91,3.57-.99.4-7.62.41-8.97.25-1.49-.18-2.11-.76-2.24-2.23-.61-6.59.49-14.09,0-20.79-.16-.89.98-1.98,1.78-2.16,1.07-.24,7.7-.22,8.82,0,1.69.34,2.54,2.34,1.51,3.76-.16.22-1.03.91-1.19.91h-5.92Z"/>
      <path class="cls-1" d="M158.23,5.04v19.05c0,.68-1.49,1.67-2.24,1.72-.81.05-2.76-.62-2.76-1.46V5.04c-1.41-.12-3.83.54-4.53-1.12-.83-1.94.32-3.44,2.29-3.62,2.27-.21,7.53-.26,9.75,0,1.95.23,3,2.31,1.83,3.94-.91,1.27-2.98.66-4.33.79Z"/>
      <path class="cls-1" d="M215.03,5.04c-1.36-.13-3.42.48-4.33-.79-1.17-1.63-.12-3.71,1.83-3.94,2.22-.26,7.47-.22,9.75,0,1.27.12,2.35.56,2.5,1.98.33,3.21-2.43,2.84-4.75,2.76v19.05c0,.68-1.49,1.67-2.24,1.72-.8.06-2.76-.81-2.76-1.46V5.04Z"/>
      <path class="cls-1" d="M36.22,5.04c-1.41-.12-3.83.54-4.53-1.12-.83-1.94.32-3.44,2.29-3.62,1.78-.16,10.06-.18,11.27.52.34.2.68,1.05.73,1.45.33,3.16-2.46,2.82-4.75,2.76v19.05c0,.68-1.49,1.67-2.24,1.72-.8.06-2.76-.81-2.76-1.46V5.04Z"/>
      <path class="cls-1" d="M205.23.11c1.89-.43,3.36.48,3.49,2.44-.54,6.58.73,14.32,0,20.76-.4,3.53-4.88,3.37-5.26,0,.59-6.53-.77-14.4,0-20.77.12-.98.73-2.2,1.77-2.43Z"/>
      <path class="cls-1" d="M228.1.11c1.89-.43,3.36.48,3.49,2.44-.54,6.58.73,14.32,0,20.76-.4,3.53-4.88,3.37-5.26,0,.59-6.53-.77-14.4,0-20.77.12-.98.73-2.2,1.77-2.43Z"/>
      <path class="cls-1" d="M164.55,52.61c.36.59,1.57.09,2.19.3,1.6.52-1.28,3.48-1.96,4.01-1.33,1.06-9.26,5.15-10.38,3.58.05-1.98,1.35-4.1,2.41-5.77,1.82-2.85,6.32-8.47,9.98-8.44,3.14.03,1.81,5.5.2,5.99-.65.2-1.71.05-2.44.32Z"/>
      <path class="cls-1" d="M159.81,60.49c-.34,4.82-6.48,6.25-10.09,3.7-3.77,4.73-6.02,1.4-5.01-3.44-1.42-1.25-2.78-.52-4.22-.51-1.23,0-.63-.66.05-1,1.12-.55,2.14-.25,3.28.01.67.16,1.33,1.02,1.79.31-.13-.71-.66-1.26-1.19-1.7-.96-.8-2.45-.77-2.23-1.84,1.99-.62,3.18,2.04,4.21,2.49.8.36,1.94-.11,2.76.59,1.33-1.44,2.9-2.47,4.95-2.26l.4.58c-3.34,5.27,2.02,4.09,5.29,3.06Z"/>
      <path class="cls-1" d="M155.29,56.23c-.41.17-1.38.13-1.5-.36-.15-.6,1.69-5.86,2.12-6.77.77-1.65,2.96-5.49,5.16-4.44.6.28,1.54,2.05,1.25,2.69-.19.41-3.13,3.24-3.81,4.09-1.2,1.51-2.28,3.11-3.22,4.8Z"/>
      <path class="cls-1" d="M160.86,69.94c1.79-.27,1.82,2.46,2.15,2.85.2.24,1.37-.02,1.53.97.09.56-.25.43-.66.4-2.74-.24-4.19-3.64-5.18-5.86-.2-.45-.28-1.37-.44-1.61-.19-.27-2.52-.08-1.62-1.34,1.72-1.1,5.62,2.63,4.21,4.6Z"/>
      <path class="cls-1" d="M161.13,66.79l2.42-2.97c.82-1.06.64-2.34.99-3.48.09-.29-.17-.47.4-.38,4.07,1.19.05,9.57-3.81,6.82Z"/>
      <path class="cls-1" d="M162.93,59.47c1.3,1.74-1.34,7.07-3.37,6.14-1.8-.82.17-2.2.65-3.29.74-1.68.05-3.32,2.72-2.85Z"/>
      <path class="cls-1" d="M164.28,67.58c1.81-.46,3.14-2.54,3.42-4.33.45-.88,1.45,1.78,1.51,2.15.13.73.22,1.68-.18,2.32-.94,1.33-5.2.41-4.75-.15Z"/>
      <path class="cls-1" d="M155.57,65.78c.12.07.82,2.47.82,2.76,0,.97-.12,1,0,2.35.04.41-.3.85-.21,1.24.06.27,1.76,1.53.61,1.76-1.08.22-2.09-2.2-2.22-3.06-.07-.5-.29-2.39-.3-2.85-.02-.76.29-1.47.3-2.22.3,0,.78-.11,1,.03Z"/>
      <path class="cls-1" d="M151.47,68.95c-.05.07.08.41-.01.65-.39.99-.76,1.2-.32,2.45-1.41.17-1.51-1.62-1.19-2.64.22-.72,3.03-5.53,3.05-2.76.01,1.69-1.01,1.64-1.52,2.3Z"/>
      <path class="cls-1" d="M146.4,53.13c.84-.69,7.64,2.45,4.29,3.91l-.35-.08c-.58-.58-.87-1.75-1.44-2.26-.79-.71-2.37-.42-2.51-1.57Z"/>
      <path class="cls-1" d="M148.29,67.89c-.1.09-.04.51-.2.71-.4.51-.93.31-.63,1.61h-.79c-.68-2.8,2.32-3.46,3.81-5.25.83-.03-.16,2.42-.92,2.75-.42.18-1.12.05-1.27.18Z"/>
      <path class="cls-1" d="M205.3,121.18c-.18-.18.69-4.68.92-4.99.55-.77,3.32.53,3.55,1.72.59,3.08-1.91,4-4.46,3.28Z"/>
      <path class="cls-1" d="M106.09,126.09c-1.08.98-3.19.76-3.73-.7-.36-.96-1.72-7.62-1.71-8.55.02-2.18,3.38-3.15,4.34-.91.42.97,1.68,7.19,1.72,8.29.02.67-.1,1.4-.62,1.87Z"/>
      <path class="cls-1" d="M197.15,115.67c-.01,2.27.18,4.58.53,6.83l-3.68-.53,2.57-5.97.59-.33Z"/>
      <path class="cls-1" d="M189.71,117.17c-.58.58-3.32.96-3.76.34l.71-4.97c2.66-.89,5.05,2.63,3.05,4.63Z"/>
    </g>
  </g>
</svg>