<svg width="112" height="79" viewBox="0 0 112 79" fill="none" xmlns="http://www.w3.org/2000/svg">
<g clip-path="url(#clip0_390_84511)">
<path d="M61.7058 2.71789C61.6865 2.74045 61.4787 2.72917 61.3822 2.78555C61.0779 2.96148 60.9576 4.04409 60.8054 4.41511C61.9681 4.60118 62.202 5.07708 62.0544 6.21833C62.4302 5.91272 62.8514 5.65221 63.3238 5.50786C63.7597 5.37592 64.9792 5.3466 65.1177 5.26202C65.3334 5.13121 65.4061 4.38804 65.8534 4.30346C65.984 4.73651 66.1418 5.22481 65.9091 5.65334L66.9298 5.71762C67.3261 5.26428 67.5577 4.62937 68.1765 4.41511C68.4161 5.01731 68.1822 5.64432 67.837 6.16081C67.7416 6.30403 67.5043 6.42019 67.4407 6.55664C67.1592 7.1532 68.0811 8.03621 68.1719 8.6463C68.2957 9.47405 67.9642 10.9931 68.0652 12.0182C68.1901 13.2891 69.0031 13.7684 68.3491 15.231C68.1106 15.7633 67.829 15.8795 67.2625 15.7453C66.2145 15.4961 66.3791 14.3007 65.8932 13.5C65.674 13.1403 65.2539 12.9102 64.9451 12.6407C64.5613 12.6407 64.5091 15.3675 64.5568 15.7284C64.6579 16.4862 65.1483 17.2429 65.1654 18.1033C65.1813 18.9164 64.6669 20.2911 64.7748 20.9159C64.8963 21.6229 66.6743 21.6105 66.4575 22.9198C66.395 23.2987 65.4174 24.4276 65.137 24.8854C64.2911 26.2658 64.3263 27.1217 62.5971 27.769C62.1986 27.9179 61.7501 28.0194 61.406 27.7013C61.2516 27.5593 61.2448 27.213 61.0336 27.1724C60.8599 27.5931 60.0481 28.4626 59.6053 28.5212C58.5108 28.6655 58.3609 27.0879 59.0751 26.4936C59.41 26.215 59.9732 26.2128 60.2479 25.9985C60.4023 25.8778 60.8043 25.1617 60.6907 25.0309C59.6359 25.4155 58.5357 25.6884 57.4015 25.5936C57.1767 27.0439 57.3981 29.1121 56.0969 30.1011C55.7494 30.365 55.2158 30.4564 54.9581 30.6605C54.5459 30.9898 53.8817 31.6912 53.3742 32.1288C52.1979 33.1415 51.62 34.7236 51.5042 36.2427C51.4599 36.8156 51.6052 37.579 51.4519 38.1057C51.3554 38.4395 51.0216 38.603 50.9035 38.806C50.7491 39.0721 50.7082 39.4048 50.5345 39.6743C50.4868 39.7488 49.9566 40.3859 49.9157 40.4107C49.6716 40.5585 49.2016 40.5032 49.0017 40.3047C48.568 39.8751 48.769 38.6413 49.2833 38.3188C49.5444 38.1553 49.7454 38.2635 49.9555 38.1981C50.2268 38.1136 50.1156 37.7268 50.1701 37.5102C50.631 35.7025 50.857 34.3921 51.0489 32.5246C51.0852 32.1671 50.9932 31.7713 51.0727 31.4217C51.2986 30.4316 54.2269 29.2012 52.1786 28.0239L51.6733 27.4002C51.0545 28.007 50.6674 28.8381 50.1383 29.482C49.1323 30.7056 47.7255 31.5536 47.2225 33.2328C46.9239 34.2308 46.9171 36.4118 46.5947 37.1155C46.5016 37.3208 46.3142 37.3952 46.2336 37.5452C45.9384 38.0944 46.061 38.5308 45.1754 38.6447C44.0899 38.7846 44.032 37.4414 44.6168 36.784C44.9199 36.4423 45.2912 36.6836 45.4331 36.5314C45.5137 36.4457 45.9373 35.3631 45.9952 35.1668C46.3732 33.8925 46.0996 32.4716 46.623 31.2289C45.7 31.5254 44.6565 31.177 43.7891 30.8353L44.9222 30.3267L44.6974 30.1034C45.7147 29.826 46.807 29.6839 47.7051 29.0896C47.9946 28.6193 47.5382 26.7732 47.562 26.1338C47.5904 25.3884 47.8731 23.9945 48.0412 23.2277C48.7065 20.1896 50.5504 17.8631 53.658 17.0895C53.842 16.8223 53.8635 16.493 54.0123 16.202C54.1735 15.8862 54.597 15.4239 54.5459 15.089C54.4449 14.4191 53.6126 13.3196 53.5297 12.5414C52.1286 12.6745 51.4985 12.0227 51.7471 10.6288C52.5147 10.3334 53.9351 9.45713 54.3245 8.73878C54.538 8.3452 54.5993 7.14418 54.7605 6.58032C55.0216 5.66462 55.31 5.08046 56.19 4.62035C56.5522 4.43202 58.2678 3.90651 58.3711 3.74073C58.4631 3.59413 58.37 3.09004 58.2996 2.92426C58.2519 2.81262 58.0952 2.82164 58.0464 2.7021C57.8102 2.12584 58.2065 0.751152 58.7026 0.356451C59.6382 -0.386715 61.1256 0.0824159 61.4322 1.25637C61.5037 1.53041 61.4424 1.76384 61.4901 1.98826C61.5275 2.16982 61.8523 2.54761 61.7035 2.71676L61.7058 2.71789ZM60.4648 10.7258C60.441 10.4168 60.6953 10.1856 60.6976 9.88341C60.6987 9.71087 60.542 8.58315 60.4092 8.58653C60.0753 9.0613 59.3373 9.37142 58.9888 9.765C58.9013 9.86311 58.8423 9.89018 58.8786 10.0492C59.3544 10.1056 59.737 10.1552 60.1208 10.4552C60.2627 10.5657 60.1684 10.8138 60.4659 10.7269L60.4648 10.7258ZM64.7771 23.5705C64.6317 23.442 63.1126 24.4501 62.9071 24.6689L62.0555 24.0205L61.942 25.8226C62.4801 25.5733 62.7152 26.0154 63.2965 25.6478C63.5349 25.4967 64.8724 23.6551 64.7759 23.5705H64.7771Z" fill="white"/>
<path d="M111.964 78.2119H0.00585938V79.0002H111.964V78.2119Z" fill="white"/>
<path d="M111.964 38.5532H52.6387V39.4543H111.964V38.5532Z" fill="white"/>
<path d="M21.6492 69.9841C21.6492 72.9263 19.2478 75.3114 16.2855 75.3114C13.3233 75.3114 10.9219 72.9263 10.9219 69.9841C10.9219 67.0419 13.3233 64.6567 16.2855 64.6567C19.2478 64.6567 21.6492 67.0419 21.6492 69.9841ZM19.8553 69.9829C19.8553 68.0264 18.2589 66.4408 16.2889 66.4408C14.319 66.4408 12.7226 68.0264 12.7226 69.9829C12.7226 71.9395 14.319 73.5251 16.2889 73.5251C18.2589 73.5251 19.8553 71.9395 19.8553 69.9829Z" fill="white"/>
<path d="M73.9076 64.917C75.1111 65.0783 76.3373 66.0977 76.6359 67.2762C77.1049 69.1234 76.033 70.6774 74.305 71.2818L77.0265 75.0563H74.9283L72.4894 71.5638H70.1074V75.0563H68.293V64.917H73.9076ZM70.1074 69.8744H73.5669C73.6089 69.8744 74.1029 69.6444 74.1857 69.588C75.3166 68.8234 75.0362 67.0901 73.7395 66.6604C73.6578 66.6334 73.0367 66.4947 72.9992 66.4947H70.2765L70.1062 66.6638V69.8744H70.1074Z" fill="white"/>
<path d="M32.675 75.0563H30.5767L28.1379 71.5638H25.7558V75.0563H23.9414V64.917H29.4425C29.7592 64.917 30.7913 65.3399 31.0808 65.544C32.7817 66.7394 32.7919 69.5169 31.0808 70.7123C30.7289 70.9582 30.2895 71.0258 29.9557 71.2818L32.6761 75.0563H32.675ZM25.7547 69.8744H29.2142C29.2562 69.8744 29.8603 69.5361 29.9454 69.4741C30.965 68.7219 30.5813 67.0563 29.388 66.6604C29.3062 66.6334 28.6851 66.4947 28.6477 66.4947H25.925L25.7547 66.6638V69.8744Z" fill="white"/>
<path d="M51.8434 64.917V66.4947H46.0585V69.085H51.1633V70.7755H46.0585V73.4798H51.957V75.0563H44.2441V64.917H51.8434Z" fill="white"/>
<path d="M1.93352 64.917V69.085H6.81123V64.917H8.62675V75.0563H6.81123V70.7755H1.93352V75.0563H0.119141V64.917H1.93352Z" fill="white"/>
<path d="M83.0371 75.0564L87.6264 64.7964L89.1456 64.8223L93.5862 75.0575H91.8274L90.6387 72.6329C89.258 72.6633 87.4902 72.4074 86.1504 72.572C86.0107 72.5889 85.921 72.5619 85.8155 72.6904C85.5123 73.0547 85.166 74.5568 84.8526 75.0575H83.0382L83.0371 75.0564ZM89.9574 71.0011L88.3678 67.0586C88.2952 67.0045 88.1623 67.2368 88.1192 67.3168C87.5197 68.4299 87.1393 69.8576 86.5546 71.0011H89.9574Z" fill="white"/>
<path d="M41.6363 65.933L40.6746 67.39C39.7401 66.4303 36.2885 65.6127 36.1988 67.5749C36.1647 68.3136 36.9005 68.6553 37.4932 68.8662C39.3586 69.5293 42.2142 69.6082 41.9769 72.4106C41.726 75.3821 38.1824 75.6516 35.9343 74.8081C35.5868 74.6773 34.2777 73.9567 34.0904 73.7097C33.9666 73.5473 34.0711 73.5338 34.1483 73.4233C34.2675 73.2541 35.0055 72.3891 35.1304 72.3621C36.2363 73.2225 37.391 73.7774 38.8488 73.5845C39.7481 73.465 40.569 72.5752 39.9865 71.6843C39.5119 70.9592 36.494 70.6367 35.4551 69.8755C33.6544 68.556 34.2629 65.8495 36.276 65.0579C38.07 64.353 40.0796 64.9259 41.6363 65.9341V65.933Z" fill="white"/>
<path d="M110.826 67.3946L110.662 67.3923C109.808 66.1405 105.422 65.8113 106.377 68.043C106.852 69.1538 110.305 69.0963 111.443 70.4462C112.132 71.2638 112.174 72.864 111.604 73.7425C110.087 76.0836 105.892 75.372 104.145 73.6342L105.112 72.3599C105.706 72.6193 106.121 73.0659 106.747 73.3083C107.787 73.712 110.128 73.9398 110.235 72.3791C110.328 71.0112 107.509 70.7574 106.523 70.3763C105.435 69.9556 104.627 69.3613 104.49 68.1163C104.099 64.5719 108.699 64.0464 111.047 65.5462C112.249 66.3142 111.113 66.4349 110.828 67.3957L110.826 67.3946Z" fill="white"/>
<path d="M43.5735 38.5532H0V39.4543H43.5735V38.5532Z" fill="white"/>
<path d="M52.2988 42.3843L53.9531 42.488L56.2137 45.9907C56.3727 46.0268 56.4011 45.8926 56.4783 45.8024C57.2776 44.8596 57.8953 43.45 58.6492 42.4384L60.2399 42.3843V50.3832C59.9844 50.355 58.765 50.4903 58.765 50.214V44.7502L56.3806 48.3544L56.1467 48.2845L53.885 44.7514H53.7181C53.558 44.7683 53.7737 44.8935 53.7737 44.9194V50.2151C53.7737 50.4914 52.5554 50.3561 52.2988 50.3843V42.3854V42.3843Z" fill="white"/>
<path d="M3.91961 42.3843C6.38344 42.4677 7.18731 44.757 5.22419 46.214C7.13508 46.6504 7.30653 49.1855 5.56595 49.9919C5.28096 50.1238 4.30905 50.3843 4.03315 50.3843H0.176171L0.00585938 50.2151V42.3854H3.91961V42.3843ZM1.48075 45.6513H4.03315C4.35901 45.6513 4.87562 45.0784 4.89152 44.6916C4.90741 44.3251 4.48277 43.6236 4.14669 43.6236H1.48075V45.6513ZM4.2591 46.8906C3.4575 46.7553 2.32209 46.9899 1.47962 46.8906V49.031H4.48504C4.52251 49.031 5.05275 48.7153 5.11292 48.6409C5.72604 47.9011 5.08567 47.0293 4.25796 46.8906H4.2591Z" fill="white"/>
<path d="M23.1465 42.3843L24.5987 42.408L28.819 47.7917V42.3843H30.1803V50.3832C29.7659 50.3403 29.2527 50.5208 28.9257 50.2208L24.7338 44.7502H24.5669C24.4068 44.7671 24.6225 44.8923 24.6225 44.9183V50.214C24.6225 50.4903 23.4042 50.355 23.1476 50.3832V42.3843H23.1465Z" fill="white"/>
<path d="M66.2493 64.917V66.6074H63.0735V75.0563H61.2592V66.6074H57.9688V64.917H66.2493Z" fill="white"/>
<path d="M111.963 42.3843C111.948 42.6098 112.054 43.6236 111.793 43.6236H107.313V45.6513H111.397V46.8906H107.313V49.031H111.963V50.3832H106.008L105.838 50.214V42.3843H111.963Z" fill="white"/>
<path d="M33.6956 42.3843V45.6513H37.439V42.3843H38.9139V50.3832C38.6585 50.355 37.439 50.4903 37.439 50.214V47.0034H33.6956V50.3832H32.2207V42.3843H33.6956Z" fill="white"/>
<path d="M46.9671 42.3843V43.6236H42.43V45.6513H46.3437C46.6855 45.6513 46.3608 46.6741 46.514 46.8906H42.43V49.031H46.9103L47.0545 49.1957V50.2197L46.9103 50.3843H41.1254L40.9551 50.2151V42.3854H46.9671V42.3843Z" fill="white"/>
<path d="M21.4436 42.3843V43.6236H16.9065V45.6513H20.8759V46.8906H16.9065V49.031H21.4436V50.3832H15.4316V42.3843H21.4436Z" fill="white"/>
<path d="M36.02 52.9745C36.2891 53.0016 36.9329 53.1651 37.2076 53.2587C39.29 53.9646 39.6976 56.6001 37.8843 57.8688C37.6016 58.0661 36.5911 58.3187 36.6445 58.5499C37.4075 59.6043 38.3521 60.5798 39.0731 61.659C39.1651 61.7966 39.2843 61.9162 39.2514 62.1011L38.0535 61.9962L35.4523 58.6086H33.0702C33.0361 58.6086 32.9828 58.4653 32.8999 58.4958V61.9319C32.8999 62.1654 31.9234 62.1552 31.7656 61.9319V53.1436L31.9359 52.9745C33.2485 53.0703 34.7302 52.8459 36.02 52.9745ZM32.8999 57.5936H36.3595C36.4094 57.5936 37.0351 57.3015 37.135 57.2373C38.2681 56.5121 38.2533 54.8093 37.0112 54.242C36.9158 54.1981 36.2868 53.9883 36.2459 53.9883H32.8999V57.5936Z" fill="white"/>
<path d="M97.33 64.917V73.367H102.605C102.897 73.367 102.737 74.7924 102.775 75.0574H95.5156V64.9181H97.33V64.917Z" fill="white"/>
<path d="M4.88242 62.0998L4.04676 62.084L3.86055 61.8179L3.85601 53.3623C3.78107 52.8356 4.67464 52.8728 4.93692 53.0871L10.5538 60.1838V52.9732H11.5745V61.9295L11.3872 62.0818C11.0488 62.1607 10.7593 62.1077 10.5492 61.8213L4.88128 54.7753V62.0987L4.88242 62.0998Z" fill="white"/>
<path d="M48.1022 60.1852V52.9746L48.9379 52.9904L49.1241 53.2565L49.1287 61.7122C49.1548 62.1678 48.7597 62.1531 48.4088 62.0787C46.2674 59.7871 44.5064 57.1393 42.4309 54.7778V61.9321C42.4309 62.1734 41.4102 62.1734 41.4102 61.9321V52.9757L42.2379 52.9983L48.1022 60.1864V60.1852Z" fill="white"/>
<path d="M91.5448 60.0725V53.1439C91.5448 52.9093 92.3668 52.9747 92.5655 52.9747V62.1002L91.706 61.9953L86.0971 54.7779H85.9302C85.7701 54.7948 85.9858 54.92 85.9858 54.9459V61.931C85.9858 62.1306 85.0502 62.2062 84.8992 61.9885C84.8288 61.904 84.9639 61.8453 84.9639 61.8183V52.9736L85.937 53.0784L91.5436 60.0714L91.5448 60.0725Z" fill="white"/>
<path d="M82.6148 57.5383C82.6148 60.1107 80.5154 62.1958 77.9256 62.1958C75.3357 62.1958 73.2363 60.1107 73.2363 57.5383C73.2363 54.966 75.3357 52.8809 77.9256 52.8809C80.5154 52.8809 82.6148 54.966 82.6148 57.5383ZM77.1103 53.9026C73.485 54.5115 73.4827 60.6339 77.2273 61.1707C83.0008 61.9973 82.7783 52.9496 77.1103 53.9026Z" fill="white"/>
<path d="M96.5375 50.383L95.058 50.3323C94.7855 49.968 94.4483 48.4873 94.0782 48.3768L90.4017 48.4253L89.6013 50.3661L88.1445 50.3842L91.6779 42.2905L93.0801 42.3841L96.5386 50.3842L96.5375 50.383ZM93.7012 47.116C93.1755 46.1439 92.9382 44.926 92.2275 44.0746L90.9785 47.116H93.7012Z" fill="white"/>
<path d="M80.3159 50.383L78.8592 50.3661L78.0588 48.4253L77.8816 48.3475C76.9585 48.5189 75.1918 48.1343 74.3812 48.3768C74.0065 48.4884 73.6511 49.9658 73.4013 50.3323L71.9219 50.383L75.4564 42.2905C75.8538 42.3063 76.6645 42.1191 76.904 42.4506L80.3159 50.383ZM74.7581 47.116H77.4808L76.2841 44.3001L76.0638 44.0734L74.7581 47.116Z" fill="white"/>
<path d="M67.1582 47.7917V50.3832H65.7969V42.3843H69.1429C72.4061 42.3843 72.9965 46.3257 70.4918 47.4421C70.3169 47.5199 69.3882 47.7928 69.2565 47.7928H67.1582V47.7917ZM67.1582 46.4407H69.4835C69.6084 46.4407 70.2318 45.9738 70.3351 45.8216C70.7711 45.1833 70.5951 44.2676 69.9207 43.865C69.8457 43.821 69.4007 43.6236 69.37 43.6236H67.1582V46.4407Z" fill="white"/>
<path d="M29.4977 52.9748V53.9886H23.9398V57.03H28.9311V57.9311H24.1101L23.9398 58.1002V61.0853H29.6112C29.6112 61.2827 29.677 62.0991 29.4409 62.0991H23.0883L22.918 61.93V52.9736H29.4965L29.4977 52.9748Z" fill="white"/>
<path d="M100.705 42.1878C101.972 42.0254 103.512 42.4844 104.358 43.4554L103.496 44.4016C101.979 43.1566 99.6062 43.0844 98.7819 45.1222C97.5136 48.2572 101.207 50.5905 103.512 48.1343L104.356 48.9902C103.669 50.1089 102.063 50.5984 100.803 50.4822C95.9297 50.0334 95.798 42.8182 100.705 42.1878Z" fill="white"/>
<path d="M60.2382 62.0999C59.9066 61.9082 59.4445 62.2837 59.1584 61.9905C58.8723 61.6973 58.5283 60.238 58.1854 59.8028C58.1524 59.761 58.1365 59.7058 58.0854 59.6764L53.277 59.637L52.1234 61.9917C51.9304 62.118 51.0675 62.1789 51.0527 61.933L55.1516 52.9936C55.5024 52.9868 56.0326 52.8425 56.2563 53.156L60.237 62.101L60.2382 62.0999ZM57.6301 58.7201L55.5898 54.2138L53.6608 58.7201H57.6313H57.6301Z" fill="white"/>
<path d="M99.6952 52.9923L103.795 62.0998C103.484 62.0603 102.938 62.2126 102.717 61.9893C102.356 61.625 102.004 60.2391 101.698 59.7327C101.616 59.6053 101.487 59.6301 101.363 59.6154C99.9927 59.4463 98.2499 59.7383 96.8374 59.6391L95.6339 62.049L94.7188 62.0468L98.6802 53.0431L99.6952 52.9912V52.9923ZM101.187 58.72L99.2025 54.2125L97.1042 58.72H101.188H101.187Z" fill="white"/>
<path d="M80.996 64.917H79.1816V75.0563H80.996V64.917Z" fill="white"/>
<path d="M9.762 42.3843V49.031H13.9585V50.3832H8.45742L8.28711 50.214V42.3843H9.762Z" fill="white"/>
<path d="M83.1507 42.3843V49.031H87.3483V50.3832H81.8461L81.6758 50.214V42.3843H83.1507Z" fill="white"/>
<path d="M17.815 53.9884V61.9309C17.815 62.1757 16.6807 62.1757 16.6807 61.9309V53.9884H13.7877C13.5447 53.9884 13.5447 52.9746 13.7877 52.9746H20.7069C20.9499 52.9746 20.9499 53.9884 20.7069 53.9884H17.8139H17.815Z" fill="white"/>
<path d="M67.6111 52.9746V53.9884H64.5489V62.1001H63.5282V53.9884H60.4648V52.9746H67.6111Z" fill="white"/>
<path d="M106.859 61.0864H111.963C111.942 61.2837 112.063 62.0472 111.798 62.0731L105.838 62.1002V52.9747C106.037 52.9747 106.859 52.9093 106.859 53.1439V61.0864Z" fill="white"/>
<path d="M50.2561 42.3843H48.7812V50.3888H50.2561V42.3843Z" fill="white"/>
<path d="M70.8999 52.9668H69.7656V62.1092H70.8999V52.9668Z" fill="white"/>
<path d="M1.02659 52.9688H0.00585938V62.11H1.02659V52.9688Z" fill="white"/>
</g>
<defs>
<clipPath id="clip0_390_84511">
<rect width="112" height="79" fill="white"/>
</clipPath>
</defs>
</svg>
