<svg width="104" height="61" viewBox="0 0 104 61" fill="none" xmlns="http://www.w3.org/2000/svg">
<g clip-path="url(#clip0_390_84562)">
<path d="M0.1875 31.4824H1.82781V33.4738H0.1875V31.4824ZM1.82781 45.15H0.1875V35.2543H1.82781V45.15Z" fill="white"/>
<path d="M5.92234 35.2545V36.824H5.95945C6.64229 35.6248 7.72346 35.0239 9.20295 35.0239C9.85858 35.0239 10.4054 35.1122 10.8433 35.2912C11.2812 35.4703 11.635 35.718 11.9046 36.0368C12.1743 36.3556 12.3648 36.7357 12.4737 37.1747C12.5825 37.6162 12.6394 38.1042 12.6394 38.6389V45.1477H10.9967V38.4476C10.9967 37.8344 10.816 37.3489 10.4548 36.9932C10.0936 36.6352 9.5988 36.4562 8.96792 36.4562C8.46568 36.4562 8.03024 36.5322 7.66408 36.6867C7.29792 36.8387 6.99113 37.057 6.7462 37.3366C6.50127 37.6186 6.31819 37.9473 6.19696 38.3225C6.07325 38.6977 6.01388 39.1097 6.01388 39.5561V45.1452H4.37109V35.2496H5.91491L5.92234 35.2545Z" fill="white"/>
<path d="M19.3804 35.2541V36.6888H17.3913V42.8346C17.3913 43.0259 17.4061 43.178 17.4383 43.2933C17.4705 43.4085 17.5323 43.4968 17.6214 43.5606C17.7105 43.6243 17.8366 43.666 17.9974 43.6857C18.1583 43.7053 18.3686 43.7151 18.6259 43.7151H19.3804V45.1498H18.1261C17.7006 45.1498 17.3369 45.1203 17.035 45.0639C16.7307 45.0075 16.4883 44.8996 16.3002 44.7476C16.1122 44.5955 15.9761 44.3772 15.8846 44.0977C15.7955 43.8156 15.7485 43.4478 15.7485 42.9867V36.6888H14.0488V35.2541H15.7485V32.2866H17.3913V35.2541H19.3804Z" fill="white"/>
<path d="M28.2645 44.5174C27.5174 45.079 26.5772 45.3586 25.4441 45.3586C24.645 45.3586 23.9547 45.2311 23.3684 44.976C22.782 44.721 22.2897 44.3629 21.8913 43.9043C21.493 43.4457 21.1936 42.8963 20.9932 42.2587C20.7928 41.621 20.6815 40.9246 20.6543 40.1716C20.6543 39.4187 20.7706 38.7296 21.0031 38.1042C21.2332 37.4788 21.5598 36.9369 21.9779 36.4758C22.396 36.0172 22.8909 35.6591 23.4648 35.4041C24.0364 35.149 24.6648 35.0215 25.3476 35.0215C26.2358 35.0215 26.9731 35.203 27.5594 35.5659C28.1458 35.9289 28.6159 36.3924 28.9696 36.954C29.3234 37.5156 29.5684 38.1287 29.7044 38.7909C29.8405 39.4555 29.8949 40.0858 29.8677 40.6867H22.3936C22.3812 41.1207 22.4307 41.5328 22.547 41.9202C22.6632 42.3102 22.8488 42.656 23.1086 42.9552C23.3659 43.2544 23.6949 43.4947 24.0933 43.6738C24.4916 43.8528 24.9617 43.9411 25.5035 43.9411C26.1987 43.9411 26.7677 43.7817 27.2131 43.4628C27.6584 43.144 27.9503 42.6584 28.0914 42.0085H29.7119C29.4917 43.1195 29.0092 43.9533 28.2645 44.5149M27.8687 38.1631C27.7202 37.8197 27.5223 37.523 27.27 37.2728C27.0176 37.0227 26.7232 36.8265 26.3818 36.6793C26.0403 36.5322 25.6643 36.4586 25.2511 36.4586C24.8379 36.4586 24.4421 36.5322 24.1032 36.6793C23.7617 36.8265 23.4698 37.0276 23.2249 37.2827C22.9799 37.5377 22.7869 37.8345 22.6459 38.1729C22.5049 38.5113 22.4208 38.8718 22.396 39.2544H28.1309C28.1037 38.8718 28.0171 38.5089 27.8712 38.1631" fill="white"/>
<path d="M33.0546 35.2542V37.3412H33.0917C33.4901 36.5368 33.9799 35.9433 34.5589 35.5607C35.1378 35.1781 35.8726 34.9991 36.7608 35.0261V36.7477C36.1052 36.7477 35.5435 36.836 35.0809 37.015C34.6182 37.1941 34.2447 37.4565 33.9601 37.7998C33.6756 38.1432 33.4703 38.5625 33.3416 39.053C33.213 39.5435 33.1486 40.11 33.1486 40.7477V45.1498H31.5059V35.2542H33.0546Z" fill="white"/>
<path d="M39.8911 35.2545V36.824H39.9282C40.611 35.6248 41.6922 35.0239 43.1717 35.0239C43.8273 35.0239 44.3741 35.1122 44.812 35.2912C45.2499 35.4703 45.6037 35.718 45.8734 36.0368C46.1431 36.3556 46.3336 36.7357 46.4424 37.1747C46.5513 37.6162 46.6082 38.1042 46.6082 38.6389V45.1477H44.9654V38.4476C44.9654 37.8344 44.7848 37.3489 44.4236 36.9932C44.0624 36.6352 43.5676 36.4562 42.9367 36.4562C42.4344 36.4562 41.999 36.5322 41.6328 36.6867C41.2642 36.8387 40.9599 37.057 40.715 37.3366C40.47 37.6186 40.2869 37.9473 40.1657 38.3225C40.042 38.6977 39.9826 39.1097 39.9826 39.5561V45.1452H38.3398V35.2496H39.8837L39.8911 35.2545Z" fill="white"/>
<path d="M57.9266 45.1109C57.6421 45.2777 57.2512 45.3586 56.7489 45.3586C56.3259 45.3586 55.9869 45.2409 55.7346 45.0054C55.4847 44.77 55.3585 44.3825 55.3585 43.8479C54.9082 44.385 54.3837 44.77 53.785 45.0054C53.1863 45.2409 52.5381 45.3586 51.8453 45.3586C51.395 45.3586 50.967 45.3071 50.5613 45.2065C50.1555 45.1035 49.8042 44.9441 49.5098 44.7283C49.2129 44.5125 48.9779 44.228 48.8047 43.8773C48.6315 43.5266 48.5449 43.1023 48.5449 42.6045C48.5449 42.0429 48.6414 41.5843 48.8344 41.2262C49.0274 40.8681 49.2822 40.5787 49.5964 40.3556C49.9131 40.1324 50.2718 39.9632 50.6776 39.8479C51.0833 39.7326 51.499 39.637 51.9245 39.561C52.3748 39.4727 52.8028 39.404 53.2085 39.3599C53.6143 39.3157 53.973 39.252 54.2823 39.1686C54.5915 39.0852 54.8365 38.965 55.0146 38.8032C55.1952 38.6438 55.2843 38.4108 55.2843 38.1042C55.2843 37.7462 55.2175 37.4592 55.0814 37.2434C54.9453 37.0251 54.7722 36.8608 54.5594 36.7456C54.3466 36.6303 54.1091 36.5543 53.8444 36.515C53.5797 36.4758 53.3199 36.4562 53.0626 36.4562C52.3674 36.4562 51.7884 36.5886 51.3233 36.8486C50.8607 37.111 50.6083 37.6039 50.5712 38.3323H48.9284C48.9531 37.7192 49.0818 37.2042 49.3144 36.7823C49.5469 36.3605 49.8562 36.0196 50.2421 35.7597C50.6281 35.4997 51.0685 35.3084 51.5658 35.1956C52.0606 35.0803 52.5925 35.0239 53.1591 35.0239C53.6093 35.0239 54.0571 35.0558 54.5 35.1196C54.9453 35.1833 55.3461 35.3133 55.7074 35.512C56.0686 35.7082 56.358 35.9853 56.5758 36.3433C56.7935 36.699 56.9048 37.1649 56.9048 37.7388V42.8203C56.9048 43.2029 56.9271 43.4825 56.9716 43.6615C57.0161 43.8405 57.1671 43.9288 57.4244 43.9288C57.5654 43.9288 57.7336 43.9043 57.9266 43.8528V45.1158V45.1109ZM55.262 40.0392C55.0567 40.1913 54.787 40.3041 54.4505 40.3727C54.1165 40.4439 53.7652 40.5003 53.399 40.5444C53.0329 40.5886 52.6618 40.6401 52.2882 40.6965C51.9146 40.7529 51.5806 40.8461 51.2837 40.9711C50.9868 41.0987 50.7468 41.2801 50.5588 41.5131C50.3708 41.7486 50.2792 42.0698 50.2792 42.4745C50.2792 42.7418 50.3337 42.9674 50.445 43.1514C50.5539 43.3353 50.6949 43.4849 50.8705 43.6002C51.0437 43.713 51.2466 43.7964 51.4792 43.8479C51.7117 43.8994 51.9567 43.9239 52.214 43.9239C52.7558 43.9239 53.2184 43.8503 53.6044 43.7056C53.9903 43.5609 54.307 43.3745 54.5495 43.1538C54.7944 42.9307 54.975 42.6903 55.0888 42.4303C55.2051 42.1704 55.262 41.9251 55.262 41.6971V40.0392Z" fill="white"/>
<path d="M63.7198 35.2541V36.6888H61.7306V42.8346C61.7306 43.0259 61.7479 43.178 61.7801 43.2933C61.8123 43.4085 61.8741 43.4968 61.9632 43.5606C62.0522 43.6243 62.1784 43.666 62.3392 43.6857C62.5001 43.7053 62.7104 43.7151 62.9677 43.7151H63.7222V45.1498H62.4679C62.0424 45.1498 61.6787 45.1203 61.3768 45.0639C61.075 45.0075 60.8301 44.8996 60.642 44.7476C60.454 44.5955 60.3179 44.3772 60.2264 44.0977C60.1373 43.8156 60.0903 43.4478 60.0903 42.9867V36.6888H58.3906V35.2541H60.0903V32.2866H61.7306V35.2541H63.7198Z" fill="white"/>
<path d="M65.6309 31.4824H67.2712V33.4738H65.6309V31.4824ZM67.2736 45.15H65.6333V35.2543H67.2736V45.15Z" fill="white"/>
<path d="M69.5905 38.1729C69.7959 37.5401 70.1051 36.9933 70.5183 36.5273C70.9315 36.0613 71.4386 35.6934 72.0448 35.4261C72.6485 35.1588 73.3461 35.0239 74.1304 35.0239C74.9147 35.0239 75.6272 35.1588 76.226 35.4261C76.8247 35.6934 77.3294 36.0613 77.7426 36.5273C78.1557 36.9933 78.4625 37.5426 78.6703 38.1729C78.8757 38.8056 78.9796 39.485 78.9796 40.2109C78.9796 40.9368 78.8757 41.6137 78.6703 42.2391C78.4625 42.8644 78.1557 43.4113 77.7426 43.8773C77.3294 44.3433 76.8247 44.7062 76.226 44.9686C75.6272 45.2311 74.9296 45.361 74.1304 45.361C73.3313 45.361 72.6485 45.2311 72.0448 44.9686C71.4386 44.7087 70.9315 44.3433 70.5183 43.8773C70.1051 43.4113 69.7983 42.8644 69.5905 42.2391C69.3852 41.6137 69.2812 40.9368 69.2812 40.2109C69.2812 39.485 69.3852 38.8032 69.5905 38.1729ZM71.2605 41.8099C71.4213 42.2758 71.644 42.6658 71.926 42.9773C72.2081 43.2912 72.5396 43.5291 72.9206 43.6958C73.2991 43.8626 73.7024 43.9435 74.128 43.9435C74.5535 43.9435 74.9543 43.8601 75.3353 43.6958C75.7138 43.5291 76.0478 43.2912 76.3299 42.9773C76.6119 42.6658 76.8346 42.2758 76.9954 41.8099C77.1562 41.3439 77.2379 40.8117 77.2379 40.2109C77.2379 39.61 77.1562 39.0778 76.9954 38.6119C76.8346 38.1459 76.6119 37.7535 76.3299 37.4347C76.0478 37.1159 75.7138 36.8731 75.3353 36.7063C74.9568 36.5395 74.5535 36.4562 74.128 36.4562C73.7024 36.4562 73.3016 36.5395 72.9206 36.7063C72.5396 36.8731 72.2081 37.1159 71.926 37.4347C71.6415 37.7535 71.4213 38.1459 71.2605 38.6119C71.0997 39.0778 71.018 39.61 71.018 40.2109C71.018 40.8117 71.0997 41.3439 71.2605 41.8099Z" fill="white"/>
<path d="M82.4531 35.2545V36.824H82.4902C83.173 35.6248 84.2542 35.0239 85.7337 35.0239C86.3893 35.0239 86.9361 35.1122 87.374 35.2912C87.8119 35.4703 88.1657 35.718 88.4354 36.0368C88.705 36.3556 88.8955 36.7357 89.0044 37.1747C89.1133 37.6162 89.1702 38.1042 89.1702 38.6389V45.1477H87.5274V38.4476C87.5274 37.8344 87.3468 37.3489 86.9856 36.9932C86.6243 36.6352 86.1295 36.4562 85.4986 36.4562C84.9964 36.4562 84.561 36.5322 84.1948 36.6867C83.8286 36.8387 83.5219 37.057 83.2769 37.3366C83.032 37.6186 82.8489 37.9473 82.7277 38.3225C82.604 38.6977 82.5446 39.1097 82.5446 39.5561V45.1452H80.9043V35.2496H82.4481L82.4531 35.2545Z" fill="white"/>
<path d="M100.489 45.1109C100.207 45.2777 99.8137 45.3586 99.3114 45.3586C98.8884 45.3586 98.5494 45.2409 98.2971 45.0054C98.0472 44.77 97.921 44.3825 97.921 43.8479C97.4707 44.385 96.9462 44.77 96.3475 45.0054C95.7488 45.2409 95.1006 45.3586 94.4078 45.3586C93.9575 45.3586 93.5295 45.3071 93.1238 45.2065C92.718 45.1035 92.3667 44.9441 92.0723 44.7283C91.7754 44.5125 91.5404 44.228 91.3672 43.8773C91.194 43.5266 91.1074 43.1023 91.1074 42.6045C91.1074 42.0429 91.2039 41.5843 91.3969 41.2262C91.5899 40.8681 91.8447 40.5787 92.1589 40.3556C92.4731 40.1324 92.8343 39.9632 93.2401 39.8479C93.6458 39.7326 94.0615 39.637 94.487 39.561C94.9373 39.4727 95.3653 39.404 95.771 39.3599C96.1768 39.3157 96.5355 39.252 96.8448 39.1686C97.154 39.0852 97.399 38.965 97.5771 38.8032C97.7577 38.6438 97.8468 38.4108 97.8468 38.1042C97.8468 37.7462 97.78 37.4592 97.6439 37.2434C97.5078 37.0251 97.3347 36.8608 97.1219 36.7456C96.9091 36.6303 96.6716 36.5543 96.4069 36.515C96.1422 36.4758 95.8824 36.4562 95.6251 36.4562C94.9299 36.4562 94.3509 36.5886 93.8883 36.8486C93.4256 37.111 93.1733 37.6039 93.1337 38.3323H91.4934C91.5181 37.7192 91.6468 37.2042 91.8793 36.7823C92.1119 36.3605 92.4212 36.0196 92.8071 35.7597C93.1931 35.4997 93.6334 35.3084 94.1307 35.1956C94.6255 35.0803 95.1575 35.0239 95.724 35.0239C96.1743 35.0239 96.6221 35.0558 97.065 35.1196C97.5103 35.1833 97.9111 35.3133 98.2723 35.512C98.6335 35.7082 98.923 35.9853 99.1407 36.3433C99.3584 36.699 99.4698 37.1649 99.4698 37.7388V42.8203C99.4698 43.2029 99.492 43.4825 99.5366 43.6615C99.5811 43.8405 99.732 43.9288 99.9893 43.9288C100.13 43.9288 100.299 43.9043 100.492 43.8528V45.1158V45.1109H100.489ZM97.8245 40.0392C97.6192 40.1913 97.347 40.3041 97.013 40.3727C96.6766 40.4439 96.3277 40.5003 95.9615 40.5444C95.5954 40.5886 95.2243 40.6401 94.8507 40.6965C94.4771 40.7529 94.1431 40.8461 93.8462 40.9711C93.5493 41.0987 93.3069 41.2801 93.1213 41.5131C92.9333 41.7486 92.8417 42.0698 92.8417 42.4745C92.8417 42.7418 92.8962 42.9674 93.0075 43.1514C93.1164 43.3353 93.2574 43.4849 93.433 43.6002C93.6062 43.713 93.8091 43.7964 94.0417 43.8479C94.2718 43.8994 94.5192 43.9239 94.7765 43.9239C95.3183 43.9239 95.7809 43.8503 96.1669 43.7056C96.5529 43.5609 96.8695 43.3745 97.112 43.1538C97.3569 42.9307 97.5375 42.6903 97.6513 42.4303C97.7676 42.1704 97.8245 41.9251 97.8245 41.6971V40.0392Z" fill="white"/>
<path d="M103.75 31.4824H102.109V45.15H103.75V31.4824Z" fill="white"/>
<path d="M1.58757 48.0781V52.8359H1.62221C1.87456 52.3258 2.27041 51.953 2.80976 51.7225C3.34911 51.4895 3.94288 51.3742 4.58862 51.3742C5.30857 51.3742 5.93451 51.5042 6.46643 51.7666C6.99836 52.0266 7.44369 52.3822 7.79748 52.8261C8.15128 53.2724 8.41848 53.785 8.59908 54.3687C8.77969 54.9499 8.86876 55.5679 8.86876 56.2227C8.86876 56.8775 8.78216 57.4931 8.60898 58.0768C8.43579 58.658 8.17107 59.1681 7.81728 59.6022C7.46349 60.0363 7.02063 60.3772 6.48623 60.6274C5.95183 60.8775 5.33331 61.0001 4.62573 61.0001C4.39811 61.0001 4.14328 60.9756 3.86124 60.929C3.5792 60.8824 3.29963 60.8039 3.025 60.6985C2.74791 60.593 2.48813 60.4459 2.2432 60.2619C1.99826 60.078 1.79044 59.8499 1.62221 59.5753H1.58757V60.8039H0.0585938V48.0781H1.58757ZM7.08 54.8592C6.9662 54.4496 6.79301 54.0842 6.55798 53.7629C6.32294 53.4417 6.02358 53.1866 5.65989 52.9978C5.29373 52.8065 4.86571 52.7108 4.37585 52.7108C3.86124 52.7108 3.42333 52.8114 3.06211 53.0149C2.70337 53.2185 2.40896 53.4809 2.18135 53.8095C1.95373 54.1357 1.78797 54.5085 1.68653 54.9229C1.5851 55.3399 1.53314 55.7592 1.53314 56.1884C1.53314 56.6397 1.58757 57.0762 1.69395 57.498C1.80034 57.9198 1.97352 58.2926 2.20609 58.6114C2.43865 58.9327 2.74049 59.1902 3.11407 59.3864C3.48518 59.5826 3.93546 59.6807 4.46244 59.6807C4.98942 59.6807 5.4298 59.5802 5.78359 59.3766C6.13738 59.1755 6.4219 58.9082 6.63715 58.5746C6.85239 58.2411 7.00826 57.861 7.10474 57.4343C7.20123 57.0075 7.24824 56.5661 7.24824 56.1148C7.24824 55.6881 7.19134 55.2687 7.07753 54.8592" fill="white"/>
<path d="M18.9005 60.7674C18.6358 60.9219 18.2696 61.0004 17.8045 61.0004C17.4087 61.0004 17.0945 60.8901 16.8594 60.6718C16.6269 60.4511 16.5081 60.093 16.5081 59.5927C16.0875 60.0906 15.6001 60.4511 15.0434 60.6718C14.4868 60.8925 13.8831 61.0004 13.2374 61.0004C12.8168 61.0004 12.4185 60.9538 12.0399 60.8582C11.6639 60.7625 11.3373 60.6154 11.0602 60.4143C10.7856 60.2107 10.5654 59.9483 10.4046 59.6197C10.2438 59.2935 10.1621 58.8987 10.1621 58.4351C10.1621 57.9128 10.2512 57.4836 10.4318 57.1525C10.6124 56.819 10.8474 56.5492 11.1418 56.3407C11.4338 56.1323 11.7703 55.9753 12.1488 55.8674C12.5273 55.762 12.9133 55.6712 13.3091 55.6001C13.7272 55.5167 14.128 55.4554 14.5041 55.4137C14.8802 55.372 15.2142 55.3132 15.5012 55.2347C15.7881 55.1562 16.0158 55.0458 16.184 54.8962C16.3522 54.7491 16.4364 54.5308 16.4364 54.2463C16.4364 53.9128 16.372 53.6455 16.2483 53.4444C16.1221 53.2433 15.9613 53.0888 15.7634 52.9809C15.5655 52.8754 15.3453 52.8018 15.0979 52.7675C14.8529 52.7307 14.6105 52.7136 14.3705 52.7136C13.7223 52.7136 13.1829 52.8362 12.7525 53.079C12.322 53.3218 12.0869 53.7828 12.0523 54.4597H10.5233C10.5481 53.8883 10.6668 53.4076 10.8821 53.0152C11.0973 52.6228 11.3843 52.304 11.7455 52.0612C12.1043 51.8184 12.5149 51.6418 12.9776 51.5339C13.4403 51.4285 13.9351 51.3745 14.4596 51.3745C14.8802 51.3745 15.2958 51.4039 15.709 51.4653C16.1221 51.5241 16.4982 51.6467 16.8322 51.8282C17.1687 52.0122 17.4383 52.2697 17.6412 52.6032C17.8441 52.9343 17.948 53.3684 17.948 53.9005V58.6313C17.948 58.9869 17.9678 59.2494 18.0123 59.4137C18.0544 59.5804 18.1954 59.6638 18.4354 59.6638C18.5665 59.6638 18.7224 59.6393 18.903 59.5927V60.7674H18.9005ZM16.419 56.0464C16.2261 56.1887 15.9762 56.2917 15.6644 56.3579C15.3527 56.4241 15.0261 56.4756 14.6847 56.5173C14.3433 56.559 13.9994 56.6056 13.6505 56.6596C13.3017 56.7135 12.9924 56.7994 12.7153 56.9171C12.4383 57.0348 12.2156 57.204 12.0399 57.4223C11.8667 57.6405 11.7802 57.9397 11.7802 58.3174C11.7802 58.5651 11.8296 58.776 11.9335 58.9477C12.035 59.1194 12.1686 59.2592 12.3294 59.3646C12.4902 59.4701 12.6807 59.5486 12.896 59.5952C13.1112 59.6418 13.3388 59.6663 13.5788 59.6663C14.081 59.6663 14.514 59.5976 14.8727 59.4627C15.2315 59.3278 15.5259 59.1562 15.7535 58.9477C15.9811 58.7417 16.1494 58.5161 16.2557 58.2733C16.3621 58.0305 16.4166 57.8024 16.4166 57.5915V56.0489L16.419 56.0464Z" fill="white"/>
<path d="M21.9391 48.0781H20.4102V60.8039H21.9391V48.0781Z" fill="white"/>
<path d="M25.9333 48.0781H24.4043V60.8039H25.9333V48.0781Z" fill="white"/>
<path d="M28.0883 54.3077C28.2788 53.7191 28.5683 53.209 28.9517 52.7749C29.3352 52.3408 29.8078 51.9999 30.3719 51.7497C30.9359 51.4996 31.5817 51.3745 32.314 51.3745C33.0463 51.3745 33.7069 51.4996 34.2636 51.7497C34.8202 51.9999 35.2928 52.3408 35.6763 52.7749C36.0597 53.209 36.3467 53.7191 36.5397 54.3077C36.7302 54.8962 36.8267 55.529 36.8267 56.2059C36.8267 56.8827 36.7302 57.513 36.5397 58.0943C36.3467 58.6755 36.0597 59.1856 35.6763 59.6172C35.2928 60.0513 34.8227 60.3898 34.2636 60.635C33.7069 60.8778 33.0562 61.0004 32.314 61.0004C31.5718 61.0004 30.9359 60.8802 30.3719 60.635C29.8078 60.3922 29.3352 60.0538 28.9517 59.6172C28.5683 59.1831 28.2813 58.6755 28.0883 58.0943C27.8953 57.513 27.7988 56.8827 27.7988 56.2059C27.7988 55.529 27.8953 54.8962 28.0883 54.3077ZM29.6445 57.6945C29.7954 58.1286 30.0008 58.4915 30.2655 58.7809C30.5277 59.0728 30.837 59.296 31.1908 59.448C31.5446 59.6025 31.9182 59.681 32.314 59.681C32.7099 59.681 33.0834 59.6025 33.4372 59.448C33.791 59.2935 34.1003 59.0703 34.3625 58.7809C34.6273 58.4891 34.8326 58.1286 34.9835 57.6945C35.132 57.2604 35.2087 56.765 35.2087 56.2059C35.2087 55.6467 35.1344 55.1513 34.9835 54.7172C34.8326 54.2831 34.6273 53.9177 34.3625 53.621C34.1003 53.3242 33.791 53.0986 33.4372 52.9441C33.0834 52.7896 32.7099 52.7111 32.314 52.7111C31.9182 52.7111 31.5446 52.7896 31.1908 52.9441C30.837 53.0986 30.5277 53.3242 30.2655 53.621C30.0008 53.9177 29.7954 54.2831 29.6445 54.7172C29.4936 55.1513 29.4193 55.6467 29.4193 56.2059C29.4193 56.765 29.4936 57.2604 29.6445 57.6945Z" fill="white"/>
<path d="M38.41 54.3077C38.6005 53.7191 38.89 53.209 39.2735 52.7749C39.657 52.3408 40.1295 51.9999 40.6936 51.7497C41.2577 51.4996 41.9034 51.3745 42.6358 51.3745C43.3681 51.3745 44.0287 51.4996 44.5878 51.7497C45.1445 51.9999 45.6145 52.3408 45.998 52.7749C46.3815 53.209 46.6685 53.7191 46.8615 54.3077C47.052 54.8962 47.1485 55.529 47.1485 56.2059C47.1485 56.8827 47.052 57.513 46.8615 58.0943C46.671 58.6755 46.3815 59.1856 45.998 59.6172C45.6145 60.0513 45.1445 60.3898 44.5878 60.635C44.0311 60.8778 43.3804 61.0004 42.6358 61.0004C41.8911 61.0004 41.2577 60.8802 40.6936 60.635C40.1295 60.3922 39.657 60.0538 39.2735 59.6172C38.89 59.1831 38.603 58.6755 38.41 58.0943C38.2171 57.513 38.123 56.8827 38.123 56.2059C38.123 55.529 38.2195 54.8962 38.41 54.3077ZM39.9638 57.6945C40.1147 58.1286 40.32 58.4915 40.5847 58.7809C40.847 59.0728 41.1563 59.296 41.51 59.448C41.8638 59.6025 42.2374 59.681 42.6333 59.681C43.0291 59.681 43.4027 59.6025 43.7565 59.448C44.1103 59.2935 44.4196 59.0703 44.6818 58.7809C44.9441 58.4891 45.1519 58.1286 45.3028 57.6945C45.4537 57.2604 45.5279 56.765 45.5279 56.2059C45.5279 55.6467 45.4537 55.1513 45.3028 54.7172C45.1519 54.2831 44.9465 53.9177 44.6818 53.621C44.4171 53.3242 44.1103 53.0986 43.7565 52.9441C43.4027 52.7896 43.0291 52.7111 42.6333 52.7111C42.2374 52.7111 41.8638 52.7896 41.51 52.9441C41.1563 53.0986 40.847 53.3242 40.5847 53.621C40.3225 53.9177 40.1147 54.2831 39.9638 54.7172C39.8128 55.1513 39.7386 55.6467 39.7386 56.2059C39.7386 56.765 39.8128 57.2604 39.9638 57.6945Z" fill="white"/>
<path d="M50.3808 51.5903V53.052H50.4179C51.0537 51.9361 52.0607 51.377 53.4387 51.377C54.0498 51.377 54.5595 51.4603 54.9677 51.6271C55.3759 51.7939 55.705 52.0244 55.9573 52.3236C56.2097 52.6203 56.3854 52.9735 56.4868 53.3831C56.5882 53.7926 56.6402 54.2488 56.6402 54.7466V60.8067H55.1112V54.5676C55.1112 53.9962 54.943 53.5449 54.6065 53.2138C54.27 52.8803 53.8099 52.716 53.2235 52.716C52.7559 52.716 52.3502 52.7871 52.0087 52.9294C51.6673 53.0716 51.3828 53.2752 51.1552 53.5351C50.9276 53.7975 50.7569 54.1016 50.643 54.4523C50.5292 54.803 50.4723 55.1856 50.4723 55.6025V60.8067H48.9434V51.5928H50.3808V51.5903Z" fill="white"/>
<path d="M61.2051 52.9268V51.5902H62.7687V50.2168C62.7687 49.4688 62.9864 48.8999 63.4243 48.5148C63.8622 48.1298 64.5005 47.936 65.3393 47.936C65.4827 47.936 65.6485 47.9483 65.8341 47.9728C66.0196 47.9973 66.1854 48.0317 66.3289 48.0783V49.3977C66.1953 49.3511 66.0518 49.3168 65.8984 49.2996C65.7425 49.2824 65.599 49.2726 65.4679 49.2726C65.0968 49.2726 64.8098 49.3437 64.6045 49.486C64.3991 49.6282 64.2977 49.9029 64.2977 50.3051V51.5877H66.0963V52.9243H64.2977V60.8016H62.7687V52.9243H61.2051V52.9268Z" fill="white"/>
<path d="M67.5508 48.0781H69.0798V49.9322H67.5508V48.0781ZM69.0798 60.8039H67.5508V51.59H69.0798V60.8039Z" fill="white"/>
<path d="M78.0344 60.2156C77.3392 60.738 76.4634 61.0004 75.4094 61.0004C74.6647 61.0004 74.0215 60.8827 73.4772 60.6448C72.9304 60.4069 72.4727 60.0734 72.1016 59.6466C71.7305 59.2199 71.4509 58.7098 71.2654 58.1139C71.0798 57.5204 70.9734 56.8729 70.9512 56.1715C70.9512 55.4701 71.0576 54.83 71.2753 54.2463C71.4905 53.6651 71.7924 53.1599 72.1833 52.7307C72.5742 52.304 73.0343 51.9704 73.5687 51.7326C74.1031 51.4947 74.687 51.377 75.3229 51.377C76.1492 51.377 76.8345 51.5462 77.3813 51.8846C77.9256 52.223 78.3635 52.6547 78.6925 53.1771C79.0216 53.6994 79.2492 54.2709 79.3754 54.8889C79.5016 55.5069 79.551 56.0955 79.5288 56.6546H72.5717C72.5593 57.0593 72.6063 57.4419 72.7152 57.8048C72.824 58.1678 72.9972 58.4891 73.2372 58.7687C73.4772 59.0482 73.784 59.2714 74.1551 59.4357C74.5262 59.6025 74.9641 59.6859 75.4688 59.6859C76.117 59.6859 76.6465 59.5363 77.0597 59.2395C77.4728 58.9428 77.745 58.4915 77.8786 57.8833H79.3878C79.1824 58.9183 78.7346 59.6957 78.0394 60.2181M77.6658 54.2978C77.5273 53.9766 77.3417 53.7019 77.1091 53.4689C76.8741 53.2359 76.5995 53.0544 76.2828 52.9171C75.9661 52.7798 75.6148 52.7111 75.2313 52.7111C74.8478 52.7111 74.4792 52.7798 74.1625 52.9171C73.8458 53.0544 73.5737 53.2408 73.3436 53.4787C73.116 53.7166 72.9354 53.9913 72.8042 54.3076C72.6731 54.6216 72.594 54.9575 72.5717 55.3131H77.9107C77.886 54.9575 77.8068 54.6191 77.6683 54.2978" fill="white"/>
<path d="M82.2772 58.7466C82.4207 58.9796 82.6087 59.1635 82.8437 59.2984C83.0788 59.4357 83.341 59.5338 83.6354 59.5927C83.9298 59.6516 84.2317 59.681 84.5434 59.681C84.7834 59.681 85.0357 59.6638 85.298 59.627C85.5603 59.5903 85.8052 59.5265 86.0254 59.4308C86.248 59.3352 86.4311 59.1954 86.5746 59.0115C86.7181 58.8275 86.7899 58.5921 86.7899 58.3076C86.7899 57.9152 86.6389 57.6185 86.3421 57.4174C86.0427 57.2163 85.6666 57.052 85.2188 56.9269C84.7686 56.8018 84.2812 56.689 83.7542 56.5884C83.2272 56.4879 82.7398 56.3456 82.2895 56.1617C81.8392 55.9778 81.4657 55.7203 81.1663 55.3867C80.8669 55.0532 80.7185 54.5897 80.7185 53.9962C80.7185 53.5327 80.8224 53.1354 81.0327 52.8018C81.243 52.4683 81.5127 52.1985 81.8417 51.9901C82.1708 51.7816 82.5419 51.6271 82.9551 51.5266C83.3682 51.426 83.7789 51.3745 84.1871 51.3745C84.7141 51.3745 85.199 51.4187 85.6444 51.5094C86.0872 51.5977 86.4806 51.7522 86.822 51.9729C87.1634 52.1936 87.4356 52.4904 87.6409 52.8632C87.8438 53.2359 87.965 53.7043 87.9997 54.2611H86.4707C86.446 53.9643 86.3693 53.7191 86.2357 53.5229C86.1021 53.3267 85.9363 53.1697 85.7334 53.0495C85.5281 52.9294 85.3054 52.8435 85.0605 52.7896C84.8156 52.7356 84.5657 52.7086 84.3133 52.7086C84.0857 52.7086 83.8556 52.7258 83.6206 52.7626C83.388 52.7994 83.1753 52.8607 82.9823 52.9514C82.7918 53.0397 82.6359 53.1599 82.5147 53.3071C82.3934 53.4567 82.3341 53.6504 82.3341 53.8858C82.3341 54.1482 82.4256 54.3641 82.6112 54.5357C82.7967 54.7074 83.0342 54.8496 83.3212 54.9625C83.6082 55.0753 83.9323 55.1709 84.2935 55.2469C84.6523 55.3254 85.0135 55.4039 85.3722 55.4873C85.7557 55.5707 86.1293 55.6712 86.4954 55.7914C86.8616 55.9091 87.1832 56.0661 87.4678 56.2647C87.7498 56.4609 87.9774 56.7062 88.1506 57.0054C88.3238 57.3021 88.4104 57.67 88.4104 58.109C88.4104 58.6681 88.2941 59.1316 88.0591 59.4995C87.824 59.8674 87.5197 60.1666 87.1412 60.3898C86.7627 60.6154 86.3371 60.7723 85.8646 60.8631C85.392 60.9514 84.9219 60.9955 84.4543 60.9955C83.9397 60.9955 83.4474 60.9416 82.9798 60.8361C82.5122 60.7282 82.099 60.5541 81.7403 60.3088C81.3816 60.066 81.0921 59.7448 80.8768 59.3475C80.6616 58.9502 80.5404 58.4646 80.5156 57.8956H82.0446C82.057 58.2291 82.1337 58.5112 82.2796 58.7417" fill="white"/>
<path d="M94.0704 51.5901V52.9267H92.2173V58.6483C92.2173 58.8273 92.2322 58.9695 92.2619 59.0774C92.2915 59.1829 92.3484 59.2663 92.4326 59.3276C92.5167 59.3864 92.633 59.4257 92.7839 59.4429C92.9348 59.46 93.1278 59.4698 93.3678 59.4698H94.0679V60.8064H92.9002C92.5043 60.8064 92.1654 60.7794 91.8858 60.7255C91.6038 60.6715 91.3761 60.5734 91.2005 60.4312C91.0273 60.289 90.8986 60.0878 90.8145 59.8254C90.7304 59.5655 90.6883 59.2197 90.6883 58.7905V52.9267H89.1074V51.5901H90.6883V48.8286H92.2173V51.5901H94.0704Z" fill="white"/>
<path d="M103.996 60.7674C103.732 60.9219 103.365 61.0004 102.9 61.0004C102.504 61.0004 102.19 60.8901 101.955 60.6718C101.723 60.4511 101.604 60.093 101.604 59.5927C101.183 60.0906 100.696 60.4511 100.139 60.6718C99.5825 60.8925 98.9788 61.0004 98.3331 61.0004C97.9125 61.0004 97.5142 60.9538 97.1356 60.8582C96.7596 60.7625 96.433 60.6154 96.1559 60.4143C95.8813 60.2107 95.6611 59.9483 95.5003 59.6197C95.3395 59.2935 95.2578 58.8987 95.2578 58.4351C95.2578 57.9128 95.3469 57.4836 95.5275 57.1525C95.7081 56.819 95.9431 56.5492 96.2375 56.3407C96.5295 56.1323 96.866 55.9753 97.2445 55.8674C97.623 55.762 98.009 55.6712 98.4048 55.6001C98.8254 55.5167 99.2237 55.4554 99.5998 55.4137C99.9759 55.372 100.31 55.3132 100.597 55.2347C100.884 55.1562 101.111 55.0458 101.28 54.8962C101.448 54.7491 101.532 54.5308 101.532 54.2463C101.532 53.9128 101.468 53.6455 101.344 53.4444C101.22 53.2433 101.055 53.0888 100.859 52.9809C100.661 52.8754 100.441 52.8018 100.194 52.7675C99.9487 52.7307 99.7062 52.7136 99.4662 52.7136C98.818 52.7136 98.2811 52.8362 97.8482 53.079C97.4177 53.3218 97.1826 53.7828 97.148 54.4597H95.619C95.6438 53.8883 95.7625 53.4076 95.9778 53.0152C96.193 52.6228 96.48 52.304 96.8412 52.0612C97.2 51.8184 97.6107 51.6418 98.0733 51.5339C98.536 51.4285 99.0308 51.3745 99.5553 51.3745C99.9759 51.3745 100.392 51.4039 100.805 51.4653C101.218 51.5241 101.594 51.6467 101.928 51.8282C102.264 52.0122 102.534 52.2697 102.737 52.6032C102.94 52.9343 103.044 53.3684 103.044 53.9005V58.6313C103.044 58.9869 103.064 59.2494 103.108 59.4137C103.15 59.5804 103.291 59.6638 103.531 59.6638C103.662 59.6638 103.818 59.6393 103.999 59.5927V60.7674H103.996ZM101.515 56.0464C101.322 56.1887 101.072 56.2917 100.76 56.3579C100.448 56.4241 100.122 56.4756 99.7804 56.5173C99.439 56.559 99.0951 56.6056 98.7463 56.6596C98.3974 56.7135 98.0882 56.7994 97.8111 56.9171C97.534 57.0348 97.3113 57.204 97.1356 57.4223C96.9624 57.6405 96.8759 57.9397 96.8759 58.3174C96.8759 58.5651 96.9253 58.776 97.0292 58.9477C97.1307 59.1194 97.2643 59.2592 97.4251 59.3646C97.5859 59.4701 97.7764 59.5486 97.9917 59.5952C98.2069 59.6418 98.4345 59.6663 98.6745 59.6663C99.1767 59.6663 99.6097 59.5976 99.9684 59.4627C100.327 59.3278 100.622 59.1562 100.849 58.9477C101.077 58.7417 101.245 58.5161 101.351 58.2733C101.46 58.0305 101.512 57.8024 101.512 57.5915V56.0489L101.515 56.0464Z" fill="white"/>
<path d="M103.881 26.0059H0V27.8182H103.881V26.0059Z" fill="white"/>
<path d="M37.7885 0.254883H33.543V20.6961H37.7885V0.254883Z" fill="white"/>
<path d="M0 0.254883H7.57313C11.7593 0.254883 13.882 2.62886 13.882 5.72632C13.882 7.71036 12.6697 9.42463 10.73 9.90531C13.1546 10.5062 14.7628 11.9801 14.7628 14.8347C14.7628 18.1701 12.306 20.6961 8.06052 20.6961H0V0.254883ZM7.05852 8.34064C8.7879 8.34064 9.69588 7.52887 9.69588 6.14569C9.69588 4.7625 8.93881 3.95074 7.26882 3.95074H4.2455V8.33819H7.05852V8.34064ZM7.87496 17.0003C9.42126 17.0003 10.4851 15.9776 10.4851 14.4448C10.4851 12.912 9.39404 11.9212 7.63498 11.9212H4.24798V17.0003H7.87744H7.87496Z" fill="white"/>
<path d="M16.2871 0.254883H23.3506C27.5664 0.254883 31.0227 2.20949 31.0227 6.98933C31.0227 10.0868 29.3848 12.0389 26.9899 12.9709L31.6907 20.6961H26.839L22.6554 13.6012H20.5351V20.6961H16.2896V0.254883H16.2871ZM23.2293 10.0549C25.3224 10.0549 26.6559 9.24314 26.6559 6.98688C26.6559 4.73062 25.2606 3.95074 23.2293 3.95074H20.5326V10.0525H23.2293V10.0549Z" fill="white"/>
<path d="M39.4688 16.6546L42.925 14.6706C43.8355 16.1445 45.0181 17.2261 47.1087 17.2261C48.8677 17.2261 49.9885 16.3554 49.9885 15.1513C49.9885 13.7092 48.8356 13.1967 46.8959 12.3555L45.8345 11.9042C42.7716 10.6118 40.7404 8.98826 40.7404 5.56218C40.7404 2.40586 43.1675 0 46.9578 0C49.657 0 51.5966 0.931934 52.9945 3.36723L49.6891 5.47143C48.9618 4.17899 48.1725 3.66643 46.9602 3.66643C45.7479 3.66643 44.929 4.44876 44.929 5.47143C44.929 6.73445 45.7183 7.24456 47.5367 8.0269L48.5981 8.47815C52.2053 10.0109 54.2414 11.5756 54.2414 15.0924C54.2414 18.879 51.2379 20.9538 47.2027 20.9538C43.1675 20.9538 40.7132 19.0899 39.4688 16.6546Z" fill="white"/>
<path d="M59.8101 3.95319H54.3301V0.254883H69.5357V3.95319H64.0556V20.6961H59.8101V3.95319Z" fill="white"/>
<path d="M96.5053 17.0003H103.88V20.6961H92.2598V17.0003V0.254883H96.5053V17.0003Z" fill="white"/>
<path d="M79.9813 0C74.145 0 69.4121 4.69155 69.4121 10.4769C69.4121 16.2623 74.145 20.9538 79.9813 20.9538C85.8177 20.9538 90.5506 16.2623 90.5506 10.4769C90.5506 4.69155 85.8201 0 79.9813 0ZM79.9813 17.2236C76.2207 17.2236 73.1752 14.2022 73.1752 10.4769C73.1752 6.75162 76.2232 3.73019 79.9813 3.73019C83.7394 3.73019 86.785 6.74917 86.785 10.4769C86.785 14.2046 83.737 17.2236 79.9813 17.2236Z" fill="white"/>
</g>
<defs>
<clipPath id="clip0_390_84562">
<rect width="104" height="61" fill="white"/>
</clipPath>
</defs>
</svg>
