<?xml version="1.0" encoding="UTF-8"?>
<svg id="Layer_2" data-name="Layer 2" xmlns="http://www.w3.org/2000/svg" viewBox="0 0 288.11 293.3">
  <defs>
    <style>
      .cls-1 {
        fill: #fff;
      }
    </style>
  </defs>
  <g id="Layer_1-2" data-name="Layer 1">
    <g>
      <path class="cls-1" d="M179.64,150.2v1.43s-5.78.97-5.78.97v29.37h24.56v-29.13l-.8-.65-4.98-.57v-1.43s27.45,0,27.45,0v1.43s-6.19,1.04-6.19,1.04l-.09,63.16c.35,1.51,7.35-.17,6.28,2.73h-27.45v-1.43s5.78-.97,5.78-.97v-32.26h-23.84l-.72.72v31.53l5.75,1,.03,1.41h-26.97l.28-1.49,5.43-.99.07-62.76c-.48-2.57-6.48.13-5.78-3.13h26.97Z"/>
      <path class="cls-1" d="M38.29,0c22.29,2.51,20.53,30.9-.52,34.14l-9.83,1.96,15.68,3.35,14.43,26.01,4.26,1.45c.99,1.28-.09,1.81-1.35,1.95-1.89.22-17.32.22-18.09-.26l-16.6-32.03-5.06-.47v29.61l.8.64,4.98.56c.19.54-.21,1.92-.72,1.92H0l.03-1.89,4.95-.59.79-1.13.17-62.85L0,1.43V0s38.29,0,38.29,0ZM21.19,34.18c14.79,2.09,19.16-12.15,15.63-24.05C34.51,2.35,28.73.17,21.19,2.41v31.77Z"/>
      <path class="cls-1" d="M263.68,0c22.2,2.35,21.18,30.23.24,33.94l-10.59,2.16,16.14,3.37,15.19,26.7c1.75.84,3.98-.32,3.35,2.67h-19.02l-17.17-32.66-4.74-.08v30.33l5.78.48v1.44h-27.46v-1.44s6.26-.48,6.26-.48V2.65l-.8-.65-5.47-.56V0h38.29ZM247.06,34.18c4,.17,8.01.13,11.32-2.41,7.4-5.68,7.1-25.39-1.84-29.45-3.3-1.5-5.27-.43-8.68-.32l-.8.65v31.53Z"/>
      <path class="cls-1" d="M36,73.3c16.66-1.91,30.96,12.31,33.29,28.1,3.14,21.23-6.71,35.82-26.81,41.93C12.59,152.42-6.72,122.99,3.01,96.17c4.69-12.93,19.79-21.35,32.99-22.86ZM31.67,76.19c-12.27,1.69-13.91,25.84-13.36,35.25.58,10.03,4.88,29.47,17.13,31.01,16.69,2.1,17.84-28.39,16.57-39.19s-6.71-28.96-20.34-27.08Z"/>
      <path class="cls-1" d="M144.96,153.09v18.78c-.57-.07-1.39.19-1.85-.08-.81-.48-6.47-14.3-8.5-16.78-3.64-4.45-10.87-5.5-16.15-4.08-20.02,5.36-19.57,45.5-10.69,59.79,4.91,7.91,15.22,10.37,22.25,3.76v-24.79l-6.75-.48v-2.41h27.45v2.41s-5.29.48-5.29.48l-.07,24.96c-3.93,1.4-7.87,2.78-11.97,3.68-11.83,2.62-23.17,3.33-33.86-3.23-14.14-8.68-17.73-27.12-13.1-42.27,7.1-23.28,38.54-29.76,58.52-19.73Z"/>
      <path class="cls-1" d="M220.09,0v18.29l-1.86-.79-7.28-15.83-23.12.25v29.85h11.8l5.13-12.45,1.86-.07v26.48l-1.98-.29-4.29-11.75h-12.52v32.74h24.08l6.36-16.51,1.82-.83v19.26h-53.46v-1.44s5.78-.48,5.78-.48V2.41l-4.98-.56c-.91-.32-.87-.98-.8-1.85h53.46Z"/>
      <path class="cls-1" d="M124.74,75.1v19.26c-.57-.07-1.39.19-1.85-.08-.84-.5-6.32-15.36-8.03-17.25h-22.39v31.29h11.8l5.01-12.71,1.98-.29v27.44c-.66-.08-1.5.31-1.97-.3-1.61-2.06-2.97-9.48-4.29-12.22h-12.52v30.81l7.71.97v1.44h-28.9v-1.43s4.99-.56,4.99-.56l.79-1.14-.07-62.76-5.43-.99-.28-1.49h53.46Z"/>
      <polygon class="cls-1" points="278.37 150.2 278.37 170.42 276.39 170.12 268.01 152.13 258.62 152.13 258.62 216.16 266.81 217.12 266.81 218.57 235.02 218.57 235.02 217.12 243.21 216.16 243.21 152.13 233.1 152.13 225.33 169.65 223.46 170.42 223.46 150.2 278.37 150.2"/>
      <path class="cls-1" d="M125.22,0v1.43s-7.22,1.21-7.22,1.21l17.82,53.68L154.1,3.1c.32-.87-1.19-.93-1.8-1.03-1.96-.32-6.03.4-5.41-2.06h16.86l-.28,1.49-6.5,1.23-21.19,63.92-10.73,3.21L101.53,3.22c-1.11-1.89-3.66-.95-5.4-1.74l-.28-1.49h29.38Z"/>
      <polygon class="cls-1" points="27.45 150.2 27.45 151.64 21.19 152.61 21.19 216.16 42.86 216.16 50.63 199.61 52.49 198.83 52.49 218.57 0 218.57 0 217.13 6.19 216.09 5.8 152.93 .28 151.69 0 150.2 27.45 150.2"/>
      <path class="cls-1" d="M92.95,0v1.43s-6.29,1.27-6.29,1.27l.03,62.53c.36,1.96,4.52,1.06,6.26,1.69l-.22,1.47c-.39.46-.91.42-1.45.48-5.11.59-19.51.59-24.61,0-1.25-.15-2.35-.67-1.35-1.94l5.16-.56.79-1.14-.07-62.76c-.26-.17-.57-.23-.86-.32-1.92-.58-5.93.4-5.33-2.15h27.93Z"/>
      <path class="cls-1" d="M83.32,150.2v1.44s-6.19,1.03-6.19,1.03l-.07,62.76c.36,1.95,4.51,1.06,6.26,1.69v1.44h-27.45v-1.43s4.99-.56,4.99-.56l.79-1.14-.21-62.86-6.05-.94v-1.44h27.94Z"/>
      <path class="cls-1" d="M131.72,257.56c8.39,1.04,11.54,10.44,4.45,15.52l-9.51,3.25,8.07,1.57,7.29,13.53,1.98,1.27h-10.11l-8.67-16.61-1.93-.24v15.89c1.05-.01,2.53-.26,2.89.96h-13.97c-.4-1.83,1.9-.47,2.92-1.17l.45-31.81-.45-.99c-1.02-.71-3.33.65-2.92-1.17,6.14.55,13.52-.74,19.5,0ZM123.29,275.37c11.27,1.31,11.3-19.16,0-16.85v16.85Z"/>
      <path class="cls-1" d="M193.98,256.69c18.07-1.31,24.58,27.04,5.87,34.8-23.44,9.73-32.95-22.94-14.29-32.1,1.82-.89,6.51-2.56,8.41-2.7ZM191.56,258.14c-8.35,1.36-7.34,20.76-5.2,26.63,2.74,7.51,10.54,11.26,14.22,2.14,2.88-7.14,2.5-30.66-9.02-28.78Z"/>
      <path class="cls-1" d="M232.51,256.7c18.06-1.58,24.88,27.01,5.87,34.8-27.03,11.08-33.81-32.35-5.87-34.8ZM230.08,258.14c-6.6,1.27-7.07,14.76-6.61,19.87s3.6,14.99,10.3,14.2c7.07-.83,7.48-14.83,7.02-19.96-.47-5.29-3.77-15.44-10.71-14.11Z"/>
      <path class="cls-1" d="M164.95,257.56c5.85.79,9.24,4.83,8.38,10.79-.91,6.32-11.42,9.08-16.81,8.46l.07,14.14c.57,1.73,3.69-.28,3.3,1.75h-13.97c-.54-1.85,2.5-.57,2.89-.96v-32.95c-.1-.67-3.13.34-3.37-1.24,6.08.59,13.61-.79,19.5,0ZM156.52,275.85c11.93,3.29,11.88-22.08,0-16.61v16.61Z"/>
      <path class="cls-1" d="M109.32,257.56v9.63l-4.33-8.67h-12.04v15.41l6.18-.08c.92-.57,1.34-6.24,3.45-6.18v12.76c0,.09-.77.86-.96.72l-2.39-6.04-6.28-.22v16.85h11.8c1.8-2.15,2.19-5.67,3.5-8.05.31-.56-.03-.81,1.08-.62v9.63h-27.45c-.4-1.83,1.9-.47,2.92-1.17l.45-31.81-.45-.99c-1.02-.71-3.33.65-2.92-1.17h27.45Z"/>
      <path class="cls-1" d="M60.68,257.56c.53,1.91-2.91.53-3.37.97l.09,1.1,9.53,26.82,8.68-27.92c-.43-.43-3.91.94-3.37-.97h8.19c.31,2.04-3.04-.05-3.48,2.06l-10.72,32.13-4.82,1.47-1.12-.83-11.59-33.57c-.68-.96-3.4.7-2.94-1.25h14.93Z"/>
      <path class="cls-1" d="M15.89,257.56c-.45,1.47-2.54.46-3.37,1.68v31.77l.72.72h9.63c2.29-2.03,2.92-6.07,4.65-8.35.42-.55.5-.98,1.37-.8v10.11H1.93c-.57-1.92,2.77-.35,2.9-1.24v-32.94c-.4-.39-3.44.89-2.9-.96h13.97Z"/>
      <path class="cls-1" d="M264.4,257.56v.96s-2.89,0-2.89,0v33.22h10.35c1.98-2.43,2.82-5.98,4.46-8.53.31-.47-.06-.85,1.08-.62v10.11h-26.97c-.4-1.83,1.9-.47,2.92-1.17l.45-31.81-.45-.99c-1.02-.71-3.33.65-2.92-1.17h13.97Z"/>
      <path class="cls-1" d="M44.31,257.56c.4,1.83-1.9.47-2.92,1.17l-.45,31.81.45.99c1.02.71,3.33-.65,2.92,1.17h-13.97c-.57-1.92,2.77-.35,2.9-1.24v-32.94c-.4-.39-3.44.89-2.9-.96h13.97Z"/>
    </g>
  </g>
</svg>