<?xml version="1.0" encoding="UTF-8"?>
<svg id="Layer_1" data-name="Layer 1" xmlns="http://www.w3.org/2000/svg" viewBox="0 0 764.07 648.08">
  <defs>
    <style>
      .cls-1 {
        fill: #fff;
      }
    </style>
  </defs>
  <path class="cls-1" d="M430.01,402c-.49-2.36.3-1.61,1.29-2.24,10.92-7.03,20.68-10.54,31.24-19.73,80.71-70.29,40.72-204.67-65.15-217.9-114.84-14.35-187.35,120.22-109.89,206.89,13.77,15.41,25.83,20.22,42.23,30.74.99.64,1.77-.11,1.29,2.24h-28.5c-3.84,0-29.83-26.76-33.48-31.52-67.7-88.25-7.2-218.95,103.43-224.53,124.62-6.28,195.78,139.36,113.06,233.06-3.21,3.64-23.82,22.99-27.01,22.99h-28.5Z"/>
  <path class="cls-1" d="M205.01,269.5c-.23-.71-3.52-2.29-4.54-3.46-6.06-6.97-8.21-17.31-10.45-26.03,2.34-2.68,13.09,14.94,13.97,15.52,1.26.82,1.72.61,2.52-.54.71-1.02,3.78-15.89,3.53-17.44-.34-2.1-2.68-3.44-3.58-5.49-3.68-8.4-5-16.86-4.44-26.05,2.27-.48,2.19,1.18,3.03,2.46,2.87,4.43,5.39,9.46,6.98,14.53,2.53,1.86,8.87-13.94,8.98-15.57.18-2.7-2.09-4.69-2.71-7.21-2.13-8.57-.69-15.69.73-24.22,1.74-.35,2.02.44,2.78,1.71,2.16,3.65,2.77,10.56,4.15,14.7.07,1.01,1.91.75,2.49.51.83-.35,9.93-14.02,10.15-14.89.51-2.07-1.83-9.15-1.55-13.52.4-6.3,3.54-12.47,5-18.51l2.82,1.67,1.17,18.33c2.19,2.2,12.63-11.1,15.69-12.25-.57-10.71,4.53-20.15,11.81-27.74.83,5.56-.93,11.2-2.56,16.38.01.8,2.14,1.27,2.58,1.23.89-.08,14.52-8.85,14.96-9.62.9-1.56.39-4.41,1.28-6.72.64-1.65,4.57-8.68,5.74-9.27,3.44-1.72-.52,7.61-.67,8.36-.17.84-1.45,2.07.71,2.61,4.73,1.17,16.3-9.32,22.44-7.97.43,2.05-1.02,2.32-2.3,3.19-2.6,1.76-14.21,6.03-14.69,8.32.24,5,8.61-.02,8,4.48-3.22,0-6.43,1.92-9.55,2.05-3.45.14-6-1.68-9.48-.6-1.28.39-14.02,9.69-14.5,10.53-.57.99-.55,1.94-.46,3.03,6.96-.94,13.02-.95,19.99.01.23,1.28,0,1.73-1.05,2.44-.97.67-16.03,5.41-17.59,5.5-5.22.29-7.88-4.21-13.42-.5-1.73,1.15-9.6,9.91-7.93,11.55l19.49-4,.5,1.99c-8.19,3.65-13.92,12.3-23.63,12.97-2.88.2-5.4-1.95-8.08.35-.59.51-8.28,12.26-8.55,13.02-.55,1.58.05,2.2.27,3.68l18.62-8.89c4.41.61-.53,3.41-.98,3.97-3.06,3.81-8.19,10.52-12.33,12.73-4.88,2.6-8.94,2.32-13.83,4.17l-4.48,14.01c1.28,1.31,13.29-8.45,15.7-9.79.89-.5,2.54-2.2,3.3-.7-5.5,7.71-7.55,16.92-16.33,21.67-2.22,1.2-6.29,1.44-7.75,3.25-1.27,1.58-4.71,14.51-.45,13.56,1.34-.83,11.91-13.69,13.51-11.99-3.68,9.72-4.38,17.77-12.49,25-2.27,2.02-5.78,1.91-6.48,5.52-.38,1.94-.96,13.35,2.47,12.47,2.55-3.29,5.51-10.76,8.47-13.32,1.13-.97,1.65-.77,3.04-.67-2.49,6.64-1.43,14.64-4.48,21.01-1.79,3.74-7.6,7.33-8.3,9.69-1.36,4.56.99,10.73,1.8,15.29,1.69.33,2.07-.39,2.79-1.7,2.13-3.89,3.07-10.57,5.96-15,.63-.97-.13-1.79,2.24-1.29v22.5c0,1.39-5.77,9.09-7.46,10.45-.34.63-.03,1.21.06,1.84.16,1.03,3.91,11.11,4.32,11.61,4.43,5.53,3.97-7.66,4.16-8.82.51-3.16,2.59-6.04,1.93-9.58h2.99c.3,9.68,5.68,18.22,1.51,28.01-1.08,2.53-3.72,3.64-3.37,6.25l5.83,10.28,3.03-1.03v-17c0-.49,1.74-2.18,2.52-.52,2.41,9.04,7.54,14.49,6.48,24.53-.36,3.39-2.85,6.39-1.5,9.44.25.57,7.16,9.53,7.71,9.83,1.08.59,2.57.12,3.78.22.62-.58-2.73-14.19-2.77-16.76-.02-1.29.72-2.51,1.78-1.76,4.43,7.89,11.6,14.45,11.99,24.02.07,1.69-1.05,3.39-1.06,5.05-.02,4.33,8.65,9.22,11.76,12.25,1.01.98,2.83.98,2.3,3.19-6.63,2.27-13.76-6.98-17.73-7.8-1.96-.4-8.98,1.14-12.76.79-4.22-.38-15.03-4.15-18.49-6.5-2.01-1.36.41-2.49,1.49-2.49h16l1.5-2.49c-4.26-2.34-10.34-12.82-13.44-14.57-2.33-1.32-7.5-1.41-11.23-2.77-2.63-.95-13.43-7.06-14.85-9.15-.55-.8-.96-1.99.04-2.04l16.48,2.01c1.12-1.12-4.99-12.86-6.46-14.04-1.99-1.6-8.6-3.43-12.27-5.73-2.52-1.58-12.33-9.59-13.27-11.74-.51-1.18.17-1.9,1.43-1.43l16.12,5.95c5,.52-1.78-15.75-2.49-16.56-1.48-1.69-4.78-1.92-6.77-3.23-7.43-4.89-11-10.8-16.28-17.73-.38-2.52,1.68-1.49,3.02-1.01,4.63,1.66,12.94,9.07,15.46,9.55,2.01.38,1.34-.27,1.52-1.5.29-1.98-1.01-14.69-1.74-16.28-1.15-2.49-3.98-2.64-5.77-4.23-7.41-6.58-12.36-14.17-14.49-24l16.99,14.51,2-1.01v-19Z"/>
  <path class="cls-1" d="M529.51,406c.77.22,2.03,2.26,1.5,2.99-9.27,3.66-15.38,5.91-25.54,6.05-1.97.03-4.02-1.12-5.75-.86-2.34.35-9.03,6.53-13.43,7.59-1.79.43-6.21,1.34-5.27-1.76,3.04-.63,13.54-8.81,14.54-11.06.85-1.93-.68-4.96-.63-7.45.2-9.65,7.36-15.38,11.11-23.5l1.99.5c1.73,2.46-4.31,18.56-.5,18.48l10.04-11.02c1.06-2.35-1.26-5.51-1.54-8.46-1-10.49,3.02-16.86,7-26.02,1.34-1.39,1.86,2.63,1.91,3.11.45,4.35-.75,11.19.23,14.77,1.55,5.61,8.47-7.92,8.67-9.04.3-1.67-4.33-6.8-4.82-10.8-1.05-8.53,2.21-15.3,3.03-23.53,2.62-.57,2.02,1,2.67,2.78.91,2.46,1.73,6.19,2.22,8.83s-1.33,9.31,3.13,7.93c1.37-.9,5.18-12.06,4.97-14.02s-4.16-5.09-5.41-7.61c-4.15-8.43-1.75-15.74-2.26-24.44l2.65-1.46c1.61,2.69,5.67,17.99,7.51,17.98,3.11-2.12,4.48-13.93,2.57-16.55-.85-1.16-3.42-1.94-4.65-3.36-5.86-6.75-5.79-18.53-7.4-27.07,4.09.62,10.19,14.68,11.5,15,3.99.95,2.78-12.54.94-14.95-1.19-1.56-5.36-2.84-7.35-4.65-5.49-5-7.77-16.39-10.1-23.39,1.43-1.54,11.46,10.42,12.59,11.9l2.94-.89c.87-1.22-1.82-11.74-3.04-13.01-1.73-1.81-8.11-2.41-11.54-5.46-5.04-4.47-7.26-13.04-11.94-18.07-.38-1.29.22-1.97,1.47-1.47,1.53.61,6.58,4.33,8.42,5.58,3.14,2.14,5.13,6.32,9.09,5.4.88-.85-3.78-12.23-4.96-13.53-2.5-2.76-11.35-2.3-16.96-7.04-1.3-1.1-11.72-12.12-12.07-12.94-.92-2.14,1.08-1.26,2.1-1.1,6.3,1.02,12,6.08,17.91,8.17l1.82-2.05-11.53-15.36c-12.57,3.21-19.98-6.34-29.3-12.66-.4-2.22.88-1.48,2.38-1.38,4.53.3,12.65,3.94,15.2,3.87,1.3-.03,2.71-1.11,2.41-2.46l-10.96-11.01c-3.67.17-6.52,2.67-10.4,2.44-2.36-.14-15.78-4.29-17.59-5.5-1.06-.71-1.27-1.17-1.05-2.44,6.82-.65,12.66-.89,19.49,0,.88,0,.66-2.03.47-2.47-.4-.91-14.37-11.02-15.73-11.35-2.78-.68-5.59.97-8.68.84s-6.33-2.06-9.55-2.05c-.48-4.01,6.43-.24,7.98-4.49l-16.91-8.58-.07-2.91c4.24-1.49,20.86,10.07,22.99,7.99l-2.98-10.51c2.29-2.45,6.29,4.78,7.17,6.83,1.13,2.61,1.16,6.78,2.37,8.63,1.63,2.52,12.83,8.02,15.95,10.05,2.12-4.55-2.76-12.5-2.48-16.51.07-1.06,1.25-1.62,2.48-.5,2.53,2.29,8.18,12.36,9.26,15.74,3.87,12.21-1.65,7.63,8.77,17.23,2.63,2.42,3.19,7.19,8.46,6.04.07-5.41.18-12,1.28-17.27.38-1.83.45-3.3,2.72-2.73,1.91,8.51,5.81,15.3,4.9,24.4-.24,2.39-2.18,5.95-1.72,7.9.19.81,8.74,13.13,9.37,13.67,1.26,1.1,1.72,1.28,3.46,1.04l4.77-16.72,2.23-1.28c.22,7.15,1.67,14.26.99,21.48-.32,3.43-3.08,9.35-3,10.92.04.78,5.06,13.96,5.54,14.57,1.29,1.66,1.65,1.28,3.02.07,1.94-1.71,5.24-11.75,7.98-15.02,1.33-1.59,1.29-.69,2.44.46-1.72,10.86-.23,21.68-8.77,30.16,2.48,4.31,1.67,12.72,3.31,16.34,2.87,6.33,7.54-5.64,9.51-7.47l6.97-6.52c-.89,12.27-5.58,22.55-14.84,30.69.78,3.65.88,7.12.89,10.85,0,2.68-2.34,7.51,1.45,7.48,1.65-.01,12.26-12.48,17-14.03.75-.15.63.96.51,1.5-.7,3.19-6.41,13.54-8.6,16.4-2.58,3.37-11.05,8.94-11.68,10.32-.33.71-2.63,14.4-2.49,15.15s1.59,2.35,2.24,2.4c.9.08,12.09-8.1,15.48-9.32,1.35-.48,3.4-1.51,3.02,1.02-4.36,5-7.72,10.83-12.98,15.02-2.83,2.26-9.23,4.8-10.51,6.49-.99,1.3-4.43,12.6-4.52,14.49-.12,2.37,1.49,1.76,3.3,1.29,4.54-1.17,10.31-4.81,15.21-5.8l.49,2.5c-7.44,6.66-14.13,14.33-24.71,15.78l-7.18,12.35c-.76,4.93,14.85.25,17.4.37,1.13.3.53,1.33.04,2.04-.97,1.41-11.96,7.91-14.18,8.83-4.19,1.74-9.18,1.75-12.31,3.69-3.95,2.44-8.44,11.09-13.04,13.97l1.5,2.49h16Z"/>
  <path class="cls-1" d="M586.01,615.01l-7.5,1.98-142.35,14.15-.28,7.23-1.5,1.49c-11.07,1.43-25.12-1.46-35.8.2-5.33.83-11.07,7.79-16.08,8.01-5.66.25-11.88-7.19-17.03-8.02-10.58-1.71-24.8,1.28-35.81-.19l-1.5-1.49-.28-7.23-149.87-15.64,408.01-.49Z"/>
  <path class="cls-1" d="M344.01,171.5c.8-1.01,1.84-1.53,3-2,2.17-.88,12.28-3.68,12.9-.92l-.04,95.28-97.86,1.15c-1.02-1.04,2.36-16.24,4.5-18h14.5c.53-2.41-.41-1.62-1.31-2.23-4.5-3.08-14.9-7.93-6.21-12.82,3.67,1.14,19.23,15.06,21.01,15.06h19c.48,0,1.86,1.49,2.98,1.02l.04-2.04c-4.09-4.16-35.7-24.12-36.46-26.61-.45-1.47,6.47-10.07,7.97-11.84,3.33-3.93,7.56-7.22,10.98-11.09l44.99,32.56v-57.5Z"/>
  <path class="cls-1" d="M417.01,170v61l44.05-33.53c1.85-1.11,6.38,2.31,5.95,4.01l-50.07,38.95-.93,6.57h15.5c2.7,0,36.31-30.63,41.95-34.05l2.92-.89c1.09.33,7.32,9.83,8.42,11.65,1.39,2.3,6.69,11.93,6.82,13.8.23,3.24-9.05,6.44-10.61,9.48l14.04.47c1.03.69,4.26,12.49,4.57,14.52.16,1.08.68,1.72-.56,2.56l-98.05-.54v-97l16,3Z"/>
  <path class="cls-1" d="M391.01,77c.01,3.13-3.17,2.46-4.77,5.73-.95,1.95-1.35,4.1-1.23,6.26.3.32,6.23-2.06,6.96-2.54,2.19-1.46,1.37-4.42,5.03-3.45-1.54,5.87-1.51,12.17,0,17.99-4.07-1.5-5.86-4.85-10.62-5.88-3.62-.79.41,7.13,1.6,8.41,5.91,6.32,22.23,4.86,20.14-6.07-6.68-5.57-4.84,3.61-6.62,3.53-7.02-6.04-.98-15.59,7.54-13.38.04-2.58,6.05-15.24,9.03-11s1.13,9.77.94,14.38c9.12.2,10.56,10.09,2.46,14.01-3.55.97,1.28-4.9-2.06-5.93-8.21-2.51-5.89,13.13,5.1,12.98,3.89-.05,11-5.05,12.47-8.55,1.69-4.01-9.26,1.06-9.99.5l4.51-13.98c1.86-.34,2.83,4.85,6,5.98,4.56,1.63-1.88-8.64-1.51-8.98,2.79.9,14.06,1.56,14.98,3.51.56,1.19-3.77,3.46-4.99,4.99-3.6,4.51-9.75,19.36-8.96,24.91.31,2.16,3.04,5.38,2.5,6.6-1.18,2.67-10.83,6.44-9.59,12.93-9.61-2.17-18.69-5.55-28.57-6.82-22.79-2.94-46.2-.69-67.76,6.96-1.99-6.41-4.9-9.2-10.16-13.06,5.31-9.41-1.09-24.86-7.42-32.57-1.82-2.23-4.94-1.86-4.05-5.44l15-2c1.3,1.22-6.13,7.03-2.48,8.99l7.48-6,3,13.99c-17.15-7.6-4.86,7.41,2.63,7.97,4.71.35,12.3-4.71,10.94-10-.98-3.83-7.34-5.49-5.78,1.74.73,3.38-4.71-.65-5.68-2.32-5.18-8.95,7.81-10.82,7.86-11.89-3.35-3.98-2.14-8.63-.06-12.9,2.88-3.68,9.85,8.38,8.09,11.4,8.74-3.44,15.87,6.48,8.5,12.98l-1.5-4.99c-5.76-.49-7.33,2.98-4.01,7.53,3.89,5.33,14.79,4.55,19.03,0,1.2-1.28,5.22-9.2,1.6-8.41-4.76,1.04-6.55,4.39-10.62,5.89,1.81-6.16.32-11.8,0-17.99,1.06-1.28,9.15,8.8,12,4.48.3-1.43-1.28-4.58-2.15-5.83-1.67-2.4-4.15-1.92-3.85-4.65h19ZM380.76,112.15c-.89.18-7.75,4.77-7.73,5.36l8.31,5.31,8.66-5.31c-2.22-1.41-6.85-5.83-9.23-5.35ZM351.72,116.22c-2.27.53-4.33,2.56-5.63,4.43,2.29,6.98,11.9,5.13,14.81-.35,1.22-4.77-6.32-4.75-9.18-4.08ZM404.72,116.21c-1.65.5-3.08,2.25-2.59,4.09,2.25,3.85,6.85,5.8,11.18,4.5,8.2-2.48-.06-11.14-8.59-8.58ZM338.01,123.01c-4.01-1.19-9.74-2.82-9.04,3.33l4.41,2.55,4.63-5.88ZM432.86,122.14c-1.84-.49-8.51-.73-7.84,2.34l5.35,4.44c2.79-1.89,4.49-3.56,2.49-6.78Z"/>
  <path class="cls-1" d="M493.01,332h-17c-.6,2.34.55,1.67,1.27,2.29,3.53,3.03,13.41,7.12,8.21,11.71-2.54.51-17.27-14-18.98-14h-21.5l31.91,25.68c.44,1.25-.21,1.93-.85,2.87-1.47,2.16-14.57,16.3-16.09,16.98-1.98.89-2.66.16-4.31-.68-10.66-5.42-24-19.34-34.74-26.27-1.23-.8-2.26-1.87-3.92-1.59v39h-16v-71.5l1.5-1.5h92c.3,0,1.08-1.08,1.89-.92,1.01.56,1.56,1.1,1.59,2.34.09,3.82-4.99,11.18-4.98,15.58Z"/>
  <path class="cls-1" d="M269.51,332l-6.51-16.42c3.8-3.29,8.42-.61,12.47-.54,28.16.47,56.39-.43,84.55-.05l-1.01,73.01h-15v-38l-40.35,28.89-4.5-3.02.33-2.89,43.57-31.43c2.54-1.87,2.24-5.13,1.81-7.91-.94-2.83-11.06-1.72-13.82-1.1l-42.4,31.39-14.6-19.5.42-1.45c3.22-2.83,7.75-5.47,10.87-8.14,1.05-.9,2.08-.97,1.67-2.84h-17.5Z"/>
  <path class="cls-1" d="M427.01,391v32.5h-94v-32.5h94ZM366.01,417.99c2.12,1.94,15.77-12.19,6.93-19.42-5.37-4.39-14.16,2.93-9.39,8.39,2.48,2.83,7.51,2.4,5.44.06-.14-.15-1.68-.17-2.43-1.03-5.16-5.99,4.55-10.64,6.26-2.25,1.06,5.18-3.83,10.54-6.83,14.25ZM409.69,408.29c-.5-.61-2.63-1.09-2.66-1.78,7.12-6.94-.84-11.14-8.02-8.49-.64,3.68,2.2.88,4.43,1.06,3.32.26,4.82,1.64,3.08,4.95-1.1,2.09-4.33,1.1-3.51,3.97,10.24,1.58,1.55,14.08-4.99,6.01v3.99c5.89,2.1,17.14-3.12,11.67-9.71ZM353.01,398c-4.71.46-3,2.41-3,4.5v15.5h4c.38-1.09-1-2.19-1-2.5v-17.5ZM391.01,398.01c-6.29,0-1.99,10.99-2.99,12h-5s2.99-4.52,2.99-4.52l-1.97-1.48c-3.32,7.6-8.71,9.92,3.99,8.99v5.01s2.99,0,2.99,0l.11-4.95,2.89-.06v-2.99s-3.06-.55-3.06-.55l.06-11.45Z"/>
  <path class="cls-1" d="M245.01,586.5c.7,4.16,4.42,1.6,7.02,2.98,1.53.81.5,2.12-.63,2.41-2.52.65-9.21-.97-12.93-.94-4.13.03-10.77,3.52-9.46-1.95,3.78.43,5.36-.84,5.94-4.57,1.49-9.61.88-35.61.11-45.97-.1-1.3-.32-4.6-1.26-5.25-1.44-1-6.61.38-5.78-3.2,3.93-.56,7.58.97,11.44,1.04,7.63.13,14.01-1.91,21.57.44,16.51,5.14,10.95,23.93,0,32.02,5.75,5.43,17.63,25.19,25.47,25.53,2.11.09,1.3-.02,1.52-1.5.3-2.03-.99-12.52,1.49-12.51,2.6,3.04.68,5.89,3.49,9.49,4.54,5.84,14.4,5.94,18.46-.56,10.02-16.03-31.01-24.32-20.49-45.5,4.96-9.98,18.57-10.55,28.1-8.01l.93,13.56c-3.01-.75-2.51-4.21-3.57-5.91-3.39-5.4-11.57-6.96-16.36-2.53-10.77,9.96,13.74,21.28,18.4,28.49,9.16,14.21-1.34,28.62-17.06,28.85-4.8.07-13.51-.63-18.87-.89-5.89-.29-10.29-1.36-14.51-5.51-7.33-7.19-11.19-22.6-23.01-20.49.74,6.24-1,14.56,0,20.5ZM245.01,535v23.5c0,.21-.82.71-.52,1.51,5.26,4.06,13.54,3.07,16.21-3.82,4.58-11.79-2.15-24.19-15.69-21.19Z"/>
  <path class="cls-1" d="M246.01,511v-55l-7-1.01v-1.99h25c.91,3.67-6.52,1.63-7.06,3.61l.28,48.67c1.48,6.64,16.97,6.15,20.36,1.8,1.56-2,.87-5.83,2.9-5.07,2.35.87-.47,9.74-1.49,11.48l-60.99.5c3.65-5.8-3.61-14.06-4.9-20.37l-1.57-.69c-4.47.87-14.57-1.58-17.6,1.51-1.3,1.32-6,14.64-5.7,16.11l4.77,1.46v2.99c-5.6-1.86-10.42-.55-15.8-.26-1.88.1-2.82.87-4.19-1.24,4.96-2.57,6.5-.99,9.53-6.45,8.29-14.94,12.43-37.46,20.68-52.32.6-1.08,1.27-2,2.28-2.73,1.73-.37,1.96,1.36,2.54,2.44,8.77,16.51,13.1,37.89,22.51,54.49,3.57,5.01,10.38,4.09,15.43,2.07ZM196.01,489h15l-6.51-20.01c-1.92-.18-1.91,1.35-2.45,2.55-2.34,5.23-3.95,11.99-6.04,17.46Z"/>
  <path class="cls-1" d="M327.01,453c.42,3.89-4.2.37-3.99,5.4l11.5,38.61c1.81.2,1.97-1.29,2.47-2.53,2.08-5.08,13.42-39.99,15.53-40.48,1.5-.35,2.19,1.28,2.53,2.45l16.96,40.06,11.77-38.22c-.03-4.07-5.41-1.74-4.78-5.29h17c.77,3.1-2.54,1.79-4.33,2.92-2.75,1.74-16.76,49.22-19.18,56.07-.5,1.15-1.3,3.4-2.99,3-2.32-.55-15.31-38.53-19.02-42.99-5.58,11.81-8.9,24.8-14.32,36.67-.75,1.64-2.87,7.66-5.19,5.84l-19.18-56.82c-.88-3.22-6.49-1.17-5.81-4.69h21Z"/>
  <path class="cls-1" d="M616.01,530.01c.75,2.62-2.74,2.35-3.05,3.7-.5,2.23,8.92,33.96,10.6,38.3.49,1.27-.05,2.42,1.94,2.01l15.53-43,2.87.1,17.61,42.89c4.78-12.96,9.96-27.07,11.35-40.86-1.71-.37-4.29-.5-3.84-3.13,6.01.57,10.96,1.13,16.99,0l-6.22,6.27-18.72,55.28-3.04.44-17.52-42.98c-6.55,11.88-9.35,28.51-15.95,40.03-.98,1.71-2,4.5-4.01,1.91l-18.75-55.25-5.78-4.22c-.42-2.16.97-1.54,2.47-1.48,5.91.26,11.17,1.44,17.51,0Z"/>
  <path class="cls-1" d="M96.51,561c-1.02.75-1.08.87-1.09,2.04-.02,8,1.11,16.26.73,24.32l1.51,1.49c2.21.68,6.53-1.05,6.35,3.14-8.56-.68-16.41-1.65-24.99,0-.58-3.71,4.47-2.44,5.56-3.93v-54.13c-1.35-1.89-7.36-.21-6.56-3.94,8.11.97,15.88.97,23.99,0,.76,3.67-4.88,1.75-5.86,4.63l-.14,21.36h31v-21.5c-1.84-2.66-7.18-.07-7-4.49,8.11.97,15.88.97,23.99,0,.55,2.75-.72,1.71-2.02,2.42-2.84,1.55-4.22.79-4.91,5.14-1.35,8.59-.79,31.67-.11,40.97.23,3.18,1.11,6.35,1.48,9.52l7.54,2.44c-2.96,3.17-7.52.49-11.43.46-4.72-.04-8.93.64-13.55,1.04-.29-4.27,6-1.72,6-5.49v-25.5h-30.5Z"/>
  <path class="cls-1" d="M470.01,587.5l1.67,1.33c2.26.67,6.51-.99,6.33,3.16-8.56-.68-16.41-1.65-24.99,0-.6-3.76,4.15-2.3,5.11-3.59.53-.72,1.62-8.37,1.76-10.04.49-6.01.85-41.42-1.32-44.42-1.29-1.78-6.53.18-6.56-3.44l24-.5c.67,3.52-4.64,2.03-5.99,4.49v21.5h31v-21.5c-1.84-2.66-7.18-.07-7-4.49,4.31-.42,8.2,1.01,12.51,1.07,2.84.04,10.13-2.7,11.48.43-3.63,1.75-6.18,1.31-6.93,6.06-1.35,8.61-.84,32.68-.1,41.97.23,2.87.92,5.7,1.49,8.51l7.52,2.45c-2.96,3.17-7.52.49-11.43.46-4.72-.04-8.93.64-13.55,1.04v-2.99s6-1.5,6-1.5v-26.5h-31v26.5Z"/>
  <path class="cls-1" d="M509.01,454.99l1.49-2c15.22,1.33,32.3-2.57,46.8,3.22,24.67,9.86,21.56,47.25-2.49,56.07-13.29,4.88-23.98,1.38-37.33,1.66-2.53.05-7.11,2.54-6.97-.96,1.08-1.3,3.46-.71,4.54-1.47.73-.52,1.89-12.62,2.02-14.98.49-9.56.77-23.7,0-33.08-.47-5.71-1.56-8.78-8.04-8.47ZM527.01,458.5v48c0,.49,2.85,2.82,3.77,3.23,9.39,4.21,26.03-.49,30.12-10.35,6.46-15.54,1.69-34.87-15.34-40.44-3.22-1.05-17.48-3.92-18.55-.45Z"/>
  <path class="cls-1" d="M584.67,537.34c15.8,14.65,8.82,46.22-11.69,53.13-27.75,9.34-54.43-13-43.46-41.46,8.25-21.39,39.34-26.33,55.15-11.67ZM556.8,533.21c-27.11,2.69-22.22,51.68,1.82,54.67,14.68,1.83,21.77-6.55,23.28-20.49,1.63-14.97-6.94-35.98-25.1-34.18Z"/>
  <path class="cls-1" d="M655.79,452.28c26.42-2.9,44.38,15.92,35.95,41.95-3.09,9.55-13.5,18.87-23.46,20.54-48.78,8.18-54.51-57.87-12.49-62.49ZM654.75,456.24c-25.48,4.28-20.11,59.96,12.53,54.51,16.63-2.77,17.41-29.95,11.49-42.01-4.18-8.53-14.58-14.09-24.02-12.5Z"/>
  <path class="cls-1" d="M183.82,529.28c25.3-1.73,41.53,17.72,33.24,42.25-9.53,28.2-52.53,28.32-62.25.17-7.29-21.12,7.15-40.93,29.01-42.43ZM181.8,533.23c-27.13,2.95-22.23,60.3,11.48,54.52,22.81-3.91,18.9-57.83-11.48-54.52Z"/>
  <path class="cls-1" d="M115.66,460.35c17.17,16.35,6.76,50.65-17.39,54.4-52.3,8.13-53.55-65.44-4.72-62.79,7.21.39,16.8,3.34,22.11,8.39ZM84.75,456.24c-25.39,4.33-19.06,59.87,12.53,54.51,14.65-2.48,16.98-22.21,14.48-34-2.73-12.9-13.19-22.87-27.01-20.51Z"/>
  <path class="cls-1" d="M499.01,453c.82,3.27-3.14,1.65-4.77,3.23-2.44,2.37-.91,35.91-1.19,42.31-.23,5.24-1.9,10.87-1.05,16.45-1.55.29-2.32-.15-3.54-.95-6.17-4-23.3-23.02-29.48-29.52-3.84-4.04-7.94-8.99-11.69-13.25-.6-.68.06-1.92-2.28-1.27l2.2,40.78,6.79,1.22c-.26,5.15-5.37,1.97-8.45,1.95-3.48-.01-6.26.61-9.33.78-1.88.1-2.82.87-4.19-1.24,1.33-2.25,4.59-.98,6.04-1.94,2.99-2.01,1.59-52.29,1.95-59.55l3.39,1.12,43.1,44.86c2.15-1.35.84-1.72.8-2.75-.23-6.03.28-36.19-2.27-38.76-2.08-2.09-6.54.05-6.03-3.47h20Z"/>
  <path class="cls-1" d="M764.01,512.01c.28,1.2-.41,2.58-1.59,2.83s-12.9-1.26-14.8-1.94c-1.22-.43-4.23-2.34-5.26-3.24-7.06-6.17-11.38-23.37-22.69-20.7-.99.22-1.11,1.69-1.13,2.52-.07,3.23.03,15.61.68,17.82,1.12,3.78,5.58,1.61,7.78,4.2-1.29,1.91-2.42,1.5-4.35,1.42-4.31-.19-8.36-1.05-13.18-.96-2.53.04-7.1,2.54-6.97-.96,1.98-2.37,5.61,1.28,6.51-7.5,1.11-10.86.98-33.04.04-44.04-.71-8.33-3.02-3.96-8.04-8.45,11.68,1.52,36.94-4.49,43.21,8.28,2.78,5.65,1.54,10.79-1.39,16.04-2.04,3.66-5.55,5.86-7.79,9.12,9.09,8.19,15.33,25.31,28.96,25.56ZM719.01,458.5v25c19.08,10.1,23.24-24.03,6.43-26.44-2.24-.32-4.98-.56-6.43,1.44Z"/>
  <path class="cls-1" d="M28.51,453c16.12,1.9,19.49,14.9,10.48,27.48-1.45,2.02-5.42,3.81-4.52,6.47.62,1.84,15.09,19.16,17.35,20.98,4.14,3.32,6.43,3.58,11.17,5.58-1.44,2.25-2.26,1.12-3.99,1.02-9.43-.52-13.29.29-19.96-7.06-2.92-3.21-10.55-16.24-12.73-17.52s-7.48-1.84-9.3.55v17c0,4.2,4.48,5.25,8.01,4.5v2.99c-6.74-1.46-13.27-.67-20.03-.44-1.62.06-2.63,1.08-3.97-1.07l5.06-1.92.78-1.22c.88-14.81,2.42-32.12,1.18-46.89-.16-1.97-.39-4.83-1.59-6.41-2.26-2.99-6.75-.36-6.45-4.05,9.05.77,19.66-1.04,28.5,0ZM17.01,458.5v25c12.59,5.58,18.4-2.78,17.06-15.07-.85-7.79-10.1-14.69-17.06-9.93Z"/>
  <path class="cls-1" d="M350.01,555.5l1.66,1.34,17.34-1.83c-.24,2.15.96,12.99-1.49,12.98-2.26-1.95-.93-5.8-4.2-6.78-1.95-.59-11.9-.64-12.87.74.47,15.06-6.86,27.5,13.96,24.94,6.29-.77,3.97-2.41,7.12-6.87,3.14-1.67.35,8.6-.28,9.73-2.67,4.79-15.58,1.36-20.69,1.22-4.77-.13-8.84.54-13.34.78-1.88.1-2.82.87-4.19-1.24,3.47-2.55,6.07-.71,6.91-6.07,1.21-7.75,1.18-39.04.11-46.98-.7-5.22-3.22-3.69-6.78-5.21-1.41-.6-1.55-.16-1.26-2.24,12.42.75,25,2.05,37.36.07l1.44,2.18c-1.69,3.11.7,8.18-2.79,9.74.48-9.86-11.5-6.46-18.01-7v20.5Z"/>
  <path class="cls-1" d="M185.01,453c.37,3.05-4,2.29-6.51,3.99-6.05,4.1-19.06,29.62-19.53,37.46-.18,2.93.05,16.57,2.68,17.4l5.38.62c1.52.8.43,2.2-.6,2.46-2.17.56-6.02-.95-8.87-.99-4.97-.07-9.67.22-14.55,1.04v-2.99c2.93.19,5.34-.26,5.97-3.53s.4-17.13-.4-20.54c-.95-4.04-16.45-29.23-19.64-31.36-1.97-1.31-5.65-.57-4.92-3.57h19.99s-1.86,5.25-1.86,5.25l13.37,23.76c1.64.24,1.99-1.27,2.69-2.31,2.04-3.06,11.18-19.72,10.84-22.13-.26-1.9-2.37-2.55-2.04-4.57h18Z"/>
  <path class="cls-1" d="M419.33,547.69c5.71,6.78,16.3,9.67,20.18,19.32,8.55,21.31-15.34,31.34-31.59,22.59-1.33-1.74-1.46-11.76-.43-13.61,1.88-3.36,3.11,4.74,3.48,5.56,5.68,12.28,25,7.65,20.96-5.91-2.6-8.72-14.92-12.67-19.77-20.29-6.12-9.61-3.47-21.29,7.81-24.87,3.79-1.21,19.05-2.38,19.81,2.14-1.77,1.56,1.28,11.54-1.27,11.37-1.3-.09-1.55-11.29-11.95-11.03-7.86.2-12.63,8.32-7.23,14.74Z"/>
  <path class="cls-1" d="M585.01,498c2.77-.46,1.69.56,2.26,2.19,1.55,4.44,1.25,8.4,6.9,10.14,7.16,2.21,15.93-.27,15.93-8.83,0-13.28-33.06-21.4-21.64-41.55,5.05-8.91,19.51-9.54,28.12-6.02l.43,12.06c-4.4-1.35-2.68-6.36-7.62-8.87-7.94-4.02-16.35.69-14.16,10.16,1.64,7.08,20.99,14.16,22.72,25.27,3.39,21.8-15.92,26.03-32.94,20.44v-15Z"/>
  <path class="cls-1" d="M331.01,405v20.5c4.47,4.81,13.81,3.61,18,8.49l-52.01-2.5c.05-2.53,10.93-8.78,11.87-12.21s-6.25-13.96-4.85-15.27l27,.99Z"/>
  <path class="cls-1" d="M430.01,405c6.16-.16,12.37.2,18.54.04,1.85-.05,9.06-2.52,7.96.92l-5.39,13.34,12.87,12.19-52.98,2.49c.02-1.35,2.74-2.23,3.82-2.66,3.17-1.26,15.17-3.24,15.17-6.83v-19.5Z"/>
  <path class="cls-1" d="M423.01,453.01c.87,3.53-4.47,1.41-5.79,3.21-2.14,17.76-1.68,36.8-.06,54.64l7.86,1.15v2.99c-5.64-.29-10.81-1.27-16.56-1.04-4.07.16-9.74,3.24-8.46-1.95,4.83.21,5.62-.99,6.06-5.45,1.49-15.11-1.22-32.66-.06-48.06-.85-4.55-6.07-1.48-6-5.49h22.99Z"/>
  <path class="cls-1" d="M389.01,0c1.38,1.2-5.39,5.77-5,8.48.29,2.03,2.47.95,3.5.54,1.85-.74,6.06-5.75,6.5-2.5.31,2.3-2.07,9.58,0,13.48-1.24,1.4-5.85-5.51-8.47-5-3.9.76,2.11,7.44,3.46,8.5.03,2.5-12.4.09-14.98,1.49-.97-.85,8.04-9.39,3.47-10-3.31-.44-5.64,4.46-8.48,5V5c2.11-.35,8.01,6.73,9.51,4s-4.6-6.34-4.51-9h15Z"/>
  <path class="cls-1" d="M375.97,46.97c-3.41,2.89-6.32-7.65-5.74-11.21,3-18.29,35.02-4.73,18.29,11.23-.58-.02-3.3-6.93-8.53-5.56-4.14,1.09-3.74,5.31-4.02,5.55Z"/>
  <path class="cls-1" d="M402.72,48.13c1.54-.38,11.86,4.54,13.96,5.7,10.46,5.78,19.4,14.36,25.13,24.86,1,1.84,3.46,5.46-.27,5.96-4.34.58-8.01-8.92-10.55-12.13-7.71-9.72-18.89-15.79-30.54-19.46l.04-3.07c.58-.73,1.32-1.63,2.23-1.86Z"/>
  <path class="cls-1" d="M363.01,52.99c-14.62,3.92-25.24,11.4-34.02,23.49-2.63,3.62-1.91,7.18-7.18,7.87-4.34.56-2.41-2.56-1.18-5.23,6.6-14.31,24.24-26.54,38.93-31.12l1.95,1,1.5,4Z"/>
  <path class="cls-1" d="M398.67,41.12c1.31-.11,1.55.53,2.33,1.37-5.58,6.11-5.33,15.98-5.79,24-.08,1.47,1.21,3.24.73,4.86-.65,2.22-5.37,2.29-6.49.7s1.19-18.05,2.04-21.08,3.45-9.54,7.17-9.86Z"/>
  <path class="cls-1" d="M368.01,73v-14.5l-4.99-17.5c9.28,1.13,11.29,19.07,11.06,26.49-.17,5.27-.22,5.92-6.06,5.5Z"/>
  <path class="cls-1" d="M419.01,427.99l-14.55,5.02c-2.64-.01-3.08-3.15-2.02-5.08l1.22-.78c4.74,1.16,12.37-3.4,15.35.84Z"/>
  <path class="cls-1" d="M358.02,426.99v6s-17-5.01-17-5.01c3.45-4.25,11.76.62,17-.99Z"/>
  <path class="cls-1" d="M314.26,73.75c-1.45-1.45-1.82-4.63.28-5.76,2.07,3.21,6.8-1.1,7.47,1.53,1.23,4.82-4.74,7.23-7.74,4.23Z"/>
  <path class="cls-1" d="M378.51,56.02c2.08,4.4,5.4-1.71,7.01.97,1.75,9.86-12.81,6.55-7.01-.97Z"/>
  <path class="cls-1" d="M378.26,71.75l-1.24-5.74c1.86-.77,3.62,1.65,4.5,1.65.46,0,3.7-3.31,4.49-.14s-4.7,7.32-7.75,4.23Z"/>
  <path class="cls-1" d="M425.02,52c3.05.21,5.29,2.17,7.5-.99,5.38,7.89-8.34,11.15-7.5.99Z"/>
  <path class="cls-1" d="M357.01,41l-.98,5.52c-4.59,3.1-8.03-.35-7.01-5.52h7.99Z"/>
  <path class="cls-1" d="M330.26,57.75l-1.24-5.75c1.66,1.18,8.64-.56,9,1.52.51,2.93-4.95,7.15-7.76,4.23Z"/>
  <path class="cls-1" d="M309.27,84.74c-1.29-2.02-2.04-4.22.27-5.75,2.11,3.27,6.71-1.55,7.47,1.53.82,3.29-4.67,7.33-7.74,4.22Z"/>
  <path class="cls-1" d="M321.54,58.99c1.58-.29,3.45,4.1,5.98.03,3.05,2.03,1.29,6.75-2.06,7.03s-7.66-4.67-3.92-7.06Z"/>
  <path class="cls-1" d="M347.01,46c.48,6.87-6.28,9.28-8.83,2.3l2.32-3.04c2.17,2.29,3.79,1.06,6.51.74Z"/>
  <path class="cls-1" d="M378.61,47.17h5.81s1.46,3.18,1.46,3.18l-5.22,3.49c-2.57-1.46-5.57-4.78-2.05-6.67Z"/>
  <path class="cls-1" d="M414.01,41c.6,4.62-3.39,9.23-7.5,5l-.49-5h7.99Z"/>
  <path class="cls-1" d="M448.9,79.16l.62,1.88c2.07.03,3.19-3.98,5.5-.51-.82,3.66-3.51,7.08-7.32,4.54-2.24-1.49-2.44-6.62,1.2-5.9Z"/>
  <path class="cls-1" d="M442.01,59c.95,5.18-2.55,9.37-7.09,5.58l-.9-5.58c4.33,2.02,3.68,2,7.99,0Z"/>
  <path class="cls-1" d="M424.01,46c1.67,8.91-9.76,8.68-7.99,0h7.99Z"/>
  <path class="cls-1" d="M442.51,68.02c2.85,4.35,4.44-1.91,7.05,1.97-1.18,8.68-12.28,4.76-7.05-1.97Z"/>
  <path class="cls-1" d="M391.01,398.01l-.06,11.45,3.06.55v2.99s-2.89.06-2.89.06l-.11,4.95h-2.99s0-5.01,0-5.01c-12.7.93-7.31-1.38-3.99-8.99l1.97,1.48-2.99,4.51h5c1-1-3.3-11.99,2.99-11.99Z"/>
  <path class="cls-1" d="M366.01,417.99c3-3.71,7.89-9.07,6.83-14.25-1.72-8.39-11.42-3.74-6.26,2.25.75.87,2.29.88,2.43,1.03,2.07,2.33-2.97,2.77-5.44-.06-4.78-5.46,4.02-12.78,9.39-8.39,8.84,7.23-4.82,21.36-6.93,19.42Z"/>
  <path class="cls-1" d="M409.69,408.29c5.47,6.59-5.78,11.8-11.68,9.71v-3.99c6.55,8.07,15.25-4.43,5-6.01-.82-2.86,2.41-1.88,3.51-3.97,1.74-3.31.23-4.69-3.08-4.95-2.23-.17-5.07,2.62-4.43-1.06,7.17-2.64,15.14,1.55,8.02,8.49.03.7,2.16,1.18,2.66,1.78Z"/>
  <path class="cls-1" d="M353.01,398v17.5c0,.31,1.38,1.41,1,2.49h-4s0-15.49,0-15.49c0-2.09-1.71-4.04,3-4.5Z"/>
</svg>