<svg width="140" height="48" viewBox="0 0 140 48" fill="none" xmlns="http://www.w3.org/2000/svg">
<g clip-path="url(#clip0_424_84461)">
<mask id="mask0_424_84461" style="mask-type:luminance" maskUnits="userSpaceOnUse" x="0" y="0" width="140" height="48">
<path d="M140 0H0V47.5961H140V0Z" fill="white"/>
</mask>
<g mask="url(#mask0_424_84461)">
<path d="M62.9273 12.3731V15.3534H64.3826C65.6805 15.3534 65.7592 15.0828 65.7592 14.3484H66.2075V16.9537H65.7592C65.7592 16.2309 65.6962 15.9603 64.3826 15.9603H62.9273V19.0952H64.3157C65.8889 19.0952 66.652 18.9793 66.7542 17.8583H67.2026V19.7021H60.1348V19.2382H60.4887C61.4445 19.2382 61.5232 18.9406 61.5232 18.1791V13.2931C61.5232 12.6089 61.472 12.2378 60.4887 12.2378H60.1348V11.7739H67.2026V13.6178H66.7542C66.6638 12.52 65.944 12.3808 64.3157 12.3808H62.9273V12.3731Z" fill="white"/>
<path d="M73.3738 11.7666L78.6836 17.6847H78.7347V13.2239C78.7347 12.3967 78.4869 12.2305 77.7514 12.2305H77.3974V11.7666H80.7406V12.2305H80.3473C79.655 12.2305 79.4151 12.4624 79.4151 13.2239V19.6986H78.6796L73.0316 13.4172H72.9805V18.1602C72.9805 18.9101 73.1378 19.2309 73.9087 19.2309H74.302V19.6948H70.9746V19.2309H71.3561C72.1821 19.2309 72.3001 18.9333 72.3001 18.1602V12.6441L72.1152 12.4895C71.891 12.3078 71.7888 12.2305 71.3286 12.2305H70.9746V11.7666H73.3738Z" fill="white"/>
<path d="M90.7666 14.167H90.3221C90.2317 13.0963 89.154 12.2304 87.6987 12.2304C85.3664 12.2304 84.4342 13.8036 84.4342 15.6591C84.4342 17.6305 85.3782 19.2308 87.683 19.2308C88.5207 19.2308 89.0202 19.026 89.3624 18.8559V17.6537C89.3624 16.6757 89.4018 16.4322 88.4185 16.4322H88.0134V15.9683H91.974V16.4322H91.7105C90.7666 16.4322 90.7666 16.7685 90.7666 17.5648V19.3429C89.8108 19.6019 88.9573 19.8339 87.738 19.8339C84.0134 19.8339 82.916 17.4102 82.916 15.7325C82.916 13.9273 84.1628 11.6196 87.6358 11.6196C88.7095 11.6196 89.7321 11.8361 90.7705 12.1337V14.1593L90.7666 14.167Z" fill="white"/>
<path d="M95.0528 19.2309H95.4067C96.4058 19.2309 96.4294 18.9332 96.4294 18.1717V13.2857C96.4294 12.5242 96.3507 12.2266 95.4461 12.2266H95.0528V11.7627H99.2219V12.2266H98.8404C97.8964 12.2266 97.8296 12.5242 97.8296 13.2857V19.0879H99.1668C100.858 19.0879 101.515 18.9062 101.617 17.8509H102.062V19.6947H95.0488V19.2309H95.0528Z" fill="white"/>
<path d="M109.038 12.2305H108.673C107.717 12.2305 107.65 12.5397 107.65 13.2857V18.1718C107.65 19.115 107.874 19.2309 108.673 19.2309H109.038V19.6948H104.857V19.2309H105.227C106.183 19.2309 106.25 18.9333 106.25 18.1718V13.2857C106.25 12.3967 106.065 12.2305 105.227 12.2305H104.857V11.7666H109.038V12.2305Z" fill="white"/>
<path d="M112.631 17.3595H113.075C113.284 18.7781 114.306 19.2304 115.227 19.2304C116.08 19.2304 116.946 18.8941 116.946 18.0321C116.946 17.4909 116.58 17.0773 115.254 16.2926C113.209 15.0827 112.686 14.5763 112.686 13.6099C112.686 12.4503 113.76 11.623 115.412 11.623C116.395 11.623 117.115 11.8318 117.952 12.0599V14.0699H117.508C117.406 13.5017 117.193 12.2261 115.502 12.2261C114.664 12.2261 114.007 12.5469 114.007 13.2195C114.007 13.7993 114.452 14.0815 115.53 14.7541C117.705 16.107 118.271 16.598 118.271 17.6417C118.271 18.6235 117.496 19.8334 115.309 19.8334C114.039 19.8334 113.095 19.5358 112.635 19.3811V17.3556L112.631 17.3595Z" fill="white"/>
<path d="M128.781 15.3228V13.2857C128.781 12.4855 128.691 12.2266 127.758 12.2266H127.393V11.7627H131.574V12.2266H131.208C130.252 12.2266 130.185 12.5242 130.185 13.2857V18.1717C130.185 18.9719 130.303 19.2309 131.208 19.2309H131.574V19.6947H127.393V19.2309H127.758C128.691 19.2309 128.781 18.9719 128.781 18.1717V15.9529H124.455V18.1717C124.455 19.1149 124.679 19.2309 125.477 19.2309H125.847V19.6947H121.666V19.2309H122.048C123.003 19.2309 123.058 18.9332 123.058 18.1717V13.2857C123.058 12.3966 122.889 12.2266 122.048 12.2266H121.666V11.7627H125.847V12.2266H125.477C124.521 12.2266 124.455 12.5358 124.455 13.2857V15.3228H128.781Z" fill="white"/>
<path d="M67.2537 31.1832V29.1461C67.2537 28.3459 67.1593 28.0869 66.2311 28.0869H65.8653V27.623H70.0463V28.0869H69.6805C68.7247 28.0869 68.6579 28.3846 68.6579 29.1461V34.0321C68.6579 34.8322 68.7759 35.0912 69.6805 35.0912H70.0463V35.5551H65.8653V35.0912H66.2311C67.1633 35.0912 67.2537 34.8322 67.2537 34.0321V31.8133H62.9273V34.0321C62.9273 34.9753 63.1515 35.0912 63.9499 35.0912H64.3157V35.5551H60.1348V35.0912H60.5123C61.4681 35.0912 61.5232 34.7936 61.5232 34.0321V29.1461C61.5232 28.257 61.354 28.0869 60.5123 28.0869H60.1348V27.623H64.3157V28.0869H63.9499C62.9942 28.0869 62.9273 28.3962 62.9273 29.1461V31.1832H67.2537Z" fill="white"/>
<path d="M75.7339 28.2334V31.2137H77.1853C78.4832 31.2137 78.5619 30.9432 78.5619 30.2087H79.0063V32.8141H78.5619C78.5619 32.0912 78.4989 31.8206 77.1853 31.8206H75.7339V34.9556H77.1223C78.6956 34.9556 79.4547 34.8396 79.5609 33.7186H80.0053V35.5625H72.9414V35.0986H73.2954C74.2511 35.0986 74.3298 34.8009 74.3298 34.0394V29.1534C74.3298 28.4692 74.2787 28.0981 73.2954 28.0981H72.9414V27.6343H80.0053V29.4781H79.5609C79.4704 28.3803 78.7467 28.2412 77.1223 28.2412H75.7339V28.2334Z" fill="white"/>
<path d="M85.5757 34.1129C85.5757 34.9904 85.9297 35.0947 86.5983 35.0947H86.9641V35.5586H82.7832V35.0947H83.149C83.8451 35.0947 84.1716 34.9904 84.1716 34.1284V29.1534C84.1716 28.4422 84.1716 28.0981 83.149 28.0981H82.7832V27.6343H86.6101C88.1165 27.6343 90.4096 27.6613 90.4096 29.799C90.4096 31.1132 89.4931 31.809 88.1795 31.9405V31.9907C88.3643 32.1569 88.5885 32.4662 88.7026 32.6363L89.8943 34.2482C90.4843 35.0329 90.6298 35.087 91.1018 35.0986V35.5625H90.5236C89.5403 35.5625 89.0566 35.3808 88.4666 34.5574L87.09 32.6363C86.6573 32.0448 86.4332 32.0062 86.1185 32.0062H85.5679V34.1206L85.5757 34.1129ZM85.5757 31.3916H86.677C88.1834 31.3916 88.9189 30.862 88.9189 29.8067C88.9189 28.7514 88.1991 28.2334 86.677 28.2334H85.5757V31.3916Z" fill="white"/>
<path d="M98.4114 28.0903H98.0417C97.0859 28.0903 97.0191 28.3996 97.0191 29.1456V34.0316C97.0191 34.9748 97.2393 35.0908 98.0417 35.0908H98.4114V35.5546H94.2305V35.0908H94.5962C95.552 35.0908 95.6189 34.7931 95.6189 34.0316V29.1456C95.6189 28.2565 95.434 28.0903 94.5962 28.0903H94.2305V27.6265H98.4114V28.0903Z" fill="white"/>
<path d="M109.158 29.4703H108.713C108.623 28.5271 108.186 28.2334 106.444 28.2334H106.039V34.0355C106.039 34.8859 106.168 35.0946 107.061 35.0946H107.427V35.5585H103.246V35.0946H103.612C104.595 35.0946 104.634 34.7738 104.634 34.0355V28.2334H104.229C102.589 28.2334 102.054 28.531 101.976 29.4703H101.531V27.6265H109.162V29.4703H109.158Z" fill="white"/>
<path d="M120.229 35.5551H116.386V35.0912H116.638C116.925 35.0912 117.488 35.0526 117.488 34.6274C117.488 34.407 117.342 34.0321 117.303 33.9432L116.689 32.4202H113.755L113.255 33.8001C113.043 34.38 113.008 34.4959 113.008 34.6776C113.008 35.0023 113.425 35.0912 113.834 35.0912H114.125V35.5551H111.029V35.0912H111.238C111.918 35.0912 112.115 34.9366 112.563 33.7228L114.778 27.623H116.079L118.766 33.8659C119.187 34.8322 119.407 35.0912 120.024 35.0912H120.237V35.5551H120.229ZM116.441 31.8171L115.194 28.7247H115.065L113.975 31.8171H116.441Z" fill="white"/>
<path d="M129.948 30.0274H129.504C129.409 28.9566 128.336 28.0907 126.88 28.0907C124.548 28.0907 123.616 29.664 123.616 31.5194C123.616 33.4909 124.56 35.0912 126.869 35.0912C127.706 35.0912 128.206 34.8863 128.544 34.7162V33.5141C128.544 32.5361 128.583 32.2926 127.6 32.2926H127.195V31.8287H131.152V32.2926H130.888C129.944 32.2926 129.944 32.6289 129.944 33.4251V35.2033C128.985 35.4623 128.135 35.6942 126.916 35.6942C123.191 35.6942 122.09 33.2705 122.09 31.5929C122.09 29.7877 123.333 27.48 126.806 27.48C127.879 27.48 128.902 27.6965 129.94 27.9941V30.0196L129.948 30.0274Z" fill="white"/>
<path d="M135.73 28.2334V31.2137H137.185C138.483 31.2137 138.562 30.9432 138.562 30.2087H139.006V32.8141H138.562C138.562 32.0912 138.495 31.8206 137.185 31.8206H135.73V34.9556H137.118C138.692 34.9556 139.451 34.8396 139.557 33.7186H140.001V35.5625H132.938V35.0986H133.291C134.247 35.0986 134.326 34.8009 134.326 34.0394V29.1534C134.326 28.4692 134.275 28.0981 133.291 28.0981H132.938V27.6343H140.001V29.4781H139.557C139.463 28.3803 138.743 28.2412 137.118 28.2412H135.73V28.2334Z" fill="white"/>
</g>
<path d="M13.6126 13.4636H34.4975V34.1287H13.6126V13.4636ZM34.5526 0V6.25054H27.8505V0.699659H20.2517V6.25054H13.5575V0H6.6234V6.55979H0V13.4134H6.32055V20.0389H0.707965V27.5573H6.32055V34.1866H0V41.0441H6.62734V47.6H13.5615V41.3456H20.2557V46.9003H27.8545V41.3456H34.5565V47.6H41.4789V41.0441H48.1101V34.1866H41.7896V27.5573H47.4061V20.0389H41.7896V13.4134H48.1101V6.55979H41.4789V0H34.5565H34.5526Z" fill="white"/>
</g>
<defs>
<clipPath id="clip0_424_84461">
<rect width="140" height="47.6" fill="white"/>
</clipPath>
</defs>
</svg>
