<?xml version="1.0" encoding="UTF-8"?>
<svg id="Layer_1" xmlns="http://www.w3.org/2000/svg" version="1.1" viewBox="0 0 199.5 75.1">
  <!-- Generator: Adobe Illustrator 29.5.1, SVG Export Plug-In . SVG Version: 2.1.0 Build 141)  -->
  <defs>
    <style>
      .st0 {
        fill: #fff;
      }
    </style>
  </defs>
  <g>
    <g>
      <polygon class="st0" points="105.1 .2 199.5 .3 199.5 18.8 199.3 19 105.3 19 105.1 18.8 105.1 .2"/>
      <g>
        <polygon class="st0" points="0 .2 34.9 0 34.9 19 .3 19 0 18.8 0 .2"/>
        <path class="st0" d="M64.5,6.7h6.8l.2-.3V.2c0,0,5.5-.2,5.5-.2v19h-5.4l-.2-.3v-6.7c0-.1-.3-.4-.3-.4h-6.3l-.3.3v6.9l-.3.3h-5.1l-.3-.3V.3c.2-.3.8-.2,1.2-.2C61.2,0,62.8,0,63.9,0c.2,0,.5,0,.7.2v6.4h0Z"/>
        <path class="st0" d="M86,4.8v2.3h8.5v4.3l-.3.2h-7.8c-.5.4-.5,2.2,0,2.7h8.4v4.5l-.3.3h-13.8l-.3-.3V.3l.3-.2h13.7l.3.2v4.2l-.3.3h-8.4Z"/>
        <path class="st0" d="M56.6,0v4.9h-4.7l-.3.3v13.6l-.3.3h-5.1l-.3-.6V5.4c0-.2-.1-.4-.2-.4h-4.8V.3L56.6,0Z"/>
      </g>
    </g>
    <g>
      <path class="st0" d="M199.4,27.9c0,.2.2.4.2.4v18.3l-.3.3H65.7l-.3-.3v-18.3s.4-.4.4-.4h133.5,0Z"/>
      <g>
        <path class="st0" d="M58.7,27.9v4.8h-8.4c-.5.6-.2,1.6-.3,2.3h8.2l.3.3v4l-.7.3h-7.4l-.3.2.2,2.3h8.5v4.8h-14l-.3-.3v-18.8h14.3,0Z"/>
        <path class="st0" d="M28.3,27.9l4.4,12.5,4.2-12.5h6.1l-6.8,18.9c-.1.2-.3.2-.5.2-.7,0-6.4,0-6.6,0l-6.9-19h6.1Z"/>
        <path class="st0" d="M5.6,42h7.1c0,1.5.1,3,.1,4.6,0,.2,0,.2-.2.4H.3l-.3-.3v-18.5l.3-.3h5.1l.3.3v13.8h0Z"/>
        <path class="st0" d="M20.8,46.9h-5.5v-19h5.2c0,0,.3.3.4.4v18.6c-.1,0-.1,0-.1,0Z"/>
      </g>
    </g>
  </g>
  <g>
    <polygon class="st0" points="49.2 55.7 49.2 74.8 0 74.8 0 56 .3 55.7 49.2 55.7"/>
    <g>
      <polygon class="st0" points="141.6 74.8 141.6 56 141.8 55.7 199.3 55.7 199.5 56 199.5 74.5 199.3 74.8 141.6 74.8"/>
      <path class="st0" d="M115.7,55.7l2.6,11.3.4-.6,2.5-10.3c.2-.5,4.1-.4,4.4,0,.9,3,1.4,6.1,2.2,9.2.1.4.3,1,.4,1.4,0,.2,0,.5.4.3.6-.3,1.9-9.9,2.6-11.1h5.8c.1,0,.4.4.2.6l-5.4,18.3c-.1.2-.3.2-.5.2-.6,0-5.3.1-5.4-.1l-2.4-10.1-.5.7-2.1,9.3c-.1.2-.3.2-.5.2-1,.1-4,.1-4.9,0-.2,0-.4,0-.5-.2l-5.3-18.5.2-.4h5.8,0Z"/>
      <path class="st0" d="M86.1,55.7c5.9.7,7.9,7.8,3.5,11.6-.4.3-1,.3-1,1l3.2,6.4h-6.3l-2.6-6-2.2-.2v6.2h-5.6v-18.8l.3-.3h10.8ZM84.9,60.5c-1-.2-2.8.2-3.9,0l-.3.3v3c.1.2.2.2.4.3,1.2.2,4.8.2,5-1.3.2-1-.3-2-1.3-2.2Z"/>
      <path class="st0" d="M100.1,62.8h8.2l.3.3v4.2l-.3.3h-8.2v2.5h8.6v4.5l-.3.3h-14v-18.8l.3-.3h13.8l.3.3v4.2l-.3.3h-8.1c-.4.1-.4,2.3-.3,2.3h0Z"/>
      <path class="st0" d="M67.4,61.8c-2.1-2.6-6.8-1.2-7.4,2-1.2,5.9,5.2,8.8,8.3,3.7l4.7,2c-.8,2.5-3.2,4.4-5.7,5.1-8,2.3-15.3-4.5-12.7-12.7,2.2-7,13-8.9,17.4-3.1.3.5,1.3,1.9.7,2.3l-4.2,1.9-.3-.2c-.2-.4-.4-.8-.7-1.2h0Z"/>
    </g>
  </g>
</svg>