<?xml version="1.0" encoding="UTF-8"?>
<svg id="Layer_1" data-name="Layer 1" xmlns="http://www.w3.org/2000/svg" viewBox="0 0 95.12 64.07">
  <defs>
    <style>
      .cls-1 {
        fill: #04a573;
      }
    </style>
  </defs>
  <path class="cls-1" d="M77.7,64.07L95.12,0h-16.76c-.82,3.2-1.65,6.56-2.49,10.04h0s0,.01,0,.02c-.34,1.43-.68,2.88-1.03,4.35,0,0,0,.01,0,.02h0c-.26,1.12-.52,2.25-.79,3.4-.51,2.25-1.01,4.46-1.5,6.66,0,0,0,0,0,.01h0c-.89,4.01-1.75,7.95-2.56,11.8-.33,1.53-.59,2.7-.78,3.49-.03.11-.06.24-.08.36h0s0,.01,0,.02c-.04.18-.09.37-.13.58,0,.04-.02.07-.02.11-.04.2-.09.4-.14.63-.02.08-.04.17-.06.26-.04.2-.08.39-.13.6-.07.32-.14.65-.21,1.01h-.16c-.17-.61-.35-1.22-.52-1.83h0c-1.03-3.61-2.05-7.23-3.08-10.85-.12-.42-.24-.85-.36-1.27h0c-.38-1.33-.75-2.65-1.13-3.98-1.09-3.86-2.22-7.71-3.33-11.56h0c-.25-.87-.5-1.73-.75-2.6h0c-.33-1.15-.66-2.3-.99-3.45h0c-.03-.11-.07-.23-.1-.34C57.28,4.96,56.56,2.46,55.85,0h-16.59c-1.21,4.27-2.11,7.47-2.71,9.61-.1.37-.22.79-.35,1.23-.17.61-.36,1.27-.57,2.01-.01.04-.02.08-.03.12-.22.76-.45,1.58-.71,2.48h0c-.4,1.39-3.14,10.92-3.14,10.92-.6,2.08-1.19,4.16-1.79,6.23h0c-.45,1.57-.9,3.13-1.35,4.7h0c-.58,2.02-1.16,4.05-1.75,6.07h-.16c-.25-1.13-.5-2.27-.75-3.42h0s0,0,0-.01c-.66-3-1.32-6.03-2-9.1h0c-.27-1.22-.53-2.43-.8-3.65h0c-.16-.74-.33-1.48-.49-2.23-.18-.83-.37-1.66-.55-2.5-.12-.55-.25-1.09-.37-1.64h0c-.2-.91-.41-1.82-.62-2.73h0c-.48-2.12-1.47-6.32-1.47-6.32h0c-.29-1.24-.86-3.59-.86-3.6-.24-1.11-.65-2.67-.65-2.67h0c-.35-1.42-.88-3.56-.88-3.56C17.21,1.82,16.94.61,16.76,0H0l17.41,64.07h18.4c.42-1.35.84-2.71,1.26-4.09h0s0,0,0,0c1.09-3.58,2.17-7.27,3.26-11.05h0c.25-.85.49-1.7.74-2.56.78-2.75,1.54-5.52,2.31-8.28h0c.43-1.55.87-3.09,1.3-4.64h0c.52-1.87,1.05-3.73,1.57-5.6.05-.18.1-.37.15-.55h0c.38-1.29.74-2.59,1.08-3.88h.16c.52,1.88,1.03,3.72,1.54,5.54h0c.32,1.12.74,2.61.74,2.61,1.69,5.98,2.93,10.24,3.43,11.94.02.05.03.11.05.16h0c.63,2.15,1.12,3.81,1.74,5.88.01.04.03.09.04.13h0c.34,1.12.68,2.26,1.02,3.42h0s.35,1.15.68,2.26c.03.11.06.21.09.31h0c.34,1.12.69,2.25,1.04,3.4h0c.04.12.08.25.11.37.22.71.43,1.41.65,2.13,0,.02.01.04.02.06h0c.25.81.5,1.63.76,2.46h18.15ZM80.2,2.37h3.35l-4.46,4.46c.37-1.51.74-3.01,1.11-4.46ZM86.89,2.37h4.44l-14.68,14.68c.45-1.96.91-3.9,1.36-5.8l8.88-8.88ZM72.3,36.79c.38-1.79.77-3.6,1.16-5.42l14.67-14.67-1.66,6.1-14.22,14.22c.02-.08.03-.15.05-.23ZM44.62,2.37l-4.97,4.97c.37-1.31.8-2.83,1.29-4.57l.11-.4h3.57ZM47.97,2.37h4.44l-15.85,15.85c.78-2.73,1.35-4.71,1.78-6.22l9.63-9.63ZM35.2,22.91L54.45,3.67c.33,1.14.66,2.29.99,3.45l-22.02,22.02c.6-2.08,1.19-4.15,1.79-6.23ZM56.18,9.72c.33,1.14.67,2.28,1,3.44l-7.88,7.88h-3.65l-.46,1.77c-.28,1.09-.58,2.17-.89,3.23l-14.03,14.03c.6-2.08,1.19-4.15,1.79-6.23l24.12-24.12ZM24.39,43.87l.37,1.71-7.8,7.8-.95-3.49,7.95-7.95c.14.65.28,1.29.42,1.93ZM21.96,32.81l-8.33,8.33-.95-3.49,8.48-8.48c.27,1.22.54,2.44.8,3.64ZM19.79,22.98c.26,1.16.51,2.31.77,3.46l-8.58,8.58-.95-3.49,8.73-8.73c.01.06.03.12.04.18ZM17.67,13.74l-9.03,9.03-.95-3.49,9.13-9.13c.29,1.19.57,2.38.85,3.59ZM16.17,7.46l-9.19,9.19-.95-3.49L15.29,3.9c.29,1.18.59,2.36.88,3.56ZM13.48,2.37L5.31,10.53l-.95-3.49,4.67-4.67h4.44ZM5.69,2.37l-2.04,2.04-.56-2.04h2.6ZM9.36,25.41l8.95-8.95c.28,1.2.55,2.41.83,3.61l-8.83,8.83-.95-3.49ZM14.35,43.77l8.22-8.22c.27,1.23.54,2.44.8,3.64l-8.07,8.07-.95-3.49ZM34.98,58.72l-2.98,2.98h-4.44l9.3-9.3c-.63,2.15-1.26,4.26-1.89,6.33ZM38.8,45.72c-.19.66-.38,1.31-.56,1.96l-14.02,14.02h-4.44l20.22-20.22c-.4,1.42-.8,2.84-1.2,4.24ZM43.01,30.68c-.57,2.06-1.14,4.11-1.71,6.15l-22.68,22.68-.95-3.49,25.33-25.33ZM50.14,23.55l7.8-7.8c.33,1.14.66,2.29.99,3.45l-7.83,7.83c-.32-1.15-.64-2.31-.97-3.47ZM59.67,21.8c.33,1.15.66,2.3.98,3.46l-7.84,7.84c-.32-1.14-.65-2.3-.98-3.46l7.84-7.84ZM53.56,35.7l7.84-7.84c.33,1.16.65,2.3.98,3.46l-7.83,7.83c-.33-1.14-.66-2.28-.99-3.45ZM55.62,42.83c-.1-.36-.21-.72-.32-1.09l7.81-7.81c.33,1.15.65,2.31.98,3.46l-7.79,7.79c-.23-.79-.46-1.58-.69-2.35ZM57.07,47.76l7.77-7.77c.33,1.15.65,2.31.98,3.46l-7.73,7.73c-.35-1.16-.69-2.3-1.02-3.42ZM75.89,61.7h-1.62l2.23-2.23-.61,2.23ZM70.93,61.7h-4.44l12.92-12.92-1.66,6.1-6.82,6.82ZM80.66,44.19l-17.52,17.52h-1.84c-.21-.67-.41-1.33-.61-1.99l21.63-21.63-1.66,6.1ZM83.56,33.49l-23.66,23.66c-.35-1.15-.7-2.29-1.03-3.41l8.01-8.01h3.47l.39-1.89c.21-1,.38-1.82.54-2.51l13.94-13.94-1.66,6.1ZM74.39,27.09c.42-1.9.85-3.8,1.28-5.72l15.36-15.36-1.66,6.1-14.98,14.98Z"/>
</svg>