<?xml version="1.0" encoding="UTF-8"?>
<svg id="Layer_1" data-name="Layer 1" xmlns="http://www.w3.org/2000/svg" viewBox="0 0 283.46 40.77">
  <defs>
    <style>
      .cls-1 {
        fill: #04a573;
      }
    </style>
  </defs>
  <path class="cls-1" d="M103.59,0h16.25c4.35,0,7.98.89,10.87,2.66,2.89,1.78,5.03,4.17,6.4,7.19,1.37,3.01,2.06,6.44,2.06,10.27,0,4.04-.75,7.62-2.25,10.74-1.5,3.12-3.68,5.55-6.53,7.29-2.86,1.74-6.22,2.61-10.09,2.61h-16.72V0ZM113.1,32.19h5.91c1.85,0,3.54-.3,5.07-.91,1.53-.61,2.81-1.78,3.84-3.5,1.03-1.72,1.54-4.14,1.54-7.24,0-3.62-.68-6.31-2.04-8.07-1.36-1.76-2.86-2.85-4.49-3.27-1.64-.42-3.45-.63-5.44-.63h-4.65v23.62h.26Z"/>
  <path class="cls-1" d="M147.54,0h16.25c1.39,0,3.14.24,5.23.73,2.09.49,4.15,1.73,6.17,3.74,2.02,2,3.03,5.01,3.03,9.01,0,2.47-.42,4.56-1.25,6.27-.84,1.71-1.89,3.04-3.16,4-1.27.96-2.69,1.7-4.26,2.22v.05c1.71,2.51,3.4,5.03,5.07,7.58,1.6,2.37,3.2,4.76,4.81,7.16h-10.45l-9.2-13.95h-2.98v13.95h-9.25V0ZM159.4,18.61h2.56c.91,0,1.84-.11,2.8-.34.96-.23,1.82-.71,2.59-1.44s1.15-1.81,1.15-3.24c0-1.95-.69-3.3-2.07-4.05-1.38-.75-2.78-1.12-4.21-1.12h-5.43v10.19h2.61Z"/>
  <path class="cls-1" d="M198.91,0h10.92l15.1,40.76h-9.88c-.07-.17-.14-.35-.21-.52-.73-1.99-1.28-3.47-1.65-4.44-.36-.98-.9-2.42-1.59-4.34h-14.79c-.77,2.13-1.34,3.69-1.72,4.7-.38,1.01-.94,2.54-1.67,4.6h-9.61L198.91,0ZM204.24,22.42h4.08c-.24-.66-.49-1.32-.73-1.99-.42-1.11-.89-2.43-1.41-3.95s-1.15-3.27-1.88-5.25h-.1c-.59,1.6-1.18,3.22-1.78,4.86-.77,2.09-1.53,4.2-2.3,6.32h4.13Z"/>
  <path class="cls-1" d="M222.95,0h10.66c.1.35.19.7.26,1.04,1.08,4.29,2.12,8.7,3.14,13.25,1.01,4.55,1.99,8.98,2.93,13.3h.1c1.46-5.09,2.92-10.17,4.39-15.26.8-2.79,1.39-4.86,1.78-6.22.38-1.36.96-3.4,1.73-6.11h10.56c.45,1.57.91,3.15,1.36,4.76,1.11,3.8,2.21,7.6,3.29,11.42,1.08,3.82,2.16,7.62,3.24,11.42h.1c.21-1.01.37-1.77.5-2.27.12-.5.29-1.25.5-2.22.8-3.8,1.66-7.72,2.59-11.76.92-4.04,1.84-7.82,2.74-11.34h10.66l-11.08,40.76h-11.55c-1.46-4.74-2.78-9.1-3.94-13.09-1.17-3.99-2.38-8.25-3.63-12.78h-.1c-.24.94-.5,1.88-.78,2.82-1.08,3.94-2.18,7.86-3.29,11.78-1.12,3.92-2.23,7.67-3.35,11.26h-11.71L222.95,0Z"/>
  <g>
    <path class="cls-1" d="M94.23,0h-27.02v40.76h27.54v-8.57s-18.29,0-18.29,0v-7.53h16.72v-9.04h-16.72v-7.05h17.77V0ZM88.12,23.16l3.57-3.57v3.57h-3.57ZM91.68,17.13v.34l-5.69,5.69h-2.82l6.03-6.03h2.49ZM84.9,17.13h2.16l-6.03,6.03h-2.82l6.03-6.03h.66ZM89.35,7.07l3.37-3.37v3.37h-3.37ZM92.73,1.51v.06l-5.5,5.5h-2.83l5.56-5.56h2.77ZM87.83,1.51l-5.56,5.56h-2.82l5.56-5.56h2.82ZM68.72,2.93l1.43-1.43h2.82l-4.25,4.25v-2.82ZM68.72,7.89l6.38-6.38h2.82l-9.2,9.2v-2.82ZM68.72,12.84l11.33-11.33h2.82l-5.56,5.56h-2.36v2.36l-6.24,6.24v-2.83ZM68.72,17.79l6.24-6.24v2.82l-6.24,6.24v-2.82ZM68.72,22.75l6.24-6.24v.63h2.2l-8.44,8.44v-2.83ZM68.72,27.7l10.57-10.57h2.82l-6.03,6.03h-1.12v1.12l-6.24,6.24v-2.82ZM68.72,32.65l6.24-6.24v2.82l-6.24,6.24v-2.82ZM74.96,33.7h.49l-5.56,5.56h-1.17v-1.65l6.24-6.24v2.33ZM72.02,39.26l5.56-5.56h2.82l-5.56,5.56h-2.82ZM76.97,39.26l5.56-5.56h2.82l-5.56,5.56h-2.82ZM81.93,39.26l5.56-5.56h2.82l-5.56,5.56h-2.82ZM86.88,39.26l5.56-5.56h.81v2.02l-3.54,3.54h-2.83ZM91.83,39.26l1.42-1.42v1.42h-1.42Z"/>
    <path class="cls-1" d="M49.44,40.76L60.52,0h-10.66c-.52,2.04-1.05,4.18-1.58,6.39h0s0,0,0,0c-.22.91-.44,1.83-.65,2.77,0,0,0,0,0,.01h0c-.17.72-.33,1.43-.5,2.16-.33,1.43-.64,2.84-.95,4.24,0,0,0,0,0,0h0c-.57,2.55-1.11,5.06-1.63,7.51-.21.98-.37,1.72-.5,2.22-.02.07-.04.15-.05.23h0s0,0,0,.01c-.03.11-.05.24-.09.37,0,.02-.01.05-.02.07-.03.13-.06.26-.09.4-.01.05-.02.11-.04.16-.03.12-.05.25-.08.38-.04.2-.09.42-.13.64h-.1c-.11-.39-.22-.78-.33-1.17h0c-.65-2.3-1.31-4.6-1.96-6.91-.08-.27-.15-.54-.23-.81h0c-.24-.85-.48-1.69-.72-2.53-.7-2.46-1.41-4.91-2.12-7.36h0c-.16-.55-.32-1.1-.48-1.65h0c-.21-.73-.42-1.46-.63-2.19h0c-.02-.07-.04-.14-.06-.22C36.44,3.15,35.99,1.57,35.54,0h-10.56c-.77,2.72-1.34,4.76-1.73,6.11-.07.24-.14.5-.22.78-.11.39-.23.81-.36,1.28,0,.02-.01.05-.02.07-.14.48-.29,1.01-.45,1.58h0c-.25.88-2,6.95-2,6.95-.38,1.32-.76,2.64-1.14,3.97h0c-.29,1-.57,1.99-.86,2.99h0c-.37,1.29-.74,2.58-1.11,3.86h-.1c-.16-.72-.32-1.45-.47-2.17h0s0,0,0,0c-.42-1.91-.84-3.84-1.27-5.79h0c-.17-.78-.34-1.54-.51-2.32h0c-.1-.47-.21-.94-.31-1.42-.12-.53-.23-1.06-.35-1.59-.08-.35-.16-.7-.24-1.04h0c-.13-.58-.26-1.16-.39-1.74h0c-.31-1.35-.93-4.02-.93-4.02h0c-.19-.79-.55-2.28-.55-2.29-.15-.71-.41-1.7-.41-1.7h0c-.22-.9-.56-2.26-.56-2.26C10.95,1.16,10.78.39,10.66,0H0l11.08,40.76h11.71c.27-.86.53-1.73.8-2.6h0s0,0,0,0c.69-2.28,1.38-4.62,2.08-7.03h0c.16-.54.31-1.08.47-1.63.5-1.75.98-3.51,1.47-5.27h0c.28-.98.55-1.97.83-2.95h0c.33-1.19.67-2.37,1-3.57.03-.12.06-.24.1-.35h0c.24-.82.47-1.65.69-2.47h.1c.33,1.19.66,2.37.98,3.52h0c.2.72.47,1.66.47,1.66,1.08,3.8,1.86,6.52,2.18,7.6,0,.03.02.07.03.1h0c.4,1.37.71,2.43,1.11,3.74,0,.03.02.05.02.08h0c.21.71.43,1.44.65,2.17h0s.22.73.43,1.44c.02.07.04.13.06.2h0c.22.71.44,1.43.66,2.17h0c.02.08.05.16.07.24.14.45.28.9.42,1.36,0,.01,0,.02.01.04h0c.16.52.32,1.04.48,1.56h11.55ZM51.03,1.51h2.13l-2.84,2.84c.24-.96.47-1.91.71-2.84ZM55.29,1.51h2.82l-9.34,9.34c.29-1.25.58-2.48.86-3.69l5.65-5.65ZM46,23.41c.24-1.14.49-2.29.74-3.45l9.33-9.33-1.05,3.88-9.05,9.05c.01-.05.02-.1.03-.15ZM28.39,1.51l-3.16,3.16c.24-.84.51-1.8.82-2.91l.07-.26h2.27ZM30.52,1.51h2.82l-10.09,10.09c.5-1.74.86-3,1.13-3.96l6.13-6.13ZM22.4,14.58l12.24-12.24c.21.73.42,1.46.63,2.2l-14.01,14.01c.38-1.32.76-2.64,1.14-3.97ZM35.75,6.19c.21.73.42,1.45.64,2.19l-5.02,5.02h-2.32l-.29,1.13c-.18.69-.37,1.38-.56,2.06l-8.93,8.93c.38-1.32.76-2.64,1.14-3.97l15.35-15.35ZM15.51,27.91l.24,1.09-4.96,4.96-.6-2.22,5.06-5.06c.09.41.18.82.27,1.23ZM13.97,20.88l-5.3,5.3-.6-2.22,5.39-5.39c.17.78.34,1.55.51,2.31ZM12.59,14.62c.16.74.33,1.47.49,2.2l-5.46,5.46-.6-2.22,5.55-5.55s.02.07.03.11ZM11.24,8.74l-5.75,5.75-.6-2.22,5.81-5.81c.18.76.36,1.52.54,2.28ZM10.29,4.75l-5.85,5.85-.6-2.22,5.89-5.89c.19.75.37,1.5.56,2.26ZM8.58,1.51L3.38,6.7l-.6-2.22,2.97-2.97h2.83ZM3.62,1.51l-1.3,1.3-.35-1.3h1.65ZM5.95,16.16l5.69-5.69c.18.76.35,1.53.53,2.3l-5.61,5.61-.6-2.22ZM9.13,27.85l5.23-5.23c.17.78.34,1.55.51,2.32l-5.13,5.13-.6-2.22ZM22.25,37.36l-1.89,1.89h-2.82l5.92-5.92c-.4,1.37-.8,2.71-1.2,4.02ZM24.68,29.09c-.12.42-.24.83-.36,1.25l-8.92,8.92h-2.83l12.87-12.87c-.25.9-.51,1.81-.76,2.7ZM27.36,19.52c-.36,1.31-.72,2.61-1.09,3.91l-14.43,14.43-.6-2.22,16.12-16.12ZM31.9,14.99l4.96-4.96c.21.73.42,1.46.63,2.19l-4.98,4.98c-.2-.73-.41-1.47-.62-2.21ZM37.97,13.87c.21.73.42,1.46.63,2.2l-4.99,4.99c-.21-.73-.41-1.46-.62-2.2l4.99-4.99ZM34.08,22.72l4.99-4.99c.21.73.42,1.47.62,2.2l-4.98,4.98c-.21-.72-.42-1.45-.63-2.19ZM35.39,27.25c-.07-.23-.13-.46-.2-.69l4.97-4.97c.21.73.42,1.47.62,2.2l-4.96,4.96c-.15-.5-.3-1-.44-1.49ZM36.31,30.39l4.94-4.94c.21.73.42,1.47.62,2.2l-4.92,4.92c-.22-.74-.44-1.46-.65-2.18ZM48.29,39.26h-1.03l1.42-1.42-.39,1.42ZM45.13,39.26h-2.83l8.22-8.22-1.05,3.88-4.34,4.34ZM51.32,28.11l-11.14,11.14h-1.17c-.13-.43-.26-.84-.39-1.26l13.76-13.76-1.05,3.88ZM53.17,21.31l-15.05,15.05c-.22-.73-.44-1.46-.66-2.17l5.1-5.1h2.21l.25-1.2c.13-.63.24-1.16.34-1.59l8.87-8.87-1.05,3.88ZM47.33,17.24c.27-1.21.54-2.42.81-3.64l9.77-9.77-1.05,3.88-9.53,9.53Z"/>
  </g>
</svg>