<?xml version="1.0" encoding="UTF-8"?>
<svg id="Layer_1" data-name="Layer 1" xmlns="http://www.w3.org/2000/svg" viewBox="0 0 160 160">
  <defs>
    <style>
      .cls-1 {
        fill: #fff;
      }

      .cls-2 {
        fill: #2242ff;
      }
    </style>
  </defs>
  <circle class="cls-2" cx="80" cy="80" r="80"/>
  <path class="cls-1" d="M113.61,118.22l19.42-71.44h-18.69c-.92,3.57-1.84,7.32-2.78,11.2h0s0,.01,0,.02c-.38,1.59-.76,3.21-1.15,4.85,0,0,0,.01,0,.02h0c-.29,1.25-.58,2.51-.88,3.79-.57,2.51-1.13,4.98-1.67,7.43,0,0,0,.01,0,.02h0c-1,4.47-1.95,8.87-2.86,13.16-.37,1.71-.66,3.01-.87,3.89-.03.12-.06.26-.09.4h0s0,.01,0,.02c-.05.2-.1.42-.15.65,0,.04-.02.08-.03.12-.05.22-.1.45-.15.7-.02.09-.04.19-.06.29-.05.22-.09.43-.14.67-.07.35-.15.73-.24,1.13h-.18c-.19-.68-.39-1.36-.58-2.05h0c-1.15-4.03-2.29-8.06-3.43-12.1-.13-.47-.27-.95-.4-1.42h0c-.42-1.48-.84-2.96-1.26-4.44-1.22-4.31-2.47-8.6-3.72-12.89h0c-.28-.96-.55-1.93-.83-2.9h0c-.37-1.28-.73-2.56-1.11-3.84h0c-.04-.13-.07-.25-.11-.38-.79-2.81-1.59-5.59-2.38-8.33h-18.5c-1.34,4.76-2.35,8.33-3.02,10.72-.12.41-.25.88-.39,1.37-.19.68-.4,1.42-.64,2.24-.01.04-.02.09-.04.13-.24.85-.5,1.77-.79,2.76h0c-.44,1.55-3.5,12.18-3.5,12.18-.67,2.32-1.33,4.63-2,6.95h0c-.5,1.75-1,3.49-1.51,5.24h0c-.65,2.26-1.3,4.51-1.95,6.77h-.18c-.27-1.26-.55-2.54-.83-3.81h0s0-.01,0-.02c-.73-3.34-1.47-6.73-2.23-10.15h0c-.3-1.36-.59-2.71-.9-4.07h0c-.18-.82-.37-1.65-.55-2.48-.21-.93-.41-1.85-.62-2.79-.14-.61-.28-1.22-.41-1.83h0c-.23-1.02-.46-2.03-.69-3.04h0c-.54-2.37-1.64-7.04-1.64-7.05h0c-.33-1.38-.96-4-.96-4.01-.26-1.24-.72-2.97-.73-2.98h0c-.39-1.59-.98-3.97-.98-3.97-.04-.14-.34-1.49-.54-2.17h-18.68l19.41,71.44h20.52c.47-1.5.93-3.03,1.4-4.56h0s0,0,0,0c1.21-3.99,2.43-8.1,3.64-12.32h0c.27-.95.55-1.89.82-2.85.87-3.07,1.72-6.15,2.58-9.23h0c.48-1.72.97-3.45,1.45-5.18h0c.58-2.08,1.17-4.16,1.75-6.25.06-.21.11-.41.17-.62h0c.42-1.44.83-2.88,1.2-4.33h.18c.58,2.09,1.15,4.15,1.72,6.17h0c.35,1.25.82,2.91.82,2.91,1.88,6.66,3.27,11.42,3.82,13.31.02.06.03.12.05.18h0c.7,2.4,1.25,4.25,1.94,6.56.01.05.03.1.04.14h0c.37,1.25.75,2.52,1.14,3.81h0s.39,1.28.76,2.52c.04.12.07.23.11.35h0c.38,1.25.76,2.51,1.16,3.8h0c.04.14.09.28.13.42.24.79.48,1.58.73,2.38,0,.02.01.04.02.06h0c.28.91.56,1.82.84,2.74h20.24ZM116.39,49.42h3.74l-4.98,4.98c.41-1.69.83-3.35,1.24-4.98ZM123.86,49.42h4.95l-16.37,16.37c.5-2.19,1.01-4.35,1.52-6.47l9.9-9.9ZM107.58,87.81c.42-1.99.86-4.01,1.3-6.04l16.35-16.35-1.85,6.8-15.86,15.86c.02-.09.04-.17.06-.26ZM76.72,49.42l-5.54,5.54c.41-1.46.89-3.16,1.44-5.09l.13-.45h3.98ZM80.45,49.42h4.95l-17.68,17.68c.87-3.05,1.51-5.25,1.98-6.93l10.74-10.74ZM66.22,72.33l21.45-21.45c.36,1.28.73,2.56,1.1,3.85l-24.55,24.55c.67-2.32,1.33-4.63,2-6.95ZM89.61,57.62c.37,1.27.74,2.55,1.12,3.83l-8.79,8.79h-4.07l-.51,1.97c-.32,1.22-.65,2.42-.99,3.6l-15.64,15.64c.67-2.32,1.33-4.63,2-6.95l26.89-26.89ZM54.16,95.7l.42,1.91-8.69,8.69-1.06-3.89,8.87-8.87c.16.72.31,1.44.47,2.15ZM51.46,83.37l-9.29,9.29-1.06-3.89,9.45-9.45c.3,1.36.6,2.72.89,4.06ZM49.03,72.4c.29,1.29.57,2.58.85,3.85l-9.57,9.57-1.06-3.89,9.73-9.73c.01.07.03.13.04.2ZM46.68,62.11l-10.07,10.07-1.06-3.89,10.18-10.18c.32,1.33.64,2.66.95,4ZM45,55.1l-10.25,10.25-1.06-3.89,10.33-10.33c.33,1.32.66,2.63.98,3.97ZM42,49.42l-9.11,9.11-1.06-3.89,5.21-5.21h4.95ZM33.32,49.42l-2.28,2.28-.62-2.28h2.9ZM37.4,75.11l9.98-9.98c.31,1.34.62,2.68.92,4.03l-9.84,9.84-1.06-3.89ZM42.97,95.59l9.16-9.16c.3,1.37.6,2.72.89,4.06l-9,9-1.06-3.89ZM65.97,112.26l-3.32,3.32h-4.95l10.37-10.37c-.7,2.4-1.41,4.75-2.1,7.05ZM70.23,97.76c-.21.74-.42,1.46-.63,2.19l-15.63,15.63h-4.95l22.55-22.55c-.45,1.58-.89,3.16-1.34,4.73ZM74.93,80.99c-.63,2.29-1.27,4.58-1.9,6.85l-25.29,25.29-1.06-3.89,28.25-28.25ZM82.87,73.04l8.7-8.7c.37,1.28.74,2.56,1.11,3.84l-8.73,8.73c-.36-1.28-.72-2.57-1.08-3.87ZM93.51,71.09c.37,1.28.73,2.57,1.1,3.85l-8.74,8.74c-.36-1.27-.73-2.56-1.09-3.86l8.74-8.74ZM86.69,86.59l8.74-8.74c.36,1.29.73,2.57,1.09,3.86l-8.73,8.73c-.37-1.27-.73-2.54-1.11-3.84ZM88.99,94.54c-.12-.4-.24-.81-.35-1.21l8.71-8.71c.36,1.29.73,2.57,1.09,3.86l-8.69,8.69c-.26-.88-.52-1.76-.77-2.62ZM90.61,100.03l8.66-8.66c.36,1.28.73,2.57,1.09,3.86l-8.61,8.61c-.39-1.29-.77-2.56-1.14-3.81ZM111.59,115.58h-1.81l2.49-2.49-.68,2.49ZM106.05,115.58h-4.95l14.41-14.41-1.85,6.8-7.61,7.61ZM116.9,96.05l-19.53,19.53h-2.06c-.23-.74-.45-1.48-.68-2.21l24.11-24.11-1.85,6.8ZM120.14,84.13l-26.38,26.38c-.39-1.28-.78-2.55-1.15-3.8l8.93-8.93h3.86l.44-2.1c.23-1.11.43-2.03.6-2.79l15.55-15.55-1.85,6.8ZM109.92,76.99c.47-2.11.94-4.24,1.42-6.37l17.13-17.13-1.85,6.8-16.7,16.7Z"/>
</svg>
